{"glyphs":{"0":{"ha":622,"x_min":35,"x_max":588,"o":"m 261 -18 q 97 45 160 -18 q 35 210 35 108 q 40 272 35 243 q 103 418 56 354 q 219 518 150 482 q 365 554 288 554 q 526 494 465 554 q 588 332 588 433 q 582 268 588 297 q 519 119 565 185 q 405 18 472 54 q 261 -18 338 -18 m 285 10 q 385 77 344 10 q 440 251 425 144 q 447 343 447 307 q 419 478 447 429 q 344 526 392 526 q 242 460 288 526 q 181 283 197 394 q 175 201 175 246 q 203 63 175 115 q 285 10 231 10 z "},"1":{"ha":404,"x_min":1,"x_max":354,"o":"m 7 0 q 1 8 1 0 q 7 17 1 17 q 78 24 54 17 q 113 51 101 31 q 133 113 125 71 l 182 379 q 188 417 188 410 q 165 442 188 442 q 71 410 139 442 l 68 408 q 62 416 64 408 q 64 428 60 424 l 322 554 q 329 554 325 557 q 332 547 333 551 l 253 113 q 249 71 249 88 q 269 27 249 38 q 349 17 290 17 q 354 8 354 17 q 349 0 354 0 q 278 1 304 0 l 179 3 l 79 1 q 7 0 53 0 z "},"2":{"ha":518,"x_min":-1,"x_max":464,"o":"m 1 22 q 191 196 131 138 q 283 299 251 254 q 322 390 314 344 q 325 422 325 413 q 307 486 325 461 q 253 511 289 511 q 174 470 210 511 q 99 347 139 429 q 94 346 97 346 q 86 348 90 346 q 83 354 82 350 l 165 571 l 171 574 q 180 571 176 574 q 182 563 183 568 q 175 536 175 542 q 188 524 175 524 q 226 533 200 524 q 328 554 283 554 q 422 524 389 554 q 456 446 456 494 q 431 356 456 396 q 371 287 407 317 q 274 214 335 257 q 206 165 240 190 q 147 114 172 139 q 147 111 143 111 q 361 125 294 111 q 449 189 428 139 q 453 190 449 190 q 460 188 457 190 q 463 183 464 186 l 404 10 q 402 3 404 6 q 394 0 400 0 l 11 0 q 1 8 4 0 q 1 22 -1 15 z "},"3":{"ha":492,"x_min":-58,"x_max":442,"o":"m -47 -383 q -54 -377 -50 -385 q -54 -367 -58 -369 q 171 -212 93 -307 q 265 -26 249 -118 q 269 21 269 -1 q 240 113 269 79 q 157 146 210 146 q 106 135 135 146 l 104 135 q 94 144 97 135 q 99 156 92 154 q 242 233 192 181 q 308 381 293 286 q 315 440 315 418 q 261 515 315 515 q 158 474 208 515 q 68 358 108 433 q 61 356 67 356 q 53 358 57 356 q 51 365 50 361 l 132 561 q 136 564 135 564 q 144 561 140 564 q 146 554 147 558 q 142 538 142 544 q 160 524 142 524 q 204 535 175 524 q 258 549 236 544 q 307 554 281 554 q 407 516 372 554 q 442 421 442 478 q 439 389 442 411 q 363 248 425 311 q 210 165 300 185 l 213 188 q 358 137 310 185 q 406 18 406 89 q 401 -25 406 -4 q 337 -155 390 -89 q 186 -281 283 -221 q -47 -383 89 -340 z "},"4":{"ha":601,"x_min":-18,"x_max":514,"o":"m 261 -261 q 253 -264 253 -264 q 250 -253 249 -264 l 365 408 l 450 476 l 88 96 q 93 86 78 86 q 510 93 342 86 q 513 81 513 93 q 508 34 513 61 q 499 7 503 7 q 295 15 404 13 q -8 17 186 17 q -16 22 -14 17 q -12 32 -18 26 l 494 563 q 500 564 496 564 q 511 556 514 564 l 376 -219 q 364 -239 374 -235 l 261 -261 z "},"5":{"ha":519,"x_min":-44,"x_max":510,"o":"m -33 -382 q -42 -376 -39 -382 q -39 -367 -44 -369 q 185 -197 114 -282 q 271 -11 256 -111 q 275 43 275 18 q 224 181 275 131 q 75 232 172 232 q 67 237 69 232 q 67 249 64 242 l 150 496 q 156 508 153 506 q 169 511 158 510 q 392 540 335 532 q 467 558 449 549 q 494 588 485 567 q 499 590 497 590 q 506 588 503 590 q 508 582 510 585 l 458 447 q 442 426 450 431 q 418 422 435 422 l 171 415 q 147 396 156 415 l 101 250 l 96 272 q 340 217 261 272 q 418 64 418 161 q 413 13 418 49 q 288 -192 392 -101 q -32 -382 183 -283 l -33 -382 z "},"6":{"ha":590,"x_min":43,"x_max":632,"o":"m 272 -18 q 103 40 163 -18 q 43 206 43 97 q 51 289 43 243 q 153 541 75 415 q 353 767 232 667 q 622 918 475 867 q 630 911 628 919 q 626 901 632 903 q 414 746 507 842 q 264 538 321 650 q 189 314 207 425 q 181 222 181 267 q 215 72 181 128 q 314 15 250 15 q 380 51 353 15 q 418 161 407 86 q 422 215 422 189 q 400 310 422 275 q 333 344 378 344 q 260 318 303 344 l 257 317 q 251 322 254 317 q 249 328 247 326 q 400 392 311 392 q 519 348 481 392 q 558 240 558 304 q 554 197 558 218 q 501 88 542 136 q 400 10 460 39 q 272 -18 340 -18 z "},"7":{"ha":544,"x_min":-28,"x_max":543,"o":"m -19 -382 q -25 -379 -22 -383 q -26 -372 -28 -375 l 457 421 q 453 431 463 431 q 203 424 275 431 q 106 400 132 418 q 58 335 79 382 q 53 332 58 332 q 44 334 49 332 q 42 339 40 336 l 133 576 q 138 579 133 579 q 147 576 142 579 q 150 572 151 574 q 144 553 144 556 q 157 540 144 543 q 201 536 169 536 l 533 536 q 541 530 539 536 q 540 518 543 524 l 135 -306 q 103 -339 122 -329 l -19 -382 z "},"8":{"ha":611,"x_min":28,"x_max":579,"o":"m 268 -18 q 139 8 193 -18 q 56 78 85 33 q 28 175 28 122 q 72 305 28 242 q 184 416 117 368 q 317 485 251 464 l 324 472 q 220 381 260 440 q 169 243 181 321 q 167 199 167 228 q 203 68 167 121 q 307 15 239 15 q 396 61 357 15 q 444 183 435 107 q 449 228 449 207 q 428 320 449 281 q 377 386 407 360 q 297 447 347 413 q 206 522 236 489 q 176 604 176 556 q 179 633 176 614 q 259 754 193 711 q 403 797 325 797 q 497 775 458 797 q 555 720 536 753 q 574 654 574 688 q 523 553 574 599 q 382 463 472 507 l 376 471 q 438 551 417 511 q 458 646 458 592 q 437 733 458 696 q 382 769 415 769 q 322 735 347 769 q 296 654 296 700 q 329 561 296 599 q 431 476 363 524 q 508 417 479 443 q 558 355 538 392 q 579 269 579 318 q 575 224 579 249 q 513 95 560 150 q 401 11 467 40 q 268 -18 336 -18 z "},"9":{"ha":592,"x_min":-39,"x_max":546,"o":"m -29 -382 q -37 -376 -35 -383 q -35 -365 -39 -368 q 178 -207 83 -307 q 330 7 272 -107 q 404 222 388 121 q 411 304 411 268 q 377 458 411 397 q 281 519 343 519 q 176 392 196 519 q 174 347 174 361 q 199 237 174 281 q 268 193 224 193 q 336 221 296 193 q 340 222 338 222 q 347 219 344 222 q 349 213 350 215 q 204 144 290 144 q 79 197 124 144 q 35 319 35 250 q 75 438 35 383 q 182 523 115 492 q 324 554 249 554 q 485 494 425 554 q 546 325 546 435 q 539 247 546 293 q 440 -3 518 122 q 240 -230 361 -129 q -29 -382 118 -331 z "},"\u0000":{"ha":0,"x_min":0,"x_max":0,"o":""},"\r":{"ha":325,"x_min":0,"x_max":0,"o":""}," ":{"ha":325,"x_min":0,"x_max":0,"o":""},"A":{"ha":840,"x_min":-53,"x_max":801,"o":"m -47 0 q -53 8 -53 0 q -47 17 -53 17 q 44 61 -8 17 q 143 189 97 106 l 531 881 q 542 885 533 885 q 550 883 546 885 q 556 879 554 882 l 707 117 q 722 53 715 71 q 744 26 728 35 q 796 17 761 17 q 801 8 801 17 q 796 0 801 0 q 726 3 774 0 q 642 6 674 6 q 561 3 611 6 q 494 0 517 0 q 489 8 489 0 q 494 17 489 17 q 554 29 536 17 q 572 72 572 42 q 567 117 572 94 l 449 701 l 526 808 l 181 179 q 144 78 144 114 q 171 31 144 46 q 251 17 197 17 q 256 8 257 17 q 250 0 256 0 q 179 3 232 0 q 81 6 115 6 q 13 3 51 6 q -47 0 -26 0 m 258 357 l 563 357 l 565 318 l 238 318 l 258 357 z "},"Á":{"ha":840,"x_min":-53,"x_max":801,"o":"m -47 0 q -53 8 -53 0 q -47 17 -53 17 q 44 61 -8 17 q 143 189 97 106 l 531 881 q 542 885 533 885 q 550 883 546 885 q 556 879 554 882 l 707 117 q 722 53 715 71 q 744 26 728 35 q 796 17 761 17 q 801 8 801 17 q 796 0 801 0 q 726 3 774 0 q 642 6 674 6 q 561 3 611 6 q 494 0 517 0 q 489 8 489 0 q 494 17 489 17 q 554 29 536 17 q 572 72 572 42 q 567 117 572 94 l 449 701 l 526 808 l 181 179 q 144 78 144 114 q 171 31 144 46 q 251 17 197 17 q 256 8 257 17 q 250 0 256 0 q 179 3 232 0 q 81 6 115 6 q 13 3 51 6 q -47 0 -26 0 m 258 357 l 563 357 l 565 318 l 238 318 l 258 357 m 400 942 q 392 948 394 942 q 394 957 390 954 q 515 1054 438 988 q 569 1101 533 1071 q 619 1095 576 1107 q 694 1068 661 1083 q 710 1050 726 1053 q 401 942 546 1008 l 400 942 z "},"Ă":{"ha":840,"x_min":-53,"x_max":801,"o":"m -47 0 q -53 8 -53 0 q -47 17 -53 17 q 44 61 -8 17 q 143 189 97 106 l 531 881 q 542 885 533 885 q 550 883 546 885 q 556 879 554 882 l 707 117 q 722 53 715 71 q 744 26 728 35 q 796 17 761 17 q 801 8 801 17 q 796 0 801 0 q 726 3 774 0 q 642 6 674 6 q 561 3 611 6 q 494 0 517 0 q 489 8 489 0 q 494 17 489 17 q 554 29 536 17 q 572 72 572 42 q 567 117 572 94 l 449 701 l 526 808 l 181 179 q 144 78 144 114 q 171 31 144 46 q 251 17 197 17 q 256 8 257 17 q 250 0 256 0 q 179 3 232 0 q 81 6 115 6 q 13 3 51 6 q -47 0 -26 0 m 258 357 l 563 357 l 565 318 l 238 318 l 258 357 m 563 936 q 465 971 504 936 q 426 1071 426 1006 q 460 1086 426 1079 q 521 1093 493 1093 q 542 1089 542 1093 q 571 1035 546 1054 q 629 1017 596 1017 q 681 1033 656 1017 q 724 1083 707 1050 q 732 1088 728 1088 q 743 1085 738 1088 q 747 1079 749 1082 q 665 974 717 1011 q 563 936 614 936 z "},"Ắ":{"ha":840,"x_min":-53,"x_max":813,"o":"m -47 0 q -53 8 -53 0 q -47 17 -53 17 q 44 61 -8 17 q 143 189 97 106 l 531 881 q 542 885 533 885 q 550 883 546 885 q 556 879 554 882 l 707 117 q 722 53 715 71 q 744 26 728 35 q 796 17 761 17 q 801 8 801 17 q 796 0 801 0 q 726 3 774 0 q 642 6 674 6 q 561 3 611 6 q 494 0 517 0 q 489 8 489 0 q 494 17 489 17 q 554 29 536 17 q 572 72 572 42 q 567 117 572 94 l 449 701 l 526 808 l 181 179 q 144 78 144 114 q 171 31 144 46 q 251 17 197 17 q 256 8 257 17 q 250 0 256 0 q 179 3 232 0 q 81 6 115 6 q 13 3 51 6 q -47 0 -26 0 m 258 357 l 563 357 l 565 318 l 238 318 l 258 357 m 549 951 q 451 986 490 951 q 413 1086 413 1021 q 446 1101 413 1094 q 507 1108 479 1108 q 528 1104 528 1108 q 557 1051 532 1069 q 615 1032 582 1032 q 667 1049 642 1032 q 710 1099 693 1065 q 718 1103 714 1103 q 729 1100 724 1103 q 733 1094 735 1097 q 651 989 703 1026 q 549 951 600 951 m 565 1075 q 559 1081 561 1075 q 560 1092 557 1088 q 665 1236 628 1178 q 676 1240 668 1240 q 732 1228 696 1240 q 790 1203 768 1217 q 799 1185 813 1190 q 568 1076 681 1144 l 565 1075 z "},"Ặ":{"ha":840,"x_min":-53,"x_max":801,"o":"m -47 0 q -53 8 -53 0 q -47 17 -53 17 q 44 61 -8 17 q 143 189 97 106 l 531 881 q 542 885 533 885 q 550 883 546 885 q 556 879 554 882 l 707 117 q 722 53 715 71 q 744 26 728 35 q 796 17 761 17 q 801 8 801 17 q 796 0 801 0 q 726 3 774 0 q 642 6 674 6 q 561 3 611 6 q 494 0 517 0 q 489 8 489 0 q 494 17 489 17 q 554 29 536 17 q 572 72 572 42 q 567 117 572 94 l 449 701 l 526 808 l 181 179 q 144 78 144 114 q 171 31 144 46 q 251 17 197 17 q 256 8 257 17 q 250 0 256 0 q 179 3 232 0 q 81 6 115 6 q 13 3 51 6 q -47 0 -26 0 m 258 357 l 563 357 l 565 318 l 238 318 l 258 357 m 346 -282 q 288 -261 310 -282 q 267 -201 267 -240 q 288 -147 267 -168 q 346 -126 310 -126 q 402 -147 382 -126 q 422 -201 422 -168 q 402 -261 422 -240 q 346 -282 382 -282 m 563 936 q 465 971 504 936 q 426 1071 426 1006 q 460 1086 426 1079 q 521 1093 493 1093 q 542 1089 542 1093 q 571 1035 546 1054 q 629 1017 596 1017 q 681 1033 656 1017 q 724 1083 707 1050 q 732 1088 728 1088 q 743 1085 738 1088 q 747 1079 749 1082 q 665 974 717 1011 q 563 936 614 936 z "},"Ằ":{"ha":840,"x_min":-53,"x_max":801,"o":"m -47 0 q -53 8 -53 0 q -47 17 -53 17 q 44 61 -8 17 q 143 189 97 106 l 531 881 q 542 885 533 885 q 550 883 546 885 q 556 879 554 882 l 707 117 q 722 53 715 71 q 744 26 728 35 q 796 17 761 17 q 801 8 801 17 q 796 0 801 0 q 726 3 774 0 q 642 6 674 6 q 561 3 611 6 q 494 0 517 0 q 489 8 489 0 q 494 17 489 17 q 554 29 536 17 q 572 72 572 42 q 567 117 572 94 l 449 701 l 526 808 l 181 179 q 144 78 144 114 q 171 31 144 46 q 251 17 197 17 q 256 8 257 17 q 250 0 256 0 q 179 3 232 0 q 81 6 115 6 q 13 3 51 6 q -47 0 -26 0 m 258 357 l 563 357 l 565 318 l 238 318 l 258 357 m 549 951 q 451 986 490 951 q 413 1086 413 1021 q 446 1101 413 1094 q 507 1108 479 1108 q 528 1104 528 1108 q 557 1051 532 1069 q 615 1032 582 1032 q 667 1049 642 1032 q 710 1099 693 1065 q 718 1103 714 1103 q 729 1100 724 1103 q 733 1094 735 1097 q 651 989 703 1026 q 549 951 600 951 m 633 1076 q 545 1137 586 1113 q 450 1185 504 1161 q 464 1203 438 1190 q 530 1228 490 1217 q 589 1240 569 1240 q 600 1236 599 1240 q 651 1092 619 1163 l 651 1090 q 645 1080 651 1085 q 633 1076 639 1075 z "},"Ẳ":{"ha":840,"x_min":-53,"x_max":801,"o":"m -47 0 q -53 8 -53 0 q -47 17 -53 17 q 44 61 -8 17 q 143 189 97 106 l 531 881 q 542 885 533 885 q 550 883 546 885 q 556 879 554 882 l 707 117 q 722 53 715 71 q 744 26 728 35 q 796 17 761 17 q 801 8 801 17 q 796 0 801 0 q 726 3 774 0 q 642 6 674 6 q 561 3 611 6 q 494 0 517 0 q 489 8 489 0 q 494 17 489 17 q 554 29 536 17 q 572 72 572 42 q 567 117 572 94 l 449 701 l 526 808 l 181 179 q 144 78 144 114 q 171 31 144 46 q 251 17 197 17 q 256 8 257 17 q 250 0 256 0 q 179 3 232 0 q 81 6 115 6 q 13 3 51 6 q -47 0 -26 0 m 258 357 l 563 357 l 565 318 l 238 318 l 258 357 m 549 951 q 451 986 490 951 q 413 1086 413 1021 q 446 1101 413 1094 q 507 1108 479 1108 q 528 1104 528 1108 q 557 1051 532 1069 q 615 1032 582 1032 q 667 1049 642 1032 q 710 1099 693 1065 q 718 1103 714 1103 q 729 1100 724 1103 q 733 1094 735 1097 q 651 989 703 1026 q 549 951 600 951 m 574 1067 q 578 1099 572 1085 q 597 1139 583 1114 q 613 1168 606 1153 q 619 1197 619 1183 q 609 1222 619 1214 q 583 1231 599 1231 q 558 1226 569 1231 l 556 1225 q 549 1230 551 1225 q 550 1238 547 1235 q 640 1263 596 1263 q 690 1248 671 1263 q 708 1211 708 1233 q 692 1171 708 1189 q 644 1129 675 1153 q 604 1096 618 1110 q 589 1067 590 1082 q 581 1063 588 1064 q 574 1067 574 1063 z "},"Ẵ":{"ha":840,"x_min":-53,"x_max":801,"o":"m -47 0 q -53 8 -53 0 q -47 17 -53 17 q 44 61 -8 17 q 143 189 97 106 l 531 881 q 542 885 533 885 q 550 883 546 885 q 556 879 554 882 l 707 117 q 722 53 715 71 q 744 26 728 35 q 796 17 761 17 q 801 8 801 17 q 796 0 801 0 q 726 3 774 0 q 642 6 674 6 q 561 3 611 6 q 494 0 517 0 q 489 8 489 0 q 494 17 489 17 q 554 29 536 17 q 572 72 572 42 q 567 117 572 94 l 449 701 l 526 808 l 181 179 q 144 78 144 114 q 171 31 144 46 q 251 17 197 17 q 256 8 257 17 q 250 0 256 0 q 179 3 232 0 q 81 6 115 6 q 13 3 51 6 q -47 0 -26 0 m 258 357 l 563 357 l 565 318 l 238 318 l 258 357 m 549 951 q 451 986 490 951 q 413 1086 413 1021 q 446 1101 413 1094 q 507 1108 479 1108 q 528 1104 528 1108 q 557 1051 532 1069 q 615 1032 582 1032 q 667 1049 642 1032 q 710 1099 693 1065 q 718 1103 714 1103 q 729 1100 724 1103 q 733 1094 735 1097 q 651 989 703 1026 q 549 951 600 951 m 403 1119 q 400 1118 403 1118 q 394 1122 397 1118 q 393 1129 392 1126 q 457 1209 424 1176 q 532 1242 490 1242 q 568 1235 546 1242 q 597 1228 590 1229 q 699 1207 665 1207 q 748 1215 729 1207 q 788 1244 767 1224 l 789 1244 q 796 1241 793 1244 q 797 1235 799 1238 q 728 1144 756 1167 q 665 1122 701 1122 q 588 1139 643 1122 q 551 1149 582 1140 q 492 1157 519 1157 q 445 1151 460 1157 q 419 1134 431 1144 q 403 1119 407 1124 z "},"Ǎ":{"ha":840,"x_min":-53,"x_max":801,"o":"m -47 0 q -53 8 -53 0 q -47 17 -53 17 q 44 61 -8 17 q 143 189 97 106 l 531 881 q 542 885 533 885 q 550 883 546 885 q 556 879 554 882 l 707 117 q 722 53 715 71 q 744 26 728 35 q 796 17 761 17 q 801 8 801 17 q 796 0 801 0 q 726 3 774 0 q 642 6 674 6 q 561 3 611 6 q 494 0 517 0 q 489 8 489 0 q 494 17 489 17 q 554 29 536 17 q 572 72 572 42 q 567 117 572 94 l 449 701 l 526 808 l 181 179 q 144 78 144 114 q 171 31 144 46 q 251 17 197 17 q 256 8 257 17 q 250 0 256 0 q 179 3 232 0 q 81 6 115 6 q 13 3 51 6 q -47 0 -26 0 m 258 357 l 563 357 l 565 318 l 238 318 l 258 357 m 418 1114 q 422 1120 418 1117 q 429 1122 426 1124 l 560 1068 l 714 1122 l 715 1122 q 722 1119 719 1122 q 722 1113 725 1115 l 560 951 q 546 946 554 946 q 535 951 539 946 l 418 1113 l 418 1114 z "},"Â":{"ha":840,"x_min":-53,"x_max":801,"o":"m -47 0 q -53 8 -53 0 q -47 17 -53 17 q 44 61 -8 17 q 143 189 97 106 l 531 881 q 542 885 533 885 q 550 883 546 885 q 556 879 554 882 l 707 117 q 722 53 715 71 q 744 26 728 35 q 796 17 761 17 q 801 8 801 17 q 796 0 801 0 q 726 3 774 0 q 642 6 674 6 q 561 3 611 6 q 494 0 517 0 q 489 8 489 0 q 494 17 489 17 q 554 29 536 17 q 572 72 572 42 q 567 117 572 94 l 449 701 l 526 808 l 181 179 q 144 78 144 114 q 171 31 144 46 q 251 17 197 17 q 256 8 257 17 q 250 0 256 0 q 179 3 232 0 q 81 6 115 6 q 13 3 51 6 q -47 0 -26 0 m 258 357 l 563 357 l 565 318 l 238 318 l 258 357 m 410 944 q 403 948 406 944 q 403 954 400 951 l 564 1114 q 576 1121 571 1121 q 589 1114 585 1121 l 704 954 l 706 951 q 701 946 706 949 q 694 944 697 943 l 564 997 l 411 944 l 410 944 z "},"Ấ":{"ha":840,"x_min":-53,"x_max":906,"o":"m -47 0 q -53 8 -53 0 q -47 17 -53 17 q 44 61 -8 17 q 143 189 97 106 l 531 881 q 542 885 533 885 q 550 883 546 885 q 556 879 554 882 l 707 117 q 722 53 715 71 q 744 26 728 35 q 796 17 761 17 q 801 8 801 17 q 796 0 801 0 q 726 3 774 0 q 642 6 674 6 q 561 3 611 6 q 494 0 517 0 q 489 8 489 0 q 494 17 489 17 q 554 29 536 17 q 572 72 572 42 q 567 117 572 94 l 449 701 l 526 808 l 181 179 q 144 78 144 114 q 171 31 144 46 q 251 17 197 17 q 256 8 257 17 q 250 0 256 0 q 179 3 232 0 q 81 6 115 6 q 13 3 51 6 q -47 0 -26 0 m 258 357 l 563 357 l 565 318 l 238 318 l 258 357 m 408 931 q 401 934 404 931 q 401 940 399 938 l 563 1100 q 575 1107 569 1107 q 588 1100 583 1107 l 703 940 l 704 938 q 700 932 704 935 q 693 931 696 929 l 563 983 l 410 931 l 408 931 m 658 1018 q 652 1024 654 1018 q 653 1035 650 1031 q 758 1179 721 1121 q 769 1183 761 1183 q 825 1172 789 1183 q 883 1147 861 1160 q 892 1128 906 1133 q 661 1019 774 1088 l 658 1018 z "},"Ậ":{"ha":840,"x_min":-53,"x_max":801,"o":"m -47 0 q -53 8 -53 0 q -47 17 -53 17 q 44 61 -8 17 q 143 189 97 106 l 531 881 q 542 885 533 885 q 550 883 546 885 q 556 879 554 882 l 707 117 q 722 53 715 71 q 744 26 728 35 q 796 17 761 17 q 801 8 801 17 q 796 0 801 0 q 726 3 774 0 q 642 6 674 6 q 561 3 611 6 q 494 0 517 0 q 489 8 489 0 q 494 17 489 17 q 554 29 536 17 q 572 72 572 42 q 567 117 572 94 l 449 701 l 526 808 l 181 179 q 144 78 144 114 q 171 31 144 46 q 251 17 197 17 q 256 8 257 17 q 250 0 256 0 q 179 3 232 0 q 81 6 115 6 q 13 3 51 6 q -47 0 -26 0 m 258 357 l 563 357 l 565 318 l 238 318 l 258 357 m 346 -282 q 288 -261 310 -282 q 267 -201 267 -240 q 288 -147 267 -168 q 346 -126 310 -126 q 402 -147 382 -126 q 422 -201 422 -168 q 402 -261 422 -240 q 346 -282 382 -282 m 410 944 q 403 948 406 944 q 403 954 400 951 l 564 1114 q 576 1121 571 1121 q 589 1114 585 1121 l 704 954 l 706 951 q 701 946 706 949 q 694 944 697 943 l 564 997 l 411 944 l 410 944 z "},"Ầ":{"ha":840,"x_min":-53,"x_max":801,"o":"m -47 0 q -53 8 -53 0 q -47 17 -53 17 q 44 61 -8 17 q 143 189 97 106 l 531 881 q 542 885 533 885 q 550 883 546 885 q 556 879 554 882 l 707 117 q 722 53 715 71 q 744 26 728 35 q 796 17 761 17 q 801 8 801 17 q 796 0 801 0 q 726 3 774 0 q 642 6 674 6 q 561 3 611 6 q 494 0 517 0 q 489 8 489 0 q 494 17 489 17 q 554 29 536 17 q 572 72 572 42 q 567 117 572 94 l 449 701 l 526 808 l 181 179 q 144 78 144 114 q 171 31 144 46 q 251 17 197 17 q 256 8 257 17 q 250 0 256 0 q 179 3 232 0 q 81 6 115 6 q 13 3 51 6 q -47 0 -26 0 m 258 357 l 563 357 l 565 318 l 238 318 l 258 357 m 407 917 q 400 920 403 917 q 400 926 397 924 l 561 1086 q 574 1093 568 1093 q 586 1086 582 1093 l 701 926 l 703 924 q 699 918 703 921 q 692 917 694 915 l 561 969 l 408 917 l 407 917 m 782 993 q 694 1053 735 1029 q 599 1101 653 1078 q 613 1120 586 1107 q 678 1145 639 1133 q 738 1157 718 1157 q 749 1153 747 1157 q 800 1008 768 1079 l 800 1007 q 794 997 800 1001 q 782 993 788 992 z "},"Ẩ":{"ha":840,"x_min":-53,"x_max":801,"o":"m -47 0 q -53 8 -53 0 q -47 17 -53 17 q 44 61 -8 17 q 143 189 97 106 l 531 881 q 542 885 533 885 q 550 883 546 885 q 556 879 554 882 l 707 117 q 722 53 715 71 q 744 26 728 35 q 796 17 761 17 q 801 8 801 17 q 796 0 801 0 q 726 3 774 0 q 642 6 674 6 q 561 3 611 6 q 494 0 517 0 q 489 8 489 0 q 494 17 489 17 q 554 29 536 17 q 572 72 572 42 q 567 117 572 94 l 449 701 l 526 808 l 181 179 q 144 78 144 114 q 171 31 144 46 q 251 17 197 17 q 256 8 257 17 q 250 0 256 0 q 179 3 232 0 q 81 6 115 6 q 13 3 51 6 q -47 0 -26 0 m 258 357 l 563 357 l 565 318 l 238 318 l 258 357 m 406 917 q 399 920 401 917 q 399 926 396 924 l 560 1086 q 572 1093 567 1093 q 585 1086 581 1093 l 700 926 l 701 924 q 697 918 701 921 q 690 917 693 915 l 560 969 l 407 917 l 406 917 m 664 996 q 668 1028 663 1014 q 688 1068 674 1043 q 703 1097 696 1082 q 710 1126 710 1113 q 699 1151 710 1143 q 674 1160 689 1160 q 649 1156 660 1160 l 646 1154 q 640 1159 642 1154 q 640 1167 638 1164 q 731 1192 686 1192 q 780 1177 761 1192 q 799 1140 799 1163 q 782 1100 799 1118 q 735 1058 765 1082 q 694 1025 708 1039 q 679 996 681 1011 q 671 992 678 993 q 664 996 664 992 z "},"Ẫ":{"ha":840,"x_min":-53,"x_max":801,"o":"m -47 0 q -53 8 -53 0 q -47 17 -53 17 q 44 61 -8 17 q 143 189 97 106 l 531 881 q 542 885 533 885 q 550 883 546 885 q 556 879 554 882 l 707 117 q 722 53 715 71 q 744 26 728 35 q 796 17 761 17 q 801 8 801 17 q 796 0 801 0 q 726 3 774 0 q 642 6 674 6 q 561 3 611 6 q 494 0 517 0 q 489 8 489 0 q 494 17 489 17 q 554 29 536 17 q 572 72 572 42 q 567 117 572 94 l 449 701 l 526 808 l 181 179 q 144 78 144 114 q 171 31 144 46 q 251 17 197 17 q 256 8 257 17 q 250 0 256 0 q 179 3 232 0 q 81 6 115 6 q 13 3 51 6 q -47 0 -26 0 m 258 357 l 563 357 l 565 318 l 238 318 l 258 357 m 399 917 q 392 920 394 917 q 392 926 389 924 l 553 1086 q 565 1093 560 1093 q 578 1086 574 1093 l 693 926 l 694 924 q 690 918 694 921 q 683 917 686 915 l 553 969 l 400 917 l 399 917 m 392 1090 q 385 1094 389 1090 q 383 1100 382 1097 q 447 1180 414 1147 q 521 1213 481 1213 q 586 1199 536 1213 q 639 1184 611 1190 q 689 1178 667 1178 q 737 1186 718 1178 q 776 1215 756 1194 q 779 1217 776 1217 q 785 1213 782 1217 q 786 1206 788 1208 q 717 1117 744 1139 q 654 1094 690 1094 q 576 1110 628 1094 q 528 1122 553 1117 q 481 1128 503 1128 q 433 1121 447 1128 q 393 1090 419 1114 l 392 1090 z "},"Ȁ":{"ha":840,"x_min":-53,"x_max":801,"o":"m -47 0 q -53 8 -53 0 q -47 17 -53 17 q 44 61 -8 17 q 143 189 97 106 l 531 881 q 542 885 533 885 q 550 883 546 885 q 556 879 554 882 l 707 117 q 722 53 715 71 q 744 26 728 35 q 796 17 761 17 q 801 8 801 17 q 796 0 801 0 q 726 3 774 0 q 642 6 674 6 q 561 3 611 6 q 494 0 517 0 q 489 8 489 0 q 494 17 489 17 q 554 29 536 17 q 572 72 572 42 q 567 117 572 94 l 449 701 l 526 808 l 181 179 q 144 78 144 114 q 171 31 144 46 q 251 17 197 17 q 256 8 257 17 q 250 0 256 0 q 179 3 232 0 q 81 6 115 6 q 13 3 51 6 q -47 0 -26 0 m 258 357 l 563 357 l 565 318 l 238 318 l 258 357 m 724 929 q 665 975 697 953 q 601 1017 632 997 l 526 1067 q 533 1086 514 1075 q 583 1106 551 1097 q 635 1114 614 1114 q 651 1110 650 1114 q 706 1001 665 1076 l 738 942 l 739 938 q 733 929 739 932 q 724 929 726 926 m 529 929 q 464 982 496 960 q 374 1040 432 1004 l 331 1067 q 338 1086 318 1075 q 390 1106 357 1097 q 442 1114 422 1114 q 457 1110 456 1114 q 507 1008 472 1074 l 542 942 l 543 938 q 538 929 543 932 q 529 929 532 926 z "},"Ä":{"ha":840,"x_min":-53,"x_max":801,"o":"m -47 0 q -53 8 -53 0 q -47 17 -53 17 q 44 61 -8 17 q 143 189 97 106 l 531 881 q 542 885 533 885 q 550 883 546 885 q 556 879 554 882 l 707 117 q 722 53 715 71 q 744 26 728 35 q 796 17 761 17 q 801 8 801 17 q 796 0 801 0 q 726 3 774 0 q 642 6 674 6 q 561 3 611 6 q 494 0 517 0 q 489 8 489 0 q 494 17 489 17 q 554 29 536 17 q 572 72 572 42 q 567 117 572 94 l 449 701 l 526 808 l 181 179 q 144 78 144 114 q 171 31 144 46 q 251 17 197 17 q 256 8 257 17 q 250 0 256 0 q 179 3 232 0 q 81 6 115 6 q 13 3 51 6 q -47 0 -26 0 m 258 357 l 563 357 l 565 318 l 238 318 l 258 357 m 450 976 q 394 997 414 976 q 374 1053 374 1017 q 394 1106 374 1086 q 450 1125 415 1125 q 503 1106 485 1125 q 522 1053 522 1086 q 503 997 522 1017 q 450 976 485 976 m 692 976 q 636 997 656 976 q 617 1053 617 1017 q 637 1105 617 1086 q 692 1124 657 1124 q 745 1105 726 1124 q 764 1053 764 1086 q 745 997 764 1017 q 692 976 726 976 z "},"Ạ":{"ha":840,"x_min":-53,"x_max":801,"o":"m -47 0 q -53 8 -53 0 q -47 17 -53 17 q 44 61 -8 17 q 143 189 97 106 l 531 881 q 542 885 533 885 q 550 883 546 885 q 556 879 554 882 l 707 117 q 722 53 715 71 q 744 26 728 35 q 796 17 761 17 q 801 8 801 17 q 796 0 801 0 q 726 3 774 0 q 642 6 674 6 q 561 3 611 6 q 494 0 517 0 q 489 8 489 0 q 494 17 489 17 q 554 29 536 17 q 572 72 572 42 q 567 117 572 94 l 449 701 l 526 808 l 181 179 q 144 78 144 114 q 171 31 144 46 q 251 17 197 17 q 256 8 257 17 q 250 0 256 0 q 179 3 232 0 q 81 6 115 6 q 13 3 51 6 q -47 0 -26 0 m 258 357 l 563 357 l 565 318 l 238 318 l 258 357 m 346 -282 q 288 -261 310 -282 q 267 -201 267 -240 q 288 -147 267 -168 q 346 -126 310 -126 q 402 -147 382 -126 q 422 -201 422 -168 q 402 -261 422 -240 q 346 -282 382 -282 z "},"À":{"ha":840,"x_min":-53,"x_max":801,"o":"m -47 0 q -53 8 -53 0 q -47 17 -53 17 q 44 61 -8 17 q 143 189 97 106 l 531 881 q 542 885 533 885 q 550 883 546 885 q 556 879 554 882 l 707 117 q 722 53 715 71 q 744 26 728 35 q 796 17 761 17 q 801 8 801 17 q 796 0 801 0 q 726 3 774 0 q 642 6 674 6 q 561 3 611 6 q 494 0 517 0 q 489 8 489 0 q 494 17 489 17 q 554 29 536 17 q 572 72 572 42 q 567 117 572 94 l 449 701 l 526 808 l 181 179 q 144 78 144 114 q 171 31 144 46 q 251 17 197 17 q 256 8 257 17 q 250 0 256 0 q 179 3 232 0 q 81 6 115 6 q 13 3 51 6 q -47 0 -26 0 m 258 357 l 563 357 l 565 318 l 238 318 l 258 357 m 675 943 q 367 1050 519 1013 q 383 1069 350 1053 q 458 1097 415 1085 q 507 1101 500 1108 l 572 1046 q 681 957 633 993 q 685 951 685 956 q 682 944 685 947 q 675 943 679 942 z "},"Ả":{"ha":840,"x_min":-53,"x_max":801,"o":"m -47 0 q -53 8 -53 0 q -47 17 -53 17 q 44 61 -8 17 q 143 189 97 106 l 531 881 q 542 885 533 885 q 550 883 546 885 q 556 879 554 882 l 707 117 q 722 53 715 71 q 744 26 728 35 q 796 17 761 17 q 801 8 801 17 q 796 0 801 0 q 726 3 774 0 q 642 6 674 6 q 561 3 611 6 q 494 0 517 0 q 489 8 489 0 q 494 17 489 17 q 554 29 536 17 q 572 72 572 42 q 567 117 572 94 l 449 701 l 526 808 l 181 179 q 144 78 144 114 q 171 31 144 46 q 251 17 197 17 q 256 8 257 17 q 250 0 256 0 q 179 3 232 0 q 81 6 115 6 q 13 3 51 6 q -47 0 -26 0 m 258 357 l 563 357 l 565 318 l 238 318 l 258 357 m 549 907 q 541 903 549 904 q 532 907 533 903 q 529 938 529 929 q 534 977 529 960 q 549 1022 539 994 q 563 1063 558 1046 q 568 1099 568 1079 q 529 1147 568 1147 q 479 1133 510 1147 l 476 1133 q 469 1138 472 1133 q 469 1146 465 1142 q 583 1185 519 1185 q 654 1165 628 1185 q 681 1111 681 1146 q 663 1058 681 1082 q 608 997 644 1033 q 563 947 578 967 q 549 907 549 928 z "},"Ȃ":{"ha":840,"x_min":-53,"x_max":801,"o":"m -47 0 q -53 8 -53 0 q -47 17 -53 17 q 44 61 -8 17 q 143 189 97 106 l 531 881 q 542 885 533 885 q 550 883 546 885 q 556 879 554 882 l 707 117 q 722 53 715 71 q 744 26 728 35 q 796 17 761 17 q 801 8 801 17 q 796 0 801 0 q 726 3 774 0 q 642 6 674 6 q 561 3 611 6 q 494 0 517 0 q 489 8 489 0 q 494 17 489 17 q 554 29 536 17 q 572 72 572 42 q 567 117 572 94 l 449 701 l 526 808 l 181 179 q 144 78 144 114 q 171 31 144 46 q 251 17 197 17 q 256 8 257 17 q 250 0 256 0 q 179 3 232 0 q 81 6 115 6 q 13 3 51 6 q -47 0 -26 0 m 258 357 l 563 357 l 565 318 l 238 318 l 258 357 m 618 956 q 589 1009 614 990 q 531 1028 564 1028 q 478 1011 504 1028 q 436 961 453 994 q 428 957 432 957 q 417 960 422 957 q 413 965 411 963 q 494 1071 443 1033 q 597 1108 546 1108 q 694 1074 656 1108 q 733 974 733 1039 q 700 958 733 965 q 639 951 667 951 q 618 956 618 951 z "},"Ā":{"ha":840,"x_min":-53,"x_max":801,"o":"m -47 0 q -53 8 -53 0 q -47 17 -53 17 q 44 61 -8 17 q 143 189 97 106 l 531 881 q 542 885 533 885 q 550 883 546 885 q 556 879 554 882 l 707 117 q 722 53 715 71 q 744 26 728 35 q 796 17 761 17 q 801 8 801 17 q 796 0 801 0 q 726 3 774 0 q 642 6 674 6 q 561 3 611 6 q 494 0 517 0 q 489 8 489 0 q 494 17 489 17 q 554 29 536 17 q 572 72 572 42 q 567 117 572 94 l 449 701 l 526 808 l 181 179 q 144 78 144 114 q 171 31 144 46 q 251 17 197 17 q 256 8 257 17 q 250 0 256 0 q 179 3 232 0 q 81 6 115 6 q 13 3 51 6 q -47 0 -26 0 m 258 357 l 563 357 l 565 318 l 238 318 l 258 357 m 361 990 q 351 998 356 990 q 347 1017 347 1006 q 351 1034 347 1026 q 361 1042 356 1042 l 710 1042 q 721 1034 717 1042 q 725 1017 725 1026 q 721 998 725 1006 q 710 990 717 990 l 361 990 z "},"Ą":{"ha":840,"x_min":-53,"x_max":801,"o":"m 521 -382 q 425 -353 465 -382 q 385 -264 385 -324 q 409 -174 385 -212 q 479 -87 433 -135 q 549 -3 526 -37 q 571 79 571 32 q 567 117 571 96 l 449 701 l 526 808 l 181 179 q 144 78 144 114 q 171 31 144 46 q 251 17 197 17 q 256 8 257 17 q 250 0 256 0 q 179 3 232 0 q 81 6 115 6 q 13 3 51 6 q -47 0 -26 0 q -53 8 -53 0 q -47 17 -53 17 q 44 61 -8 17 q 143 189 97 106 l 531 881 q 542 885 533 885 q 550 883 546 885 q 556 879 554 882 l 707 117 q 737 37 718 57 q 796 17 756 17 q 801 8 801 17 q 796 0 801 0 l 664 1 q 585 -28 622 1 q 526 -106 549 -57 q 504 -210 504 -154 q 529 -290 504 -261 q 603 -318 554 -318 q 638 -312 625 -318 q 667 -293 651 -306 l 669 -292 q 674 -297 672 -292 q 672 -304 675 -301 q 597 -363 632 -344 q 521 -382 561 -382 m 258 357 l 563 357 l 565 318 l 238 318 l 258 357 z "},"Å":{"ha":840,"x_min":-53,"x_max":801,"o":"m -47 0 q -53 8 -53 0 q -47 17 -53 17 q 44 61 -8 17 q 143 189 97 106 l 531 881 q 542 885 533 885 q 550 883 546 885 q 556 879 554 882 l 707 117 q 722 53 715 71 q 744 26 728 35 q 796 17 761 17 q 801 8 801 17 q 796 0 801 0 q 726 3 774 0 q 642 6 674 6 q 561 3 611 6 q 494 0 517 0 q 489 8 489 0 q 494 17 489 17 q 554 29 536 17 q 572 72 572 42 q 567 117 572 94 l 449 701 l 526 808 l 181 179 q 144 78 144 114 q 171 31 144 46 q 251 17 197 17 q 256 8 257 17 q 250 0 256 0 q 179 3 232 0 q 81 6 115 6 q 13 3 51 6 q -47 0 -26 0 m 258 357 l 563 357 l 565 318 l 238 318 l 258 357 m 544 917 q 436 949 476 917 q 396 1028 396 982 q 446 1106 396 1078 q 557 1135 496 1135 q 662 1103 618 1135 q 706 1024 706 1071 q 656 946 706 975 q 544 917 607 917 m 565 936 q 594 951 585 936 q 603 1000 603 967 q 581 1081 603 1046 q 529 1115 560 1115 q 497 1054 497 1115 q 516 973 497 1010 q 565 936 535 936 z "},"Ǻ":{"ha":840,"x_min":-53,"x_max":801,"o":"m -47 0 q -53 8 -53 0 q -47 17 -53 17 q 44 61 -8 17 q 143 189 97 106 l 531 881 q 542 885 533 885 q 550 883 546 885 q 556 879 554 882 l 707 117 q 722 53 715 71 q 744 26 728 35 q 796 17 761 17 q 801 8 801 17 q 796 0 801 0 q 726 3 774 0 q 642 6 674 6 q 561 3 611 6 q 494 0 517 0 q 489 8 489 0 q 494 17 489 17 q 554 29 536 17 q 572 72 572 42 q 567 117 572 94 l 449 701 l 526 808 l 181 179 q 144 78 144 114 q 171 31 144 46 q 251 17 197 17 q 256 8 257 17 q 250 0 256 0 q 179 3 232 0 q 81 6 115 6 q 13 3 51 6 q -47 0 -26 0 m 258 357 l 563 357 l 565 318 l 238 318 l 258 357 m 558 938 q 464 965 500 938 q 428 1032 428 993 q 472 1099 428 1074 q 572 1124 517 1124 q 676 1096 632 1124 q 719 1029 719 1068 q 671 963 719 988 q 558 938 622 938 m 581 957 q 617 1004 617 957 q 598 1075 617 1046 q 549 1104 579 1104 q 522 1092 532 1104 q 511 1060 511 1081 q 530 989 511 1021 q 581 957 549 957 m 472 1143 q 465 1149 467 1143 q 468 1157 463 1156 l 650 1253 q 688 1240 657 1257 q 743 1204 718 1224 q 758 1185 768 1185 q 475 1143 638 1171 l 472 1143 z "},"Ã":{"ha":840,"x_min":-53,"x_max":801,"o":"m -47 0 q -53 8 -53 0 q -47 17 -53 17 q 44 61 -8 17 q 143 189 97 106 l 531 881 q 542 885 533 885 q 550 883 546 885 q 556 879 554 882 l 707 117 q 722 53 715 71 q 744 26 728 35 q 796 17 761 17 q 801 8 801 17 q 796 0 801 0 q 726 3 774 0 q 642 6 674 6 q 561 3 611 6 q 494 0 517 0 q 489 8 489 0 q 494 17 489 17 q 554 29 536 17 q 572 72 572 42 q 567 117 572 94 l 449 701 l 526 808 l 181 179 q 144 78 144 114 q 171 31 144 46 q 251 17 197 17 q 256 8 257 17 q 250 0 256 0 q 179 3 232 0 q 81 6 115 6 q 13 3 51 6 q -47 0 -26 0 m 258 357 l 563 357 l 565 318 l 238 318 l 258 357 m 374 985 q 367 988 371 985 q 365 994 364 992 q 429 1074 396 1042 q 503 1107 463 1107 q 568 1093 518 1107 q 621 1078 593 1085 q 671 1072 649 1072 q 719 1081 700 1072 q 758 1110 738 1089 q 761 1111 758 1111 q 767 1107 764 1111 q 768 1100 769 1103 q 699 1011 726 1033 q 636 989 672 989 q 558 1004 610 989 q 510 1017 535 1011 q 463 1022 485 1022 q 415 1015 429 1022 q 375 985 401 1008 l 374 985 z "},"Æ":{"ha":1072,"x_min":-85,"x_max":1067,"o":"m -78 0 q -85 8 -85 0 q -78 17 -85 17 q 33 53 -21 17 q 153 188 86 89 l 571 801 q 589 836 589 829 q 569 849 589 847 q 489 851 550 851 q 483 860 483 851 q 489 868 483 868 l 1056 868 q 1064 856 1067 868 l 1035 669 q 1029 665 1035 665 q 1022 667 1025 665 q 1018 671 1018 669 q 963 801 1011 753 q 839 849 915 849 l 814 849 q 760 826 779 849 q 735 754 742 803 l 654 118 q 651 76 651 101 q 666 35 651 46 q 721 25 681 25 l 739 25 q 879 78 811 25 q 993 221 947 131 q 1002 223 994 225 q 1008 218 1010 221 q 961 21 989 160 q 954 4 958 8 q 939 0 950 0 l 421 0 q 415 8 415 0 q 421 17 415 17 q 474 24 457 17 q 501 51 492 32 q 515 113 510 71 l 611 851 l 649 836 l 189 171 q 161 94 161 131 q 189 38 161 60 q 267 17 217 17 q 272 8 272 17 q 267 0 271 0 l 172 3 q 56 6 92 6 q -18 3 24 6 q -78 0 -54 0 m 392 471 l 649 471 l 651 432 l 365 432 l 392 471 m 938 308 q 928 303 936 303 q 921 310 919 304 q 924 338 924 329 q 894 408 924 383 q 813 432 865 432 l 594 432 l 600 471 l 822 471 q 919 495 885 471 q 967 576 954 519 q 976 583 968 583 q 983 575 985 582 q 960 451 972 510 q 951 408 954 426 q 947 376 949 389 l 938 308 z "},"Ǽ":{"ha":1072,"x_min":-85,"x_max":1067,"o":"m -78 0 q -85 8 -85 0 q -78 17 -85 17 q 33 53 -21 17 q 153 188 86 89 l 571 801 q 589 836 589 829 q 569 849 589 847 q 489 851 550 851 q 483 860 483 851 q 489 868 483 868 l 1056 868 q 1064 856 1067 868 l 1035 669 q 1029 665 1035 665 q 1022 667 1025 665 q 1018 671 1018 669 q 963 801 1011 753 q 839 849 915 849 l 814 849 q 760 826 779 849 q 735 754 742 803 l 654 118 q 651 76 651 101 q 666 35 651 46 q 721 25 681 25 l 739 25 q 879 78 811 25 q 993 221 947 131 q 1002 223 994 225 q 1008 218 1010 221 q 961 21 989 160 q 954 4 958 8 q 939 0 950 0 l 421 0 q 415 8 415 0 q 421 17 415 17 q 474 24 457 17 q 501 51 492 32 q 515 113 510 71 l 611 851 l 649 836 l 189 171 q 161 94 161 131 q 189 38 161 60 q 267 17 217 17 q 272 8 272 17 q 267 0 271 0 l 172 3 q 56 6 92 6 q -18 3 24 6 q -78 0 -54 0 m 392 471 l 649 471 l 651 432 l 365 432 l 392 471 m 938 308 q 928 303 936 303 q 921 310 919 304 q 924 338 924 329 q 894 408 924 383 q 813 432 865 432 l 594 432 l 600 471 l 822 471 q 919 495 885 471 q 967 576 954 519 q 976 583 968 583 q 983 575 985 582 q 960 451 972 510 q 951 408 954 426 q 947 376 949 389 l 938 308 m 707 942 q 700 948 701 942 q 703 957 699 954 q 819 1053 744 988 q 876 1101 874 1099 q 927 1097 885 1108 q 1002 1069 969 1085 q 1018 1050 1035 1053 q 860 1003 932 1029 q 710 943 789 978 l 707 942 z "},"Ǣ":{"ha":1072,"x_min":-85,"x_max":1067,"o":"m -78 0 q -85 8 -85 0 q -78 17 -85 17 q 33 53 -21 17 q 153 188 86 89 l 571 801 q 589 836 589 829 q 569 849 589 847 q 489 851 550 851 q 483 860 483 851 q 489 868 483 868 l 1056 868 q 1064 856 1067 868 l 1035 669 q 1029 665 1035 665 q 1022 667 1025 665 q 1018 671 1018 669 q 963 801 1011 753 q 839 849 915 849 l 814 849 q 760 826 779 849 q 735 754 742 803 l 654 118 q 651 76 651 101 q 666 35 651 46 q 721 25 681 25 l 739 25 q 879 78 811 25 q 993 221 947 131 q 1002 223 994 225 q 1008 218 1010 221 q 961 21 989 160 q 954 4 958 8 q 939 0 950 0 l 421 0 q 415 8 415 0 q 421 17 415 17 q 474 24 457 17 q 501 51 492 32 q 515 113 510 71 l 611 851 l 649 836 l 189 171 q 161 94 161 131 q 189 38 161 60 q 267 17 217 17 q 272 8 272 17 q 267 0 271 0 l 172 3 q 56 6 92 6 q -18 3 24 6 q -78 0 -54 0 m 392 471 l 649 471 l 651 432 l 365 432 l 392 471 m 938 308 q 928 303 936 303 q 921 310 919 304 q 924 338 924 329 q 894 408 924 383 q 813 432 865 432 l 594 432 l 600 471 l 822 471 q 919 495 885 471 q 967 576 954 519 q 976 583 968 583 q 983 575 985 582 q 960 451 972 510 q 951 408 954 426 q 947 376 949 389 l 938 308 m 654 989 q 644 997 649 989 q 640 1017 640 1006 q 644 1036 640 1028 q 654 1044 649 1044 l 971 1044 q 982 1036 978 1044 q 986 1017 986 1028 q 982 997 986 1006 q 971 989 978 989 l 654 989 z "},"B":{"ha":779,"x_min":18,"x_max":729,"o":"m 451 490 q 653 434 579 490 q 726 288 726 378 q 722 243 726 267 q 656 117 708 174 q 526 27 604 60 q 361 -6 449 -6 q 278 -1 324 -6 q 235 1 260 0 q 182 3 211 3 l 88 1 q 21 0 63 0 q 18 8 18 0 q 21 17 18 17 q 98 37 75 17 q 132 117 121 57 l 246 760 q 250 800 250 785 q 233 842 250 832 q 174 851 217 851 q 169 857 169 851 q 171 864 169 861 q 174 868 172 867 l 240 867 q 329 864 296 864 q 404 868 367 864 q 442 871 417 869 q 486 872 467 872 q 666 833 603 872 q 729 722 729 794 q 725 686 729 706 q 633 547 708 607 q 433 463 558 488 l 451 490 m 465 844 q 409 822 428 844 q 382 747 390 800 l 335 481 l 290 490 q 385 488 344 488 q 517 544 463 488 q 590 689 572 601 q 596 736 596 713 q 563 817 596 790 q 465 844 529 844 m 339 25 q 496 76 439 25 q 574 226 553 128 q 582 293 582 263 q 536 409 582 368 q 396 450 490 450 q 286 442 333 450 l 329 458 l 268 107 q 264 71 264 86 q 280 35 264 46 q 339 25 296 25 z "},"C":{"ha":817,"x_min":74,"x_max":825,"o":"m 444 -17 q 163 84 251 -17 q 74 335 74 185 q 83 435 74 379 q 188 674 108 572 q 377 830 267 776 q 606 883 488 883 q 720 872 661 883 q 813 843 779 860 q 823 832 821 838 q 824 811 825 826 l 801 625 q 794 621 801 621 q 786 625 788 621 q 701 788 763 729 q 549 846 639 846 q 345 749 428 846 q 239 481 263 651 q 231 367 231 422 q 257 185 231 265 q 334 58 283 104 q 453 11 385 11 q 594 63 522 11 q 747 222 667 114 q 753 225 749 225 q 760 223 757 225 q 763 218 764 221 l 725 58 q 717 35 721 42 q 700 26 713 29 q 444 -17 575 -17 z "},"Ć":{"ha":817,"x_min":74,"x_max":840,"o":"m 444 -17 q 163 84 251 -17 q 74 335 74 185 q 83 435 74 379 q 188 674 108 572 q 377 830 267 776 q 606 883 488 883 q 720 872 661 883 q 813 843 779 860 q 823 832 821 838 q 824 811 825 826 l 801 625 q 794 621 801 621 q 786 625 788 621 q 701 788 763 729 q 549 846 639 846 q 345 749 428 846 q 239 481 263 651 q 231 367 231 422 q 257 185 231 265 q 334 58 283 104 q 453 11 385 11 q 594 63 522 11 q 747 222 667 114 q 753 225 749 225 q 760 223 757 225 q 763 218 764 221 l 725 58 q 717 35 721 42 q 700 26 713 29 q 444 -17 575 -17 m 513 942 q 506 948 507 942 q 508 957 504 954 q 625 1053 550 988 q 682 1101 679 1099 q 733 1097 690 1108 q 808 1069 775 1085 q 824 1050 840 1053 q 666 1003 738 1029 q 515 943 594 978 l 513 942 z "},"Č":{"ha":817,"x_min":74,"x_max":825,"o":"m 444 -17 q 163 84 251 -17 q 74 335 74 185 q 83 435 74 379 q 188 674 108 572 q 377 830 267 776 q 606 883 488 883 q 720 872 661 883 q 813 843 779 860 q 823 832 821 838 q 824 811 825 826 l 801 625 q 794 621 801 621 q 786 625 788 621 q 701 788 763 729 q 549 846 639 846 q 345 749 428 846 q 239 481 263 651 q 231 367 231 422 q 257 185 231 265 q 334 58 283 104 q 453 11 385 11 q 594 63 522 11 q 747 222 667 114 q 753 225 749 225 q 760 223 757 225 q 763 218 764 221 l 725 58 q 717 35 721 42 q 700 26 713 29 q 444 -17 575 -17 m 467 1114 q 471 1120 467 1117 q 478 1122 475 1124 l 608 1068 l 763 1122 l 764 1122 q 771 1119 768 1122 q 771 1113 774 1115 l 608 951 q 594 946 603 946 q 583 951 588 946 l 467 1113 l 467 1114 z "},"Ç":{"ha":817,"x_min":74,"x_max":825,"o":"m 444 -17 q 163 84 251 -17 q 74 335 74 185 q 83 435 74 379 q 188 674 108 572 q 377 830 267 776 q 606 883 488 883 q 720 872 661 883 q 813 843 779 860 q 823 832 821 838 q 824 811 825 826 l 801 625 q 794 621 801 621 q 786 625 788 621 q 701 788 763 729 q 549 846 639 846 q 345 749 428 846 q 239 481 263 651 q 231 367 231 422 q 257 185 231 265 q 334 58 283 104 q 453 11 385 11 q 594 63 522 11 q 747 222 667 114 q 753 225 749 225 q 760 223 757 225 q 763 218 764 221 l 725 58 q 717 35 721 42 q 700 26 713 29 q 444 -17 575 -17 m 369 -382 q 290 -364 322 -382 q 258 -317 258 -346 q 276 -275 258 -289 q 317 -261 293 -261 q 352 -274 342 -261 q 371 -312 363 -287 q 387 -345 379 -335 q 411 -356 394 -356 q 438 -345 428 -356 q 447 -318 447 -335 q 429 -265 447 -294 q 376 -192 411 -236 q 365 -158 365 -179 q 372 -127 365 -143 q 392 -83 378 -111 l 432 0 l 454 0 q 442 -50 442 -29 q 451 -90 442 -72 q 474 -124 461 -108 q 490 -144 486 -139 q 538 -243 538 -204 q 519 -302 538 -269 q 463 -358 500 -335 q 369 -382 425 -382 z "},"Ĉ":{"ha":817,"x_min":74,"x_max":825,"o":"m 444 -17 q 163 84 251 -17 q 74 335 74 185 q 83 435 74 379 q 188 674 108 572 q 377 830 267 776 q 606 883 488 883 q 720 872 661 883 q 813 843 779 860 q 823 832 821 838 q 824 811 825 826 l 801 625 q 794 621 801 621 q 786 625 788 621 q 701 788 763 729 q 549 846 639 846 q 345 749 428 846 q 239 481 263 651 q 231 367 231 422 q 257 185 231 265 q 334 58 283 104 q 453 11 385 11 q 594 63 522 11 q 747 222 667 114 q 753 225 749 225 q 760 223 757 225 q 763 218 764 221 l 725 58 q 717 35 721 42 q 700 26 713 29 q 444 -17 575 -17 m 458 944 q 451 948 454 944 q 451 954 449 951 l 613 1114 q 625 1121 619 1121 q 638 1114 633 1121 l 753 954 l 754 951 q 750 946 754 949 q 743 944 746 943 l 613 997 l 460 944 l 458 944 z "},"Ċ":{"ha":817,"x_min":74,"x_max":825,"o":"m 444 -17 q 163 84 251 -17 q 74 335 74 185 q 83 435 74 379 q 188 674 108 572 q 377 830 267 776 q 606 883 488 883 q 720 872 661 883 q 813 843 779 860 q 823 832 821 838 q 824 811 825 826 l 801 625 q 794 621 801 621 q 786 625 788 621 q 701 788 763 729 q 549 846 639 846 q 345 749 428 846 q 239 481 263 651 q 231 367 231 422 q 257 185 231 265 q 334 58 283 104 q 453 11 385 11 q 594 63 522 11 q 747 222 667 114 q 753 225 749 225 q 760 223 757 225 q 763 218 764 221 l 725 58 q 717 35 721 42 q 700 26 713 29 q 444 -17 575 -17 m 619 990 q 562 1012 583 990 q 540 1071 540 1033 q 562 1126 540 1106 q 619 1146 583 1146 q 676 1126 656 1146 q 696 1071 696 1106 q 676 1012 696 1033 q 619 990 656 990 z "},"D":{"ha":883,"x_min":14,"x_max":869,"o":"m 349 -6 q 271 -1 315 -6 q 229 1 254 0 q 172 3 204 3 l 81 1 q 18 0 58 0 q 14 8 14 0 q 18 17 14 17 q 76 24 57 17 q 104 50 94 31 q 122 113 114 69 l 236 756 q 242 801 242 792 q 225 841 242 831 q 167 851 208 851 q 164 860 164 851 q 167 868 164 868 l 232 867 q 324 864 288 864 q 404 868 363 864 q 485 871 460 871 q 689 828 601 871 q 823 709 776 786 q 869 531 869 632 q 863 449 869 485 q 760 212 839 315 q 572 51 682 108 q 349 -6 463 -6 m 343 22 q 574 127 476 22 q 706 418 672 232 q 715 535 715 472 q 657 756 715 669 q 472 843 599 843 q 401 823 422 843 q 372 753 381 803 l 261 128 q 257 89 257 106 q 276 38 257 54 q 343 22 296 22 z "},"Ð":{"ha":883,"x_min":14,"x_max":869,"o":"m 96 413 q 90 432 90 413 q 96 451 90 451 l 460 451 q 465 445 463 451 q 467 432 467 439 q 465 419 467 425 q 460 413 463 413 l 96 413 m 349 -6 q 271 -1 315 -6 q 229 1 254 0 q 172 3 204 3 l 81 1 q 18 0 58 0 q 14 8 14 0 q 18 17 14 17 q 76 24 57 17 q 104 50 94 31 q 122 113 114 69 l 236 756 q 242 801 242 792 q 225 841 242 831 q 167 851 208 851 q 164 860 164 851 q 167 868 164 868 l 232 867 q 324 864 288 864 q 404 868 363 864 q 485 871 460 871 q 689 828 601 871 q 823 709 776 786 q 869 531 869 632 q 863 449 869 485 q 760 212 839 315 q 572 51 682 108 q 349 -6 463 -6 m 343 22 q 574 127 476 22 q 706 418 672 232 q 715 535 715 472 q 657 756 715 669 q 472 843 599 843 q 401 823 422 843 q 372 753 381 803 l 261 128 q 257 89 257 106 q 276 38 257 54 q 343 22 296 22 z "},"Ď":{"ha":883,"x_min":14,"x_max":869,"o":"m 349 -6 q 271 -1 315 -6 q 229 1 254 0 q 172 3 204 3 l 81 1 q 18 0 58 0 q 14 8 14 0 q 18 17 14 17 q 76 24 57 17 q 104 50 94 31 q 122 113 114 69 l 236 756 q 242 801 242 792 q 225 841 242 831 q 167 851 208 851 q 164 860 164 851 q 167 868 164 868 l 232 867 q 324 864 288 864 q 404 868 363 864 q 485 871 460 871 q 689 828 601 871 q 823 709 776 786 q 869 531 869 632 q 863 449 869 485 q 760 212 839 315 q 572 51 682 108 q 349 -6 463 -6 m 343 22 q 574 127 476 22 q 706 418 672 232 q 715 535 715 472 q 657 756 715 669 q 472 843 599 843 q 401 823 422 843 q 372 753 381 803 l 261 128 q 257 89 257 106 q 276 38 257 54 q 343 22 296 22 m 353 1114 q 357 1120 353 1117 q 364 1122 361 1124 l 494 1068 l 649 1122 l 650 1122 q 657 1119 654 1122 q 657 1113 660 1115 l 494 951 q 481 946 489 946 q 469 951 474 946 l 353 1113 l 353 1114 z "},"Đ":{"ha":883,"x_min":14,"x_max":869,"o":"m 96 413 q 90 432 90 413 q 96 451 90 451 l 460 451 q 465 445 463 451 q 467 432 467 439 q 465 419 467 425 q 460 413 463 413 l 96 413 m 349 -6 q 271 -1 315 -6 q 229 1 254 0 q 172 3 204 3 l 81 1 q 18 0 58 0 q 14 8 14 0 q 18 17 14 17 q 76 24 57 17 q 104 50 94 31 q 122 113 114 69 l 236 756 q 242 801 242 792 q 225 841 242 831 q 167 851 208 851 q 164 860 164 851 q 167 868 164 868 l 232 867 q 324 864 288 864 q 404 868 363 864 q 485 871 460 871 q 689 828 601 871 q 823 709 776 786 q 869 531 869 632 q 863 449 869 485 q 760 212 839 315 q 572 51 682 108 q 349 -6 463 -6 m 343 22 q 574 127 476 22 q 706 418 672 232 q 715 535 715 472 q 657 756 715 669 q 472 843 599 843 q 401 823 422 843 q 372 753 381 803 l 261 128 q 257 89 257 106 q 276 38 257 54 q 343 22 296 22 z "},"Ḍ":{"ha":883,"x_min":14,"x_max":869,"o":"m 349 -6 q 271 -1 315 -6 q 229 1 254 0 q 172 3 204 3 l 81 1 q 18 0 58 0 q 14 8 14 0 q 18 17 14 17 q 76 24 57 17 q 104 50 94 31 q 122 113 114 69 l 236 756 q 242 801 242 792 q 225 841 242 831 q 167 851 208 851 q 164 860 164 851 q 167 868 164 868 l 232 867 q 324 864 288 864 q 404 868 363 864 q 485 871 460 871 q 689 828 601 871 q 823 709 776 786 q 869 531 869 632 q 863 449 869 485 q 760 212 839 315 q 572 51 682 108 q 349 -6 463 -6 m 343 22 q 574 127 476 22 q 706 418 672 232 q 715 535 715 472 q 657 756 715 669 q 472 843 599 843 q 401 823 422 843 q 372 753 381 803 l 261 128 q 257 89 257 106 q 276 38 257 54 q 343 22 296 22 m 364 -282 q 306 -261 328 -282 q 285 -201 285 -240 q 306 -147 285 -168 q 364 -126 328 -126 q 420 -147 400 -126 q 440 -201 440 -168 q 420 -261 440 -240 q 364 -282 400 -282 z "},"Ḏ":{"ha":883,"x_min":14,"x_max":869,"o":"m 349 -6 q 271 -1 315 -6 q 229 1 254 0 q 172 3 204 3 l 81 1 q 18 0 58 0 q 14 8 14 0 q 18 17 14 17 q 76 24 57 17 q 104 50 94 31 q 122 113 114 69 l 236 756 q 242 801 242 792 q 225 841 242 831 q 167 851 208 851 q 164 860 164 851 q 167 868 164 868 l 232 867 q 324 864 288 864 q 404 868 363 864 q 485 871 460 871 q 689 828 601 871 q 823 709 776 786 q 869 531 869 632 q 863 449 869 485 q 760 212 839 315 q 572 51 682 108 q 349 -6 463 -6 m 343 22 q 574 127 476 22 q 706 418 672 232 q 715 535 715 472 q 657 756 715 669 q 472 843 599 843 q 401 823 422 843 q 372 753 381 803 l 261 128 q 257 89 257 106 q 276 38 257 54 q 343 22 296 22 m 228 -171 q 218 -162 222 -171 q 214 -143 214 -154 q 218 -124 214 -132 q 228 -115 222 -115 l 544 -115 q 556 -124 551 -115 q 560 -143 560 -132 q 556 -162 560 -154 q 544 -171 551 -171 l 228 -171 z "},"E":{"ha":738,"x_min":24,"x_max":732,"o":"m 28 0 q 24 8 24 0 q 28 17 24 17 q 85 24 67 17 q 113 50 104 31 q 131 113 122 69 l 243 756 q 249 803 249 782 q 233 842 249 832 q 175 851 217 851 q 172 860 172 851 q 175 868 172 868 l 721 868 q 729 856 732 868 l 700 669 q 694 665 700 665 q 687 667 690 665 q 683 671 683 669 q 629 793 678 747 q 504 839 581 839 l 479 839 q 421 833 439 839 q 395 810 403 826 q 381 754 388 793 l 268 118 q 264 76 264 93 q 279 39 264 49 q 335 29 294 29 l 371 29 q 529 81 451 29 q 658 221 607 133 q 668 223 660 225 q 674 218 676 221 q 626 21 651 146 q 619 4 624 8 q 604 0 615 0 l 28 0 m 603 308 q 593 303 601 303 q 586 310 585 304 q 589 338 589 329 q 560 408 589 383 q 478 432 531 432 l 260 432 l 265 471 l 488 471 q 585 495 551 471 q 632 576 619 519 q 642 583 633 583 q 649 575 650 582 q 632 489 643 536 q 625 451 632 483 q 615 386 621 426 q 610 351 613 371 q 603 308 607 332 z "},"É":{"ha":738,"x_min":24,"x_max":742,"o":"m 28 0 q 24 8 24 0 q 28 17 24 17 q 85 24 67 17 q 113 50 104 31 q 131 113 122 69 l 243 756 q 249 803 249 782 q 233 842 249 832 q 175 851 217 851 q 172 860 172 851 q 175 868 172 868 l 721 868 q 729 856 732 868 l 700 669 q 694 665 700 665 q 687 667 690 665 q 683 671 683 669 q 629 793 678 747 q 504 839 581 839 l 479 839 q 421 833 439 839 q 395 810 403 826 q 381 754 388 793 l 268 118 q 264 76 264 93 q 279 39 264 49 q 335 29 294 29 l 371 29 q 529 81 451 29 q 658 221 607 133 q 668 223 660 225 q 674 218 676 221 q 626 21 651 146 q 619 4 624 8 q 604 0 615 0 l 28 0 m 603 308 q 593 303 601 303 q 586 310 585 304 q 589 338 589 329 q 560 408 589 383 q 478 432 531 432 l 260 432 l 265 471 l 488 471 q 585 495 551 471 q 632 576 619 519 q 642 583 633 583 q 649 575 650 582 q 632 489 643 536 q 625 451 632 483 q 615 386 621 426 q 610 351 613 371 q 603 308 607 332 m 414 942 q 407 948 408 942 q 410 957 406 954 q 526 1053 451 988 q 583 1101 581 1099 q 634 1097 592 1108 q 709 1069 676 1085 q 725 1050 742 1053 q 567 1003 639 1029 q 417 943 496 978 l 414 942 z "},"Ĕ":{"ha":738,"x_min":24,"x_max":732,"o":"m 28 0 q 24 8 24 0 q 28 17 24 17 q 85 24 67 17 q 113 50 104 31 q 131 113 122 69 l 243 756 q 249 803 249 782 q 233 842 249 832 q 175 851 217 851 q 172 860 172 851 q 175 868 172 868 l 721 868 q 729 856 732 868 l 700 669 q 694 665 700 665 q 687 667 690 665 q 683 671 683 669 q 629 793 678 747 q 504 839 581 839 l 479 839 q 421 833 439 839 q 395 810 403 826 q 381 754 388 793 l 268 118 q 264 76 264 93 q 279 39 264 49 q 335 29 294 29 l 371 29 q 529 81 451 29 q 658 221 607 133 q 668 223 660 225 q 674 218 676 221 q 626 21 651 146 q 619 4 624 8 q 604 0 615 0 l 28 0 m 603 308 q 593 303 601 303 q 586 310 585 304 q 589 338 589 329 q 560 408 589 383 q 478 432 531 432 l 260 432 l 265 471 l 488 471 q 585 495 551 471 q 632 576 619 519 q 642 583 633 583 q 649 575 650 582 q 632 489 643 536 q 625 451 632 483 q 615 386 621 426 q 610 351 613 371 q 603 308 607 332 m 513 936 q 415 971 454 936 q 376 1071 376 1006 q 410 1086 376 1079 q 471 1093 443 1093 q 492 1089 492 1093 q 521 1035 496 1054 q 579 1017 546 1017 q 631 1033 606 1017 q 674 1083 657 1050 q 682 1088 678 1088 q 693 1085 688 1088 q 697 1079 699 1082 q 615 974 667 1011 q 513 936 564 936 z "},"Ě":{"ha":738,"x_min":24,"x_max":732,"o":"m 28 0 q 24 8 24 0 q 28 17 24 17 q 85 24 67 17 q 113 50 104 31 q 131 113 122 69 l 243 756 q 249 803 249 782 q 233 842 249 832 q 175 851 217 851 q 172 860 172 851 q 175 868 172 868 l 721 868 q 729 856 732 868 l 700 669 q 694 665 700 665 q 687 667 690 665 q 683 671 683 669 q 629 793 678 747 q 504 839 581 839 l 479 839 q 421 833 439 839 q 395 810 403 826 q 381 754 388 793 l 268 118 q 264 76 264 93 q 279 39 264 49 q 335 29 294 29 l 371 29 q 529 81 451 29 q 658 221 607 133 q 668 223 660 225 q 674 218 676 221 q 626 21 651 146 q 619 4 624 8 q 604 0 615 0 l 28 0 m 603 308 q 593 303 601 303 q 586 310 585 304 q 589 338 589 329 q 560 408 589 383 q 478 432 531 432 l 260 432 l 265 471 l 488 471 q 585 495 551 471 q 632 576 619 519 q 642 583 633 583 q 649 575 650 582 q 632 489 643 536 q 625 451 632 483 q 615 386 621 426 q 610 351 613 371 q 603 308 607 332 m 368 1114 q 372 1120 368 1117 q 379 1122 376 1124 l 510 1068 l 664 1122 l 665 1122 q 672 1119 669 1122 q 672 1113 675 1115 l 510 951 q 496 946 504 946 q 485 951 489 946 l 368 1113 l 368 1114 z "},"Ê":{"ha":738,"x_min":24,"x_max":732,"o":"m 28 0 q 24 8 24 0 q 28 17 24 17 q 85 24 67 17 q 113 50 104 31 q 131 113 122 69 l 243 756 q 249 803 249 782 q 233 842 249 832 q 175 851 217 851 q 172 860 172 851 q 175 868 172 868 l 721 868 q 729 856 732 868 l 700 669 q 694 665 700 665 q 687 667 690 665 q 683 671 683 669 q 629 793 678 747 q 504 839 581 839 l 479 839 q 421 833 439 839 q 395 810 403 826 q 381 754 388 793 l 268 118 q 264 76 264 93 q 279 39 264 49 q 335 29 294 29 l 371 29 q 529 81 451 29 q 658 221 607 133 q 668 223 660 225 q 674 218 676 221 q 626 21 651 146 q 619 4 624 8 q 604 0 615 0 l 28 0 m 603 308 q 593 303 601 303 q 586 310 585 304 q 589 338 589 329 q 560 408 589 383 q 478 432 531 432 l 260 432 l 265 471 l 488 471 q 585 495 551 471 q 632 576 619 519 q 642 583 633 583 q 649 575 650 582 q 632 489 643 536 q 625 451 632 483 q 615 386 621 426 q 610 351 613 371 q 603 308 607 332 m 360 944 q 353 948 356 944 q 353 954 350 951 l 514 1114 q 526 1121 521 1121 q 539 1114 535 1121 l 654 954 l 656 951 q 651 946 656 949 q 644 944 647 943 l 514 997 l 361 944 l 360 944 z "},"Ế":{"ha":738,"x_min":24,"x_max":856,"o":"m 28 0 q 24 8 24 0 q 28 17 24 17 q 85 24 67 17 q 113 50 104 31 q 131 113 122 69 l 243 756 q 249 803 249 782 q 233 842 249 832 q 175 851 217 851 q 172 860 172 851 q 175 868 172 868 l 721 868 q 729 856 732 868 l 700 669 q 694 665 700 665 q 687 667 690 665 q 683 671 683 669 q 629 793 678 747 q 504 839 581 839 l 479 839 q 421 833 439 839 q 395 810 403 826 q 381 754 388 793 l 268 118 q 264 76 264 93 q 279 39 264 49 q 335 29 294 29 l 371 29 q 529 81 451 29 q 658 221 607 133 q 668 223 660 225 q 674 218 676 221 q 626 21 651 146 q 619 4 624 8 q 604 0 615 0 l 28 0 m 603 308 q 593 303 601 303 q 586 310 585 304 q 589 338 589 329 q 560 408 589 383 q 478 432 531 432 l 260 432 l 265 471 l 488 471 q 585 495 551 471 q 632 576 619 519 q 642 583 633 583 q 649 575 650 582 q 632 489 643 536 q 625 451 632 483 q 615 386 621 426 q 610 351 613 371 q 603 308 607 332 m 358 931 q 351 934 354 931 q 351 940 349 938 l 513 1100 q 525 1107 519 1107 q 538 1100 533 1107 l 653 940 l 654 938 q 650 932 654 935 q 643 931 646 929 l 513 983 l 360 931 l 358 931 m 608 1018 q 602 1024 604 1018 q 603 1035 600 1031 q 708 1179 671 1121 q 719 1183 711 1183 q 775 1172 739 1183 q 833 1147 811 1160 q 842 1128 856 1133 q 611 1019 724 1088 l 608 1018 z "},"Ệ":{"ha":738,"x_min":24,"x_max":732,"o":"m 28 0 q 24 8 24 0 q 28 17 24 17 q 85 24 67 17 q 113 50 104 31 q 131 113 122 69 l 243 756 q 249 803 249 782 q 233 842 249 832 q 175 851 217 851 q 172 860 172 851 q 175 868 172 868 l 721 868 q 729 856 732 868 l 700 669 q 694 665 700 665 q 687 667 690 665 q 683 671 683 669 q 629 793 678 747 q 504 839 581 839 l 479 839 q 421 833 439 839 q 395 810 403 826 q 381 754 388 793 l 268 118 q 264 76 264 93 q 279 39 264 49 q 335 29 294 29 l 371 29 q 529 81 451 29 q 658 221 607 133 q 668 223 660 225 q 674 218 676 221 q 626 21 651 146 q 619 4 624 8 q 604 0 615 0 l 28 0 m 603 308 q 593 303 601 303 q 586 310 585 304 q 589 338 589 329 q 560 408 589 383 q 478 432 531 432 l 260 432 l 265 471 l 488 471 q 585 495 551 471 q 632 576 619 519 q 642 583 633 583 q 649 575 650 582 q 632 489 643 536 q 625 451 632 483 q 615 386 621 426 q 610 351 613 371 q 603 308 607 332 m 383 -282 q 326 -261 347 -282 q 304 -201 304 -240 q 326 -147 304 -168 q 383 -126 347 -126 q 440 -147 419 -126 q 460 -201 460 -168 q 440 -261 460 -240 q 383 -282 419 -282 m 360 944 q 353 948 356 944 q 353 954 350 951 l 514 1114 q 526 1121 521 1121 q 539 1114 535 1121 l 654 954 l 656 951 q 651 946 656 949 q 644 944 647 943 l 514 997 l 361 944 l 360 944 z "},"Ề":{"ha":738,"x_min":24,"x_max":750,"o":"m 28 0 q 24 8 24 0 q 28 17 24 17 q 85 24 67 17 q 113 50 104 31 q 131 113 122 69 l 243 756 q 249 803 249 782 q 233 842 249 832 q 175 851 217 851 q 172 860 172 851 q 175 868 172 868 l 721 868 q 729 856 732 868 l 700 669 q 694 665 700 665 q 687 667 690 665 q 683 671 683 669 q 629 793 678 747 q 504 839 581 839 l 479 839 q 421 833 439 839 q 395 810 403 826 q 381 754 388 793 l 268 118 q 264 76 264 93 q 279 39 264 49 q 335 29 294 29 l 371 29 q 529 81 451 29 q 658 221 607 133 q 668 223 660 225 q 674 218 676 221 q 626 21 651 146 q 619 4 624 8 q 604 0 615 0 l 28 0 m 603 308 q 593 303 601 303 q 586 310 585 304 q 589 338 589 329 q 560 408 589 383 q 478 432 531 432 l 260 432 l 265 471 l 488 471 q 585 495 551 471 q 632 576 619 519 q 642 583 633 583 q 649 575 650 582 q 632 489 643 536 q 625 451 632 483 q 615 386 621 426 q 610 351 613 371 q 603 308 607 332 m 357 917 q 350 920 353 917 q 350 926 347 924 l 511 1086 q 524 1093 518 1093 q 536 1086 532 1093 l 651 926 l 653 924 q 649 918 653 921 q 642 917 644 915 l 511 969 l 358 917 l 357 917 m 732 993 q 644 1053 685 1029 q 549 1101 603 1078 q 563 1120 536 1107 q 628 1145 589 1133 q 688 1157 668 1157 q 699 1153 697 1157 q 750 1008 718 1079 l 750 1007 q 744 997 750 1001 q 732 993 738 992 z "},"Ể":{"ha":738,"x_min":24,"x_max":749,"o":"m 28 0 q 24 8 24 0 q 28 17 24 17 q 85 24 67 17 q 113 50 104 31 q 131 113 122 69 l 243 756 q 249 803 249 782 q 233 842 249 832 q 175 851 217 851 q 172 860 172 851 q 175 868 172 868 l 721 868 q 729 856 732 868 l 700 669 q 694 665 700 665 q 687 667 690 665 q 683 671 683 669 q 629 793 678 747 q 504 839 581 839 l 479 839 q 421 833 439 839 q 395 810 403 826 q 381 754 388 793 l 268 118 q 264 76 264 93 q 279 39 264 49 q 335 29 294 29 l 371 29 q 529 81 451 29 q 658 221 607 133 q 668 223 660 225 q 674 218 676 221 q 626 21 651 146 q 619 4 624 8 q 604 0 615 0 l 28 0 m 603 308 q 593 303 601 303 q 586 310 585 304 q 589 338 589 329 q 560 408 589 383 q 478 432 531 432 l 260 432 l 265 471 l 488 471 q 585 495 551 471 q 632 576 619 519 q 642 583 633 583 q 649 575 650 582 q 632 489 643 536 q 625 451 632 483 q 615 386 621 426 q 610 351 613 371 q 603 308 607 332 m 356 917 q 349 920 351 917 q 349 926 346 924 l 510 1086 q 522 1093 517 1093 q 535 1086 531 1093 l 650 926 l 651 924 q 647 918 651 921 q 640 917 643 915 l 510 969 l 357 917 l 356 917 m 614 996 q 618 1028 613 1014 q 638 1068 624 1043 q 653 1097 646 1082 q 660 1126 660 1113 q 649 1151 660 1143 q 624 1160 639 1160 q 599 1156 610 1160 l 596 1154 q 590 1159 592 1154 q 590 1167 588 1164 q 681 1192 636 1192 q 730 1177 711 1192 q 749 1140 749 1163 q 732 1100 749 1118 q 685 1058 715 1082 q 644 1025 658 1039 q 629 996 631 1011 q 621 992 628 993 q 614 996 614 992 z "},"Ễ":{"ha":738,"x_min":24,"x_max":738,"o":"m 28 0 q 24 8 24 0 q 28 17 24 17 q 85 24 67 17 q 113 50 104 31 q 131 113 122 69 l 243 756 q 249 803 249 782 q 233 842 249 832 q 175 851 217 851 q 172 860 172 851 q 175 868 172 868 l 721 868 q 729 856 732 868 l 700 669 q 694 665 700 665 q 687 667 690 665 q 683 671 683 669 q 629 793 678 747 q 504 839 581 839 l 479 839 q 421 833 439 839 q 395 810 403 826 q 381 754 388 793 l 268 118 q 264 76 264 93 q 279 39 264 49 q 335 29 294 29 l 371 29 q 529 81 451 29 q 658 221 607 133 q 668 223 660 225 q 674 218 676 221 q 626 21 651 146 q 619 4 624 8 q 604 0 615 0 l 28 0 m 603 308 q 593 303 601 303 q 586 310 585 304 q 589 338 589 329 q 560 408 589 383 q 478 432 531 432 l 260 432 l 265 471 l 488 471 q 585 495 551 471 q 632 576 619 519 q 642 583 633 583 q 649 575 650 582 q 632 489 643 536 q 625 451 632 483 q 615 386 621 426 q 610 351 613 371 q 603 308 607 332 m 349 917 q 342 920 344 917 q 342 926 339 924 l 503 1086 q 515 1093 510 1093 q 528 1086 524 1093 l 643 926 l 644 924 q 640 918 644 921 q 633 917 636 915 l 503 969 l 350 917 l 349 917 m 342 1090 q 335 1094 339 1090 q 333 1100 332 1097 q 397 1180 364 1147 q 471 1213 431 1213 q 536 1199 486 1213 q 589 1184 561 1190 q 639 1178 617 1178 q 687 1186 668 1178 q 726 1215 706 1194 q 729 1217 726 1217 q 735 1213 732 1217 q 736 1206 738 1208 q 667 1117 694 1139 q 604 1094 640 1094 q 526 1110 578 1094 q 478 1122 503 1117 q 431 1128 453 1128 q 383 1121 397 1128 q 343 1090 369 1114 l 342 1090 z "},"Ȅ":{"ha":738,"x_min":24,"x_max":732,"o":"m 28 0 q 24 8 24 0 q 28 17 24 17 q 85 24 67 17 q 113 50 104 31 q 131 113 122 69 l 243 756 q 249 803 249 782 q 233 842 249 832 q 175 851 217 851 q 172 860 172 851 q 175 868 172 868 l 721 868 q 729 856 732 868 l 700 669 q 694 665 700 665 q 687 667 690 665 q 683 671 683 669 q 629 793 678 747 q 504 839 581 839 l 479 839 q 421 833 439 839 q 395 810 403 826 q 381 754 388 793 l 268 118 q 264 76 264 93 q 279 39 264 49 q 335 29 294 29 l 371 29 q 529 81 451 29 q 658 221 607 133 q 668 223 660 225 q 674 218 676 221 q 626 21 651 146 q 619 4 624 8 q 604 0 615 0 l 28 0 m 603 308 q 593 303 601 303 q 586 310 585 304 q 589 338 589 329 q 560 408 589 383 q 478 432 531 432 l 260 432 l 265 471 l 488 471 q 585 495 551 471 q 632 576 619 519 q 642 583 633 583 q 649 575 650 582 q 632 489 643 536 q 625 451 632 483 q 615 386 621 426 q 610 351 613 371 q 603 308 607 332 m 674 929 q 615 975 647 953 q 551 1017 582 997 l 476 1067 q 483 1086 464 1075 q 533 1106 501 1097 q 585 1114 564 1114 q 601 1110 600 1114 q 656 1001 615 1076 l 688 942 l 689 938 q 683 929 689 932 q 674 929 676 926 m 479 929 q 414 982 446 960 q 324 1040 382 1004 l 281 1067 q 288 1086 268 1075 q 340 1106 307 1097 q 392 1114 372 1114 q 407 1110 406 1114 q 457 1008 422 1074 l 492 942 l 493 938 q 488 929 493 932 q 479 929 482 926 z "},"Ë":{"ha":738,"x_min":24,"x_max":732,"o":"m 28 0 q 24 8 24 0 q 28 17 24 17 q 85 24 67 17 q 113 50 104 31 q 131 113 122 69 l 243 756 q 249 803 249 782 q 233 842 249 832 q 175 851 217 851 q 172 860 172 851 q 175 868 172 868 l 721 868 q 729 856 732 868 l 700 669 q 694 665 700 665 q 687 667 690 665 q 683 671 683 669 q 629 793 678 747 q 504 839 581 839 l 479 839 q 421 833 439 839 q 395 810 403 826 q 381 754 388 793 l 268 118 q 264 76 264 93 q 279 39 264 49 q 335 29 294 29 l 371 29 q 529 81 451 29 q 658 221 607 133 q 668 223 660 225 q 674 218 676 221 q 626 21 651 146 q 619 4 624 8 q 604 0 615 0 l 28 0 m 603 308 q 593 303 601 303 q 586 310 585 304 q 589 338 589 329 q 560 408 589 383 q 478 432 531 432 l 260 432 l 265 471 l 488 471 q 585 495 551 471 q 632 576 619 519 q 642 583 633 583 q 649 575 650 582 q 632 489 643 536 q 625 451 632 483 q 615 386 621 426 q 610 351 613 371 q 603 308 607 332 m 629 976 q 574 997 593 976 q 554 1053 554 1017 q 574 1105 554 1086 q 629 1124 594 1124 q 681 1105 663 1124 q 700 1053 700 1086 q 681 997 700 1017 q 629 976 663 976 m 408 976 q 353 997 372 976 q 333 1053 333 1017 q 353 1105 333 1086 q 408 1124 374 1124 q 460 1105 442 1124 q 479 1053 479 1086 q 460 997 479 1017 q 408 976 442 976 z "},"Ė":{"ha":738,"x_min":24,"x_max":732,"o":"m 28 0 q 24 8 24 0 q 28 17 24 17 q 85 24 67 17 q 113 50 104 31 q 131 113 122 69 l 243 756 q 249 803 249 782 q 233 842 249 832 q 175 851 217 851 q 172 860 172 851 q 175 868 172 868 l 721 868 q 729 856 732 868 l 700 669 q 694 665 700 665 q 687 667 690 665 q 683 671 683 669 q 629 793 678 747 q 504 839 581 839 l 479 839 q 421 833 439 839 q 395 810 403 826 q 381 754 388 793 l 268 118 q 264 76 264 93 q 279 39 264 49 q 335 29 294 29 l 371 29 q 529 81 451 29 q 658 221 607 133 q 668 223 660 225 q 674 218 676 221 q 626 21 651 146 q 619 4 624 8 q 604 0 615 0 l 28 0 m 603 308 q 593 303 601 303 q 586 310 585 304 q 589 338 589 329 q 560 408 589 383 q 478 432 531 432 l 260 432 l 265 471 l 488 471 q 585 495 551 471 q 632 576 619 519 q 642 583 633 583 q 649 575 650 582 q 632 489 643 536 q 625 451 632 483 q 615 386 621 426 q 610 351 613 371 q 603 308 607 332 m 521 990 q 463 1012 485 990 q 442 1071 442 1033 q 463 1126 442 1106 q 521 1146 485 1146 q 577 1126 557 1146 q 597 1071 597 1106 q 577 1012 597 1033 q 521 990 557 990 z "},"Ẹ":{"ha":738,"x_min":24,"x_max":732,"o":"m 28 0 q 24 8 24 0 q 28 17 24 17 q 85 24 67 17 q 113 50 104 31 q 131 113 122 69 l 243 756 q 249 803 249 782 q 233 842 249 832 q 175 851 217 851 q 172 860 172 851 q 175 868 172 868 l 721 868 q 729 856 732 868 l 700 669 q 694 665 700 665 q 687 667 690 665 q 683 671 683 669 q 629 793 678 747 q 504 839 581 839 l 479 839 q 421 833 439 839 q 395 810 403 826 q 381 754 388 793 l 268 118 q 264 76 264 93 q 279 39 264 49 q 335 29 294 29 l 371 29 q 529 81 451 29 q 658 221 607 133 q 668 223 660 225 q 674 218 676 221 q 626 21 651 146 q 619 4 624 8 q 604 0 615 0 l 28 0 m 603 308 q 593 303 601 303 q 586 310 585 304 q 589 338 589 329 q 560 408 589 383 q 478 432 531 432 l 260 432 l 265 471 l 488 471 q 585 495 551 471 q 632 576 619 519 q 642 583 633 583 q 649 575 650 582 q 632 489 643 536 q 625 451 632 483 q 615 386 621 426 q 610 351 613 371 q 603 308 607 332 m 383 -282 q 326 -261 347 -282 q 304 -201 304 -240 q 326 -147 304 -168 q 383 -126 347 -126 q 440 -147 419 -126 q 460 -201 460 -168 q 440 -261 460 -240 q 383 -282 419 -282 z "},"È":{"ha":738,"x_min":24,"x_max":732,"o":"m 28 0 q 24 8 24 0 q 28 17 24 17 q 85 24 67 17 q 113 50 104 31 q 131 113 122 69 l 243 756 q 249 803 249 782 q 233 842 249 832 q 175 851 217 851 q 172 860 172 851 q 175 868 172 868 l 721 868 q 729 856 732 868 l 700 669 q 694 665 700 665 q 687 667 690 665 q 683 671 683 669 q 629 793 678 747 q 504 839 581 839 l 479 839 q 421 833 439 839 q 395 810 403 826 q 381 754 388 793 l 268 118 q 264 76 264 93 q 279 39 264 49 q 335 29 294 29 l 371 29 q 529 81 451 29 q 658 221 607 133 q 668 223 660 225 q 674 218 676 221 q 626 21 651 146 q 619 4 624 8 q 604 0 615 0 l 28 0 m 603 308 q 593 303 601 303 q 586 310 585 304 q 589 338 589 329 q 560 408 589 383 q 478 432 531 432 l 260 432 l 265 471 l 488 471 q 585 495 551 471 q 632 576 619 519 q 642 583 633 583 q 649 575 650 582 q 632 489 643 536 q 625 451 632 483 q 615 386 621 426 q 610 351 613 371 q 603 308 607 332 m 613 961 q 488 1006 542 989 q 346 1050 435 1024 q 356 1067 329 1054 q 424 1092 382 1081 q 488 1103 467 1103 q 500 1100 497 1103 q 575 1024 535 1061 l 626 974 q 628 969 628 972 q 623 963 628 965 q 613 961 618 960 z "},"Ẻ":{"ha":738,"x_min":24,"x_max":732,"o":"m 28 0 q 24 8 24 0 q 28 17 24 17 q 85 24 67 17 q 113 50 104 31 q 131 113 122 69 l 243 756 q 249 803 249 782 q 233 842 249 832 q 175 851 217 851 q 172 860 172 851 q 175 868 172 868 l 721 868 q 729 856 732 868 l 700 669 q 694 665 700 665 q 687 667 690 665 q 683 671 683 669 q 629 793 678 747 q 504 839 581 839 l 479 839 q 421 833 439 839 q 395 810 403 826 q 381 754 388 793 l 268 118 q 264 76 264 93 q 279 39 264 49 q 335 29 294 29 l 371 29 q 529 81 451 29 q 658 221 607 133 q 668 223 660 225 q 674 218 676 221 q 626 21 651 146 q 619 4 624 8 q 604 0 615 0 l 28 0 m 603 308 q 593 303 601 303 q 586 310 585 304 q 589 338 589 329 q 560 408 589 383 q 478 432 531 432 l 260 432 l 265 471 l 488 471 q 585 495 551 471 q 632 576 619 519 q 642 583 633 583 q 649 575 650 582 q 632 489 643 536 q 625 451 632 483 q 615 386 621 426 q 610 351 613 371 q 603 308 607 332 m 499 907 q 491 903 499 904 q 482 907 483 903 q 479 938 479 929 q 484 977 479 960 q 499 1022 489 994 q 513 1063 508 1046 q 518 1099 518 1079 q 479 1147 518 1147 q 429 1133 460 1147 l 426 1133 q 419 1138 422 1133 q 419 1146 415 1142 q 533 1185 469 1185 q 604 1165 578 1185 q 631 1111 631 1146 q 613 1058 631 1082 q 558 997 594 1033 q 513 947 528 967 q 499 907 499 928 z "},"Ȇ":{"ha":738,"x_min":24,"x_max":732,"o":"m 28 0 q 24 8 24 0 q 28 17 24 17 q 85 24 67 17 q 113 50 104 31 q 131 113 122 69 l 243 756 q 249 803 249 782 q 233 842 249 832 q 175 851 217 851 q 172 860 172 851 q 175 868 172 868 l 721 868 q 729 856 732 868 l 700 669 q 694 665 700 665 q 687 667 690 665 q 683 671 683 669 q 629 793 678 747 q 504 839 581 839 l 479 839 q 421 833 439 839 q 395 810 403 826 q 381 754 388 793 l 268 118 q 264 76 264 93 q 279 39 264 49 q 335 29 294 29 l 371 29 q 529 81 451 29 q 658 221 607 133 q 668 223 660 225 q 674 218 676 221 q 626 21 651 146 q 619 4 624 8 q 604 0 615 0 l 28 0 m 603 308 q 593 303 601 303 q 586 310 585 304 q 589 338 589 329 q 560 408 589 383 q 478 432 531 432 l 260 432 l 265 471 l 488 471 q 585 495 551 471 q 632 576 619 519 q 642 583 633 583 q 649 575 650 582 q 632 489 643 536 q 625 451 632 483 q 615 386 621 426 q 610 351 613 371 q 603 308 607 332 m 568 956 q 539 1009 564 990 q 481 1028 514 1028 q 428 1011 454 1028 q 386 961 403 994 q 378 957 382 957 q 367 960 372 957 q 363 965 361 963 q 444 1071 393 1033 q 547 1108 496 1108 q 644 1074 606 1108 q 683 974 683 1039 q 650 958 683 965 q 589 951 617 951 q 568 956 568 951 z "},"Ē":{"ha":738,"x_min":24,"x_max":732,"o":"m 28 0 q 24 8 24 0 q 28 17 24 17 q 85 24 67 17 q 113 50 104 31 q 131 113 122 69 l 243 756 q 249 803 249 782 q 233 842 249 832 q 175 851 217 851 q 172 860 172 851 q 175 868 172 868 l 721 868 q 729 856 732 868 l 700 669 q 694 665 700 665 q 687 667 690 665 q 683 671 683 669 q 629 793 678 747 q 504 839 581 839 l 479 839 q 421 833 439 839 q 395 810 403 826 q 381 754 388 793 l 268 118 q 264 76 264 93 q 279 39 264 49 q 335 29 294 29 l 371 29 q 529 81 451 29 q 658 221 607 133 q 668 223 660 225 q 674 218 676 221 q 626 21 651 146 q 619 4 624 8 q 604 0 615 0 l 28 0 m 603 308 q 593 303 601 303 q 586 310 585 304 q 589 338 589 329 q 560 408 589 383 q 478 432 531 432 l 260 432 l 265 471 l 488 471 q 585 495 551 471 q 632 576 619 519 q 642 583 633 583 q 649 575 650 582 q 632 489 643 536 q 625 451 632 483 q 615 386 621 426 q 610 351 613 371 q 603 308 607 332 m 361 989 q 351 997 356 989 q 347 1017 347 1006 q 351 1036 347 1028 q 361 1044 356 1044 l 678 1044 q 689 1036 685 1044 q 693 1017 693 1028 q 689 997 693 1006 q 678 989 685 989 l 361 989 z "},"Ę":{"ha":738,"x_min":24,"x_max":732,"o":"m 28 0 q 24 8 24 0 q 28 17 24 17 q 85 24 67 17 q 113 50 104 31 q 131 113 122 69 l 243 756 q 249 803 249 782 q 233 842 249 832 q 175 851 217 851 q 172 860 172 851 q 175 868 172 868 l 721 868 q 729 856 732 868 l 700 669 q 694 665 700 665 q 687 667 690 665 q 683 671 683 669 q 629 793 678 747 q 504 839 581 839 l 479 839 q 421 833 439 839 q 395 810 403 826 q 381 754 388 793 l 268 118 q 264 76 264 93 q 279 39 264 49 q 335 29 294 29 l 371 29 q 529 81 451 29 q 658 221 607 133 q 668 223 660 225 q 674 218 676 221 q 626 21 651 146 q 619 4 624 8 q 604 0 615 0 l 28 0 m 603 308 q 593 303 601 303 q 586 310 585 304 q 589 338 589 329 q 560 408 589 383 q 478 432 531 432 l 260 432 l 265 471 l 488 471 q 585 495 551 471 q 632 576 619 519 q 642 583 633 583 q 649 575 650 582 q 632 489 643 536 q 625 451 632 483 q 615 386 621 426 q 610 351 613 371 q 603 308 607 332 m 442 -382 q 354 -349 386 -382 q 322 -265 322 -317 q 377 -131 322 -194 q 544 19 432 -68 l 557 10 q 474 -111 501 -58 q 446 -228 446 -164 q 463 -296 446 -269 q 515 -322 481 -322 q 581 -294 550 -322 l 582 -293 q 590 -299 586 -293 q 590 -307 593 -304 q 515 -365 550 -347 q 442 -382 481 -382 z "},"Ẽ":{"ha":738,"x_min":24,"x_max":732,"o":"m 28 0 q 24 8 24 0 q 28 17 24 17 q 85 24 67 17 q 113 50 104 31 q 131 113 122 69 l 243 756 q 249 803 249 782 q 233 842 249 832 q 175 851 217 851 q 172 860 172 851 q 175 868 172 868 l 721 868 q 729 856 732 868 l 700 669 q 694 665 700 665 q 687 667 690 665 q 683 671 683 669 q 629 793 678 747 q 504 839 581 839 l 479 839 q 421 833 439 839 q 395 810 403 826 q 381 754 388 793 l 268 118 q 264 76 264 93 q 279 39 264 49 q 335 29 294 29 l 371 29 q 529 81 451 29 q 658 221 607 133 q 668 223 660 225 q 674 218 676 221 q 626 21 651 146 q 619 4 624 8 q 604 0 615 0 l 28 0 m 603 308 q 593 303 601 303 q 586 310 585 304 q 589 338 589 329 q 560 408 589 383 q 478 432 531 432 l 260 432 l 265 471 l 488 471 q 585 495 551 471 q 632 576 619 519 q 642 583 633 583 q 649 575 650 582 q 632 489 643 536 q 625 451 632 483 q 615 386 621 426 q 610 351 613 371 q 603 308 607 332 m 331 953 q 328 951 331 951 q 322 956 325 951 q 321 963 319 960 q 385 1042 351 1010 q 460 1075 418 1075 q 496 1069 474 1075 q 525 1061 518 1063 q 626 1040 593 1040 q 676 1049 657 1040 q 715 1078 694 1057 l 717 1078 q 724 1074 721 1078 q 725 1068 726 1071 q 656 978 683 1000 q 593 956 629 956 q 515 972 571 956 q 478 982 510 974 q 419 990 447 990 q 373 984 388 990 q 347 967 358 978 q 331 953 335 957 z "},"Ə":{"ha":821,"x_min":53,"x_max":810,"o":"m 303 -17 q 160 14 215 -17 q 78 92 104 44 q 53 190 53 139 q 56 226 53 204 q 61 240 57 236 q 74 243 65 243 l 211 243 q 207 193 207 218 q 246 66 207 114 q 357 18 285 18 q 621 400 556 18 q 638 581 638 499 q 594 782 638 710 q 463 854 550 854 q 315 802 392 854 q 161 643 238 750 q 154 640 158 640 q 147 643 150 640 q 144 649 143 646 l 231 903 q 236 907 233 907 q 244 904 240 907 q 247 899 249 901 q 243 875 243 885 q 261 857 243 857 q 275 860 264 857 q 386 878 343 872 q 471 883 429 883 q 732 794 654 883 q 810 564 810 704 q 799 450 810 510 q 699 200 774 306 q 521 39 625 94 q 303 -17 417 -17 m 136 243 l 669 246 l 667 218 l 131 211 l 136 243 z "},"F":{"ha":674,"x_min":18,"x_max":728,"o":"m 21 0 q 18 8 18 0 q 21 17 18 17 q 79 24 60 17 q 108 51 99 31 q 125 113 118 71 l 239 756 q 244 801 244 792 q 228 841 244 831 q 171 851 211 851 q 167 860 167 851 q 171 868 167 868 l 717 868 q 725 856 728 868 l 714 785 l 696 669 q 689 665 694 665 q 683 667 686 665 q 679 671 679 669 q 624 794 672 749 q 499 839 575 839 l 475 839 q 417 833 435 839 q 391 810 399 826 q 375 754 383 793 l 263 118 q 258 81 258 96 q 284 30 258 43 q 379 17 310 17 q 382 8 382 17 q 379 0 382 0 q 329 1 350 0 l 172 3 l 83 1 q 21 0 61 0 m 565 293 q 556 288 564 288 q 549 294 547 289 q 551 322 551 314 q 522 392 551 368 q 440 415 493 415 l 256 415 l 260 454 l 450 454 q 547 479 513 454 q 594 561 582 504 q 603 565 594 565 q 609 563 606 565 q 611 558 613 561 q 594 472 606 519 q 588 435 594 467 l 582 399 q 565 293 576 358 z "},"G":{"ha":879,"x_min":75,"x_max":844,"o":"m 458 -17 q 250 29 336 -17 q 119 156 164 75 q 75 343 75 238 q 85 443 75 394 q 186 671 108 571 q 378 827 264 771 q 621 883 493 883 q 740 872 681 883 q 832 843 799 860 q 842 832 840 838 q 843 811 844 826 l 821 625 q 813 621 819 621 q 806 625 807 621 q 719 790 781 731 q 563 849 657 849 q 352 753 438 849 q 242 494 267 658 q 232 371 232 435 q 304 108 232 204 q 504 13 376 13 q 603 47 572 13 q 644 175 633 82 q 651 249 651 226 q 640 297 651 282 q 602 318 628 313 q 524 324 576 324 q 519 327 521 324 q 517 335 517 331 q 519 342 517 339 q 524 346 521 346 q 694 339 628 339 q 831 343 760 339 q 835 333 835 343 q 831 324 836 324 q 804 315 813 325 q 789 264 796 304 q 774 161 782 224 q 764 78 765 107 q 760 39 763 49 q 756 28 758 31 q 744 22 753 25 q 458 -17 579 -17 z "},"Ğ":{"ha":879,"x_min":75,"x_max":844,"o":"m 458 -17 q 250 29 336 -17 q 119 156 164 75 q 75 343 75 238 q 85 443 75 394 q 186 671 108 571 q 378 827 264 771 q 621 883 493 883 q 740 872 681 883 q 832 843 799 860 q 842 832 840 838 q 843 811 844 826 l 821 625 q 813 621 819 621 q 806 625 807 621 q 719 790 781 731 q 563 849 657 849 q 352 753 438 849 q 242 494 267 658 q 232 371 232 435 q 304 108 232 204 q 504 13 376 13 q 603 47 572 13 q 644 175 633 82 q 651 249 651 226 q 640 297 651 282 q 602 318 628 313 q 524 324 576 324 q 519 327 521 324 q 517 335 517 331 q 519 342 517 339 q 524 346 521 346 q 694 339 628 339 q 831 343 760 339 q 835 333 835 343 q 831 324 836 324 q 804 315 813 325 q 789 264 796 304 q 774 161 782 224 q 764 78 765 107 q 760 39 763 49 q 756 28 758 31 q 744 22 753 25 q 458 -17 579 -17 m 608 951 q 511 986 550 951 q 472 1086 472 1021 q 506 1101 472 1094 q 567 1108 539 1108 q 588 1104 588 1108 q 617 1051 592 1069 q 675 1032 642 1032 q 727 1049 701 1032 q 769 1099 753 1065 q 778 1103 774 1103 q 789 1100 783 1103 q 793 1094 794 1097 q 711 989 763 1026 q 608 951 660 951 z "},"Ǧ":{"ha":879,"x_min":75,"x_max":844,"o":"m 458 -17 q 250 29 336 -17 q 119 156 164 75 q 75 343 75 238 q 85 443 75 394 q 186 671 108 571 q 378 827 264 771 q 621 883 493 883 q 740 872 681 883 q 832 843 799 860 q 842 832 840 838 q 843 811 844 826 l 821 625 q 813 621 819 621 q 806 625 807 621 q 719 790 781 731 q 563 849 657 849 q 352 753 438 849 q 242 494 267 658 q 232 371 232 435 q 304 108 232 204 q 504 13 376 13 q 603 47 572 13 q 644 175 633 82 q 651 249 651 226 q 640 297 651 282 q 602 318 628 313 q 524 324 576 324 q 519 327 521 324 q 517 335 517 331 q 519 342 517 339 q 524 346 521 346 q 694 339 628 339 q 831 343 760 339 q 835 333 835 343 q 831 324 836 324 q 804 315 813 325 q 789 264 796 304 q 774 161 782 224 q 764 78 765 107 q 760 39 763 49 q 756 28 758 31 q 744 22 753 25 q 458 -17 579 -17 m 478 1114 q 482 1120 478 1117 q 489 1122 486 1124 l 619 1068 l 774 1122 l 775 1122 q 782 1119 779 1122 q 782 1113 785 1115 l 619 951 q 606 946 614 946 q 594 951 599 946 l 478 1113 l 478 1114 z "},"Ĝ":{"ha":879,"x_min":75,"x_max":844,"o":"m 458 -17 q 250 29 336 -17 q 119 156 164 75 q 75 343 75 238 q 85 443 75 394 q 186 671 108 571 q 378 827 264 771 q 621 883 493 883 q 740 872 681 883 q 832 843 799 860 q 842 832 840 838 q 843 811 844 826 l 821 625 q 813 621 819 621 q 806 625 807 621 q 719 790 781 731 q 563 849 657 849 q 352 753 438 849 q 242 494 267 658 q 232 371 232 435 q 304 108 232 204 q 504 13 376 13 q 603 47 572 13 q 644 175 633 82 q 651 249 651 226 q 640 297 651 282 q 602 318 628 313 q 524 324 576 324 q 519 327 521 324 q 517 335 517 331 q 519 342 517 339 q 524 346 521 346 q 694 339 628 339 q 831 343 760 339 q 835 333 835 343 q 831 324 836 324 q 804 315 813 325 q 789 264 796 304 q 774 161 782 224 q 764 78 765 107 q 760 39 763 49 q 756 28 758 31 q 744 22 753 25 q 458 -17 579 -17 m 469 944 q 463 948 465 944 q 463 954 460 951 l 624 1114 q 636 1121 631 1121 q 649 1114 644 1121 l 764 954 l 765 951 q 761 946 765 949 q 754 944 757 943 l 624 997 l 471 944 l 469 944 z "},"Ģ":{"ha":879,"x_min":75,"x_max":844,"o":"m 458 -17 q 250 29 336 -17 q 119 156 164 75 q 75 343 75 238 q 85 443 75 394 q 186 671 108 571 q 378 827 264 771 q 621 883 493 883 q 740 872 681 883 q 832 843 799 860 q 842 832 840 838 q 843 811 844 826 l 821 625 q 813 621 819 621 q 806 625 807 621 q 719 790 781 731 q 563 849 657 849 q 352 753 438 849 q 242 494 267 658 q 232 371 232 435 q 304 108 232 204 q 504 13 376 13 q 603 47 572 13 q 644 175 633 82 q 651 249 651 226 q 640 297 651 282 q 602 318 628 313 q 524 324 576 324 q 519 327 521 324 q 517 335 517 331 q 519 342 517 339 q 524 346 521 346 q 694 339 628 339 q 831 343 760 339 q 835 333 835 343 q 831 324 836 324 q 804 315 813 325 q 789 264 796 304 q 774 161 782 224 q 764 78 765 107 q 760 39 763 49 q 756 28 758 31 q 744 22 753 25 q 458 -17 579 -17 m 385 -383 q 376 -377 379 -383 q 378 -368 374 -371 q 460 -275 450 -325 l 463 -253 q 440 -217 463 -222 l 486 -190 q 476 -236 488 -221 q 436 -251 464 -251 q 381 -228 400 -251 q 363 -175 363 -206 q 385 -119 363 -142 q 447 -96 407 -96 q 508 -119 488 -96 q 528 -182 528 -143 q 489 -295 528 -243 q 388 -382 450 -347 l 385 -383 z "},"Ġ":{"ha":879,"x_min":75,"x_max":844,"o":"m 458 -17 q 250 29 336 -17 q 119 156 164 75 q 75 343 75 238 q 85 443 75 394 q 186 671 108 571 q 378 827 264 771 q 621 883 493 883 q 740 872 681 883 q 832 843 799 860 q 842 832 840 838 q 843 811 844 826 l 821 625 q 813 621 819 621 q 806 625 807 621 q 719 790 781 731 q 563 849 657 849 q 352 753 438 849 q 242 494 267 658 q 232 371 232 435 q 304 108 232 204 q 504 13 376 13 q 603 47 572 13 q 644 175 633 82 q 651 249 651 226 q 640 297 651 282 q 602 318 628 313 q 524 324 576 324 q 519 327 521 324 q 517 335 517 331 q 519 342 517 339 q 524 346 521 346 q 694 339 628 339 q 831 343 760 339 q 835 333 835 343 q 831 324 836 324 q 804 315 813 325 q 789 264 796 304 q 774 161 782 224 q 764 78 765 107 q 760 39 763 49 q 756 28 758 31 q 744 22 753 25 q 458 -17 579 -17 m 631 990 q 573 1012 594 990 q 551 1071 551 1033 q 573 1126 551 1106 q 631 1146 594 1146 q 687 1126 667 1146 q 707 1071 707 1106 q 687 1012 707 1033 q 631 990 667 990 z "},"Ḡ":{"ha":879,"x_min":75,"x_max":844,"o":"m 458 -17 q 250 29 336 -17 q 119 156 164 75 q 75 343 75 238 q 85 443 75 394 q 186 671 108 571 q 378 827 264 771 q 621 883 493 883 q 740 872 681 883 q 832 843 799 860 q 842 832 840 838 q 843 811 844 826 l 821 625 q 813 621 819 621 q 806 625 807 621 q 719 790 781 731 q 563 849 657 849 q 352 753 438 849 q 242 494 267 658 q 232 371 232 435 q 304 108 232 204 q 504 13 376 13 q 603 47 572 13 q 644 175 633 82 q 651 249 651 226 q 640 297 651 282 q 602 318 628 313 q 524 324 576 324 q 519 327 521 324 q 517 335 517 331 q 519 342 517 339 q 524 346 521 346 q 694 339 628 339 q 831 343 760 339 q 835 333 835 343 q 831 324 836 324 q 804 315 813 325 q 789 264 796 304 q 774 161 782 224 q 764 78 765 107 q 760 39 763 49 q 756 28 758 31 q 744 22 753 25 q 458 -17 579 -17 m 421 990 q 411 998 415 990 q 407 1017 407 1006 q 411 1034 407 1026 q 421 1042 415 1042 l 769 1042 q 781 1034 776 1042 q 785 1017 785 1026 q 781 998 785 1006 q 769 990 776 990 l 421 990 z "},"H":{"ha":938,"x_min":14,"x_max":978,"o":"m 18 0 q 14 8 14 0 q 18 17 14 17 q 76 24 57 17 q 104 50 94 31 q 122 113 114 69 l 236 756 q 242 800 242 792 q 225 840 242 829 q 167 851 208 851 q 164 860 164 851 q 167 868 164 868 l 229 867 q 318 864 285 864 q 410 867 351 864 l 475 868 q 478 860 478 868 q 475 851 478 851 q 418 843 438 851 q 389 815 399 835 q 372 753 379 794 l 258 113 q 253 65 253 86 q 269 26 253 36 q 326 17 285 17 q 331 8 331 17 q 326 0 331 0 q 263 1 286 0 l 169 3 l 81 1 q 18 0 58 0 m 232 471 l 764 471 l 760 432 l 228 432 l 232 471 m 519 0 q 517 8 517 0 q 519 17 517 17 q 577 24 558 17 q 605 50 596 31 q 622 113 614 69 l 735 753 q 739 799 739 781 q 724 840 739 829 q 668 851 708 851 q 664 860 664 851 q 668 868 664 868 l 731 867 q 821 864 786 864 q 911 867 856 864 l 975 868 q 978 860 978 868 q 975 851 978 851 q 919 844 938 851 q 890 817 900 836 q 872 756 881 797 l 758 113 q 754 68 754 86 q 770 27 754 38 q 828 17 786 17 q 832 8 832 17 q 828 0 832 0 q 771 1 793 0 l 676 3 l 585 1 q 519 0 561 0 z "},"Ħ":{"ha":938,"x_min":14,"x_max":978,"o":"m 18 0 q 14 8 14 0 q 18 17 14 17 q 76 24 57 17 q 104 50 94 31 q 122 113 114 69 l 236 756 q 242 800 242 792 q 225 840 242 829 q 167 851 208 851 q 164 860 164 851 q 167 868 164 868 l 229 867 q 318 864 285 864 q 410 867 351 864 l 475 868 q 478 860 478 868 q 475 851 478 851 q 418 843 438 851 q 389 815 399 835 q 372 753 379 794 l 258 113 q 253 65 253 86 q 269 26 253 36 q 326 17 285 17 q 331 8 331 17 q 326 0 331 0 q 263 1 286 0 l 169 3 l 81 1 q 18 0 58 0 m 232 342 l 764 342 l 760 303 l 228 303 l 232 342 m 232 601 l 764 601 l 760 563 l 228 563 l 232 601 m 519 0 q 517 8 517 0 q 519 17 517 17 q 577 24 558 17 q 605 50 596 31 q 622 113 614 69 l 735 753 q 739 799 739 781 q 724 840 739 829 q 668 851 708 851 q 664 860 664 851 q 668 868 664 868 l 731 867 q 821 864 786 864 q 911 867 856 864 l 975 868 q 978 860 978 868 q 975 851 978 851 q 919 844 938 851 q 890 817 900 836 q 872 756 881 797 l 758 113 q 754 68 754 86 q 770 27 754 38 q 828 17 786 17 q 832 8 832 17 q 828 0 832 0 q 771 1 793 0 l 676 3 l 585 1 q 519 0 561 0 z "},"Ḫ":{"ha":938,"x_min":14,"x_max":978,"o":"m 18 0 q 14 8 14 0 q 18 17 14 17 q 76 24 57 17 q 104 50 94 31 q 122 113 114 69 l 236 756 q 242 800 242 792 q 225 840 242 829 q 167 851 208 851 q 164 860 164 851 q 167 868 164 868 l 229 867 q 318 864 285 864 q 410 867 351 864 l 475 868 q 478 860 478 868 q 475 851 478 851 q 418 843 438 851 q 389 815 399 835 q 372 753 379 794 l 258 113 q 253 65 253 86 q 269 26 253 36 q 326 17 285 17 q 331 8 331 17 q 326 0 331 0 q 263 1 286 0 l 169 3 l 81 1 q 18 0 58 0 m 232 471 l 764 471 l 760 432 l 228 432 l 232 471 m 519 0 q 517 8 517 0 q 519 17 517 17 q 577 24 558 17 q 605 50 596 31 q 622 113 614 69 l 735 753 q 739 799 739 781 q 724 840 739 829 q 668 851 708 851 q 664 860 664 851 q 668 868 664 868 l 731 867 q 821 864 786 864 q 911 867 856 864 l 975 868 q 978 860 978 868 q 975 851 978 851 q 919 844 938 851 q 890 817 900 836 q 872 756 881 797 l 758 113 q 754 68 754 86 q 770 27 754 38 q 828 17 786 17 q 832 8 832 17 q 828 0 832 0 q 771 1 793 0 l 676 3 l 585 1 q 519 0 561 0 m 383 -274 q 286 -239 325 -274 q 247 -139 247 -204 q 281 -124 247 -131 q 342 -117 314 -117 q 363 -121 363 -117 q 392 -174 367 -156 q 450 -193 417 -193 q 502 -176 476 -193 q 544 -126 528 -160 q 553 -122 549 -122 q 564 -125 558 -122 q 568 -131 569 -128 q 486 -236 538 -199 q 383 -274 435 -274 z "},"Ĥ":{"ha":938,"x_min":14,"x_max":978,"o":"m 18 0 q 14 8 14 0 q 18 17 14 17 q 76 24 57 17 q 104 50 94 31 q 122 113 114 69 l 236 756 q 242 800 242 792 q 225 840 242 829 q 167 851 208 851 q 164 860 164 851 q 167 868 164 868 l 229 867 q 318 864 285 864 q 410 867 351 864 l 475 868 q 478 860 478 868 q 475 851 478 851 q 418 843 438 851 q 389 815 399 835 q 372 753 379 794 l 258 113 q 253 65 253 86 q 269 26 253 36 q 326 17 285 17 q 331 8 331 17 q 326 0 331 0 q 263 1 286 0 l 169 3 l 81 1 q 18 0 58 0 m 232 471 l 764 471 l 760 432 l 228 432 l 232 471 m 519 0 q 517 8 517 0 q 519 17 517 17 q 577 24 558 17 q 605 50 596 31 q 622 113 614 69 l 735 753 q 739 799 739 781 q 724 840 739 829 q 668 851 708 851 q 664 860 664 851 q 668 868 664 868 l 731 867 q 821 864 786 864 q 911 867 856 864 l 975 868 q 978 860 978 868 q 975 851 978 851 q 919 844 938 851 q 890 817 900 836 q 872 756 881 797 l 758 113 q 754 68 754 86 q 770 27 754 38 q 828 17 786 17 q 832 8 832 17 q 828 0 832 0 q 771 1 793 0 l 676 3 l 585 1 q 519 0 561 0 m 449 944 q 442 948 444 944 q 442 954 439 951 l 603 1114 q 615 1121 610 1121 q 628 1114 624 1121 l 743 954 l 744 951 q 740 946 744 949 q 733 944 736 943 l 603 997 l 450 944 l 449 944 z "},"Ḥ":{"ha":938,"x_min":14,"x_max":978,"o":"m 18 0 q 14 8 14 0 q 18 17 14 17 q 76 24 57 17 q 104 50 94 31 q 122 113 114 69 l 236 756 q 242 800 242 792 q 225 840 242 829 q 167 851 208 851 q 164 860 164 851 q 167 868 164 868 l 229 867 q 318 864 285 864 q 410 867 351 864 l 475 868 q 478 860 478 868 q 475 851 478 851 q 418 843 438 851 q 389 815 399 835 q 372 753 379 794 l 258 113 q 253 65 253 86 q 269 26 253 36 q 326 17 285 17 q 331 8 331 17 q 326 0 331 0 q 263 1 286 0 l 169 3 l 81 1 q 18 0 58 0 m 232 471 l 764 471 l 760 432 l 228 432 l 232 471 m 519 0 q 517 8 517 0 q 519 17 517 17 q 577 24 558 17 q 605 50 596 31 q 622 113 614 69 l 735 753 q 739 799 739 781 q 724 840 739 829 q 668 851 708 851 q 664 860 664 851 q 668 868 664 868 l 731 867 q 821 864 786 864 q 911 867 856 864 l 975 868 q 978 860 978 868 q 975 851 978 851 q 919 844 938 851 q 890 817 900 836 q 872 756 881 797 l 758 113 q 754 68 754 86 q 770 27 754 38 q 828 17 786 17 q 832 8 832 17 q 828 0 832 0 q 771 1 793 0 l 676 3 l 585 1 q 519 0 561 0 m 407 -282 q 349 -261 371 -282 q 328 -201 328 -240 q 349 -147 328 -168 q 407 -126 371 -126 q 463 -147 443 -126 q 483 -201 483 -168 q 463 -261 483 -240 q 407 -282 443 -282 z "},"I":{"ha":467,"x_min":31,"x_max":494,"o":"m 35 0 q 31 8 31 0 q 35 17 31 17 q 91 24 72 17 q 119 50 110 31 q 136 113 129 69 l 250 756 q 256 801 256 779 q 239 841 256 831 q 181 851 222 851 q 176 860 176 851 q 181 868 176 868 l 244 867 q 333 864 300 864 q 431 867 375 864 l 490 868 q 494 860 494 868 q 490 851 494 851 q 433 843 453 851 q 405 815 414 835 q 389 753 396 796 l 275 113 q 269 65 269 86 q 286 26 269 36 q 344 17 303 17 q 347 8 347 17 q 344 0 347 0 q 282 1 306 0 l 189 3 l 99 1 q 35 0 75 0 z "},"Ĳ":{"ha":860,"x_min":54,"x_max":940,"o":"m 385 -19 q 243 8 307 -19 q 143 78 179 35 q 107 171 107 122 q 128 239 107 213 q 193 265 150 265 q 249 238 238 265 q 263 156 261 211 q 271 79 264 108 q 304 30 278 50 q 385 10 331 10 q 536 77 481 10 q 614 278 592 144 l 699 756 q 703 799 703 781 q 683 841 703 831 q 611 851 664 851 q 606 860 606 851 q 611 868 606 868 l 688 867 q 786 864 751 864 q 876 867 821 864 l 936 868 q 940 860 940 868 q 936 851 940 851 q 882 843 900 851 q 856 815 864 835 q 840 753 847 794 l 772 358 q 636 79 740 178 q 385 -19 532 -19 m 60 374 q 54 382 54 374 q 60 390 54 390 q 121 397 101 390 q 150 424 140 404 q 167 486 160 443 l 214 756 q 219 803 219 782 q 203 842 219 832 q 142 851 186 851 q 136 860 136 851 q 142 868 136 868 l 211 867 q 304 864 269 864 q 401 867 343 864 l 467 868 q 474 860 474 868 q 467 851 474 851 q 405 843 425 851 q 375 815 385 835 q 357 753 365 796 l 310 486 q 304 440 304 447 q 321 400 304 410 q 383 390 338 390 q 389 382 389 390 q 383 374 389 374 q 318 375 342 374 l 221 376 l 129 375 q 60 374 104 374 z "},"Í":{"ha":467,"x_min":31,"x_max":590,"o":"m 35 0 q 31 8 31 0 q 35 17 31 17 q 91 24 72 17 q 119 50 110 31 q 136 113 129 69 l 250 756 q 256 801 256 779 q 239 841 256 831 q 181 851 222 851 q 176 860 176 851 q 181 868 176 868 l 244 867 q 333 864 300 864 q 431 867 375 864 l 490 868 q 494 860 494 868 q 490 851 494 851 q 433 843 453 851 q 405 815 414 835 q 389 753 396 796 l 275 113 q 269 65 269 86 q 286 26 269 36 q 344 17 303 17 q 347 8 347 17 q 344 0 347 0 q 282 1 306 0 l 189 3 l 99 1 q 35 0 75 0 m 263 942 q 256 948 257 942 q 258 957 254 954 q 375 1053 300 988 q 432 1101 429 1099 q 483 1097 440 1108 q 558 1069 525 1085 q 574 1050 590 1053 q 416 1003 488 1029 q 265 943 344 978 l 263 942 z "},"Ĭ":{"ha":467,"x_min":31,"x_max":547,"o":"m 35 0 q 31 8 31 0 q 35 17 31 17 q 91 24 72 17 q 119 50 110 31 q 136 113 129 69 l 250 756 q 256 801 256 779 q 239 841 256 831 q 181 851 222 851 q 176 860 176 851 q 181 868 176 868 l 244 867 q 333 864 300 864 q 431 867 375 864 l 490 868 q 494 860 494 868 q 490 851 494 851 q 433 843 453 851 q 405 815 414 835 q 389 753 396 796 l 275 113 q 269 65 269 86 q 286 26 269 36 q 344 17 303 17 q 347 8 347 17 q 344 0 347 0 q 282 1 306 0 l 189 3 l 99 1 q 35 0 75 0 m 361 936 q 264 971 303 936 q 225 1071 225 1006 q 258 1086 225 1079 q 319 1093 292 1093 q 340 1089 340 1093 q 369 1035 344 1054 q 428 1017 394 1017 q 480 1033 454 1017 q 522 1083 506 1050 q 531 1088 526 1088 q 542 1085 536 1088 q 546 1079 547 1082 q 464 974 515 1011 q 361 936 413 936 z "},"Ǐ":{"ha":467,"x_min":31,"x_max":524,"o":"m 35 0 q 31 8 31 0 q 35 17 31 17 q 91 24 72 17 q 119 50 110 31 q 136 113 129 69 l 250 756 q 256 801 256 779 q 239 841 256 831 q 181 851 222 851 q 176 860 176 851 q 181 868 176 868 l 244 867 q 333 864 300 864 q 431 867 375 864 l 490 868 q 494 860 494 868 q 490 851 494 851 q 433 843 453 851 q 405 815 414 835 q 389 753 396 796 l 275 113 q 269 65 269 86 q 286 26 269 36 q 344 17 303 17 q 347 8 347 17 q 344 0 347 0 q 282 1 306 0 l 189 3 l 99 1 q 35 0 75 0 m 217 1114 q 221 1120 217 1117 q 228 1122 225 1124 l 358 1068 l 513 1122 l 514 1122 q 521 1119 518 1122 q 521 1113 524 1115 l 358 951 q 344 946 353 946 q 333 951 338 946 l 217 1113 l 217 1114 z "},"Î":{"ha":467,"x_min":31,"x_max":504,"o":"m 35 0 q 31 8 31 0 q 35 17 31 17 q 91 24 72 17 q 119 50 110 31 q 136 113 129 69 l 250 756 q 256 801 256 779 q 239 841 256 831 q 181 851 222 851 q 176 860 176 851 q 181 868 176 868 l 244 867 q 333 864 300 864 q 431 867 375 864 l 490 868 q 494 860 494 868 q 490 851 494 851 q 433 843 453 851 q 405 815 414 835 q 389 753 396 796 l 275 113 q 269 65 269 86 q 286 26 269 36 q 344 17 303 17 q 347 8 347 17 q 344 0 347 0 q 282 1 306 0 l 189 3 l 99 1 q 35 0 75 0 m 208 944 q 201 948 204 944 q 201 954 199 951 l 363 1114 q 375 1121 369 1121 q 388 1114 383 1121 l 503 954 l 504 951 q 500 946 504 949 q 493 944 496 943 l 363 997 l 210 944 l 208 944 z "},"Ȉ":{"ha":467,"x_min":31,"x_max":538,"o":"m 35 0 q 31 8 31 0 q 35 17 31 17 q 91 24 72 17 q 119 50 110 31 q 136 113 129 69 l 250 756 q 256 801 256 779 q 239 841 256 831 q 181 851 222 851 q 176 860 176 851 q 181 868 176 868 l 244 867 q 333 864 300 864 q 431 867 375 864 l 490 868 q 494 860 494 868 q 490 851 494 851 q 433 843 453 851 q 405 815 414 835 q 389 753 396 796 l 275 113 q 269 65 269 86 q 286 26 269 36 q 344 17 303 17 q 347 8 347 17 q 344 0 347 0 q 282 1 306 0 l 189 3 l 99 1 q 35 0 75 0 m 522 929 q 463 975 496 953 q 400 1017 431 997 l 325 1067 q 331 1086 313 1075 q 381 1106 350 1097 q 433 1114 413 1114 q 450 1110 449 1114 q 504 1001 464 1076 l 536 942 l 538 938 q 531 929 538 932 q 522 929 525 926 m 328 929 q 263 982 294 960 q 172 1040 231 1004 l 129 1067 q 136 1086 117 1075 q 188 1106 156 1097 q 240 1114 221 1114 q 256 1110 254 1114 q 306 1008 271 1074 l 340 942 l 342 938 q 336 929 342 932 q 328 929 331 926 z "},"Ï":{"ha":467,"x_min":31,"x_max":547,"o":"m 35 0 q 31 8 31 0 q 35 17 31 17 q 91 24 72 17 q 119 50 110 31 q 136 113 129 69 l 250 756 q 256 801 256 779 q 239 841 256 831 q 181 851 222 851 q 176 860 176 851 q 181 868 176 868 l 244 867 q 333 864 300 864 q 431 867 375 864 l 490 868 q 494 860 494 868 q 490 851 494 851 q 433 843 453 851 q 405 815 414 835 q 389 753 396 796 l 275 113 q 269 65 269 86 q 286 26 269 36 q 344 17 303 17 q 347 8 347 17 q 344 0 347 0 q 282 1 306 0 l 189 3 l 99 1 q 35 0 75 0 m 264 976 q 208 997 229 976 q 188 1053 188 1017 q 208 1106 188 1086 q 264 1125 229 1125 q 316 1106 297 1125 q 335 1053 335 1086 q 317 997 335 1017 q 264 976 299 976 m 476 976 q 423 997 442 976 q 404 1053 404 1017 q 423 1105 404 1086 q 476 1124 442 1124 q 528 1105 510 1124 q 547 1053 547 1086 q 528 997 547 1017 q 476 976 510 976 z "},"İ":{"ha":467,"x_min":31,"x_max":494,"o":"m 35 0 q 31 8 31 0 q 35 17 31 17 q 91 24 72 17 q 119 50 110 31 q 136 113 129 69 l 250 756 q 256 801 256 779 q 239 841 256 831 q 181 851 222 851 q 176 860 176 851 q 181 868 176 868 l 244 867 q 333 864 300 864 q 431 867 375 864 l 490 868 q 494 860 494 868 q 490 851 494 851 q 433 843 453 851 q 405 815 414 835 q 389 753 396 796 l 275 113 q 269 65 269 86 q 286 26 269 36 q 344 17 303 17 q 347 8 347 17 q 344 0 347 0 q 282 1 306 0 l 189 3 l 99 1 q 35 0 75 0 m 369 990 q 312 1012 333 990 q 290 1071 290 1033 q 312 1126 290 1106 q 369 1146 333 1146 q 426 1126 406 1146 q 446 1071 446 1106 q 426 1012 446 1033 q 369 990 406 990 z "},"Ị":{"ha":467,"x_min":31,"x_max":494,"o":"m 35 0 q 31 8 31 0 q 35 17 31 17 q 91 24 72 17 q 119 50 110 31 q 136 113 129 69 l 250 756 q 256 801 256 779 q 239 841 256 831 q 181 851 222 851 q 176 860 176 851 q 181 868 176 868 l 244 867 q 333 864 300 864 q 431 867 375 864 l 490 868 q 494 860 494 868 q 490 851 494 851 q 433 843 453 851 q 405 815 414 835 q 389 753 396 796 l 275 113 q 269 65 269 86 q 286 26 269 36 q 344 17 303 17 q 347 8 347 17 q 344 0 347 0 q 282 1 306 0 l 189 3 l 99 1 q 35 0 75 0 m 157 -282 q 99 -261 121 -282 q 78 -201 78 -240 q 99 -147 78 -168 q 157 -126 121 -126 q 213 -147 193 -126 q 233 -201 233 -168 q 213 -261 233 -240 q 157 -282 193 -282 z "},"Ì":{"ha":467,"x_min":31,"x_max":494,"o":"m 35 0 q 31 8 31 0 q 35 17 31 17 q 91 24 72 17 q 119 50 110 31 q 136 113 129 69 l 250 756 q 256 801 256 779 q 239 841 256 831 q 181 851 222 851 q 176 860 176 851 q 181 868 176 868 l 244 867 q 333 864 300 864 q 431 867 375 864 l 490 868 q 494 860 494 868 q 490 851 494 851 q 433 843 453 851 q 405 815 414 835 q 389 753 396 796 l 275 113 q 269 65 269 86 q 286 26 269 36 q 344 17 303 17 q 347 8 347 17 q 344 0 347 0 q 282 1 306 0 l 189 3 l 99 1 q 35 0 75 0 m 461 961 q 337 1006 390 989 q 194 1050 283 1024 q 204 1067 178 1054 q 273 1092 231 1081 q 336 1103 315 1103 q 349 1100 346 1103 q 424 1024 383 1061 l 475 974 q 476 969 476 972 q 472 963 476 965 q 461 961 467 960 z "},"Ỉ":{"ha":467,"x_min":31,"x_max":494,"o":"m 35 0 q 31 8 31 0 q 35 17 31 17 q 91 24 72 17 q 119 50 110 31 q 136 113 129 69 l 250 756 q 256 801 256 779 q 239 841 256 831 q 181 851 222 851 q 176 860 176 851 q 181 868 176 868 l 244 867 q 333 864 300 864 q 431 867 375 864 l 490 868 q 494 860 494 868 q 490 851 494 851 q 433 843 453 851 q 405 815 414 835 q 389 753 396 796 l 275 113 q 269 65 269 86 q 286 26 269 36 q 344 17 303 17 q 347 8 347 17 q 344 0 347 0 q 282 1 306 0 l 189 3 l 99 1 q 35 0 75 0 m 347 907 q 340 903 347 904 q 331 907 332 903 q 328 938 328 929 q 333 977 328 960 q 347 1022 338 994 q 362 1063 357 1046 q 367 1099 367 1079 q 328 1147 367 1147 q 278 1133 308 1147 l 275 1133 q 267 1138 271 1133 q 268 1146 264 1142 q 382 1185 318 1185 q 453 1165 426 1185 q 479 1111 479 1146 q 461 1058 479 1082 q 407 997 443 1033 q 362 947 376 967 q 347 907 347 928 z "},"Ȋ":{"ha":467,"x_min":31,"x_max":532,"o":"m 35 0 q 31 8 31 0 q 35 17 31 17 q 91 24 72 17 q 119 50 110 31 q 136 113 129 69 l 250 756 q 256 801 256 779 q 239 841 256 831 q 181 851 222 851 q 176 860 176 851 q 181 868 176 868 l 244 867 q 333 864 300 864 q 431 867 375 864 l 490 868 q 494 860 494 868 q 490 851 494 851 q 433 843 453 851 q 405 815 414 835 q 389 753 396 796 l 275 113 q 269 65 269 86 q 286 26 269 36 q 344 17 303 17 q 347 8 347 17 q 344 0 347 0 q 282 1 306 0 l 189 3 l 99 1 q 35 0 75 0 m 417 956 q 388 1009 413 990 q 329 1028 363 1028 q 277 1011 303 1028 q 235 961 251 994 q 226 957 231 957 q 215 960 221 957 q 211 965 210 963 q 293 1071 242 1033 q 396 1108 344 1108 q 493 1074 454 1108 q 532 974 532 1039 q 499 958 532 965 q 438 951 465 951 q 417 956 417 951 z "},"Ī":{"ha":467,"x_min":31,"x_max":542,"o":"m 35 0 q 31 8 31 0 q 35 17 31 17 q 91 24 72 17 q 119 50 110 31 q 136 113 129 69 l 250 756 q 256 801 256 779 q 239 841 256 831 q 181 851 222 851 q 176 860 176 851 q 181 868 176 868 l 244 867 q 333 864 300 864 q 431 867 375 864 l 490 868 q 494 860 494 868 q 490 851 494 851 q 433 843 453 851 q 405 815 414 835 q 389 753 396 796 l 275 113 q 269 65 269 86 q 286 26 269 36 q 344 17 303 17 q 347 8 347 17 q 344 0 347 0 q 282 1 306 0 l 189 3 l 99 1 q 35 0 75 0 m 210 989 q 200 997 204 989 q 196 1017 196 1006 q 200 1036 196 1028 q 210 1044 204 1044 l 526 1044 q 538 1036 533 1044 q 542 1017 542 1028 q 538 997 542 1006 q 526 989 533 989 l 210 989 z "},"Į":{"ha":467,"x_min":22,"x_max":494,"o":"m 35 0 q 31 8 31 0 q 35 17 31 17 q 91 24 72 17 q 119 50 110 31 q 136 113 129 69 l 250 756 q 256 801 256 779 q 239 841 256 831 q 181 851 222 851 q 176 860 176 851 q 181 868 176 868 l 244 867 q 333 864 300 864 q 431 867 375 864 l 490 868 q 494 860 494 868 q 490 851 494 851 q 433 843 453 851 q 405 815 414 835 q 389 753 396 796 l 275 113 q 269 65 269 86 q 286 26 269 36 q 344 17 303 17 q 347 8 347 17 q 344 0 347 0 q 282 1 306 0 l 189 3 l 99 1 q 35 0 75 0 m 125 -382 q 50 -350 78 -382 q 22 -268 22 -318 q 67 -132 22 -197 q 201 19 111 -67 l 215 10 q 163 -110 181 -57 q 146 -225 146 -162 q 162 -292 146 -267 q 208 -318 178 -318 q 264 -294 240 -318 l 265 -293 q 273 -299 269 -293 q 274 -307 276 -304 q 199 -365 233 -347 q 125 -382 164 -382 z "},"Ɨ":{"ha":467,"x_min":31,"x_max":494,"o":"m 106 413 q 100 432 100 413 q 106 451 100 451 l 424 451 q 428 445 426 451 q 431 432 431 439 q 428 419 431 425 q 424 413 426 413 l 106 413 m 35 0 q 31 8 31 0 q 35 17 31 17 q 91 24 72 17 q 119 50 110 31 q 136 113 129 69 l 250 756 q 256 801 256 779 q 239 841 256 831 q 181 851 222 851 q 176 860 176 851 q 181 868 176 868 l 244 867 q 333 864 300 864 q 431 867 375 864 l 490 868 q 494 860 494 868 q 490 851 494 851 q 433 843 453 851 q 405 815 414 835 q 389 753 396 796 l 275 113 q 269 65 269 86 q 286 26 269 36 q 344 17 303 17 q 347 8 347 17 q 344 0 347 0 q 282 1 306 0 l 189 3 l 99 1 q 35 0 75 0 z "},"Ĩ":{"ha":467,"x_min":31,"x_max":567,"o":"m 35 0 q 31 8 31 0 q 35 17 31 17 q 91 24 72 17 q 119 50 110 31 q 136 113 129 69 l 250 756 q 256 801 256 779 q 239 841 256 831 q 181 851 222 851 q 176 860 176 851 q 181 868 176 868 l 244 867 q 333 864 300 864 q 431 867 375 864 l 490 868 q 494 860 494 868 q 490 851 494 851 q 433 843 453 851 q 405 815 414 835 q 389 753 396 796 l 275 113 q 269 65 269 86 q 286 26 269 36 q 344 17 303 17 q 347 8 347 17 q 344 0 347 0 q 282 1 306 0 l 189 3 l 99 1 q 35 0 75 0 m 171 953 q 165 956 168 953 q 163 963 161 960 q 226 1042 193 1010 q 300 1075 260 1075 q 365 1061 315 1075 q 418 1047 390 1053 q 468 1040 446 1040 q 516 1049 497 1040 q 556 1078 535 1057 q 558 1079 556 1079 q 564 1075 561 1079 q 565 1068 567 1071 q 497 979 524 1001 q 433 957 469 957 q 356 972 407 957 q 307 985 332 979 q 260 990 282 990 q 213 983 226 990 q 172 953 199 976 l 171 953 z "},"J":{"ha":440,"x_min":-46,"x_max":483,"o":"m -35 -268 q -42 -262 -37 -269 q -42 -253 -46 -256 q 57 -140 21 -215 q 115 56 93 -65 l 239 756 q 243 800 243 783 q 227 841 243 831 q 169 851 211 851 q 165 860 165 851 q 169 868 165 868 l 232 867 q 322 864 288 864 q 418 867 363 864 l 479 868 q 483 860 483 868 q 479 851 483 851 q 422 843 442 851 q 394 815 403 835 q 376 753 385 796 l 260 93 q 205 -83 240 -15 q 113 -192 169 -150 q -35 -268 57 -233 z "},"Ĵ":{"ha":440,"x_min":-46,"x_max":499,"o":"m -35 -268 q -42 -262 -37 -269 q -42 -253 -46 -256 q 57 -140 21 -215 q 115 56 93 -65 l 239 756 q 243 800 243 783 q 227 841 243 831 q 169 851 211 851 q 165 860 165 851 q 169 868 165 868 l 232 867 q 322 864 288 864 q 418 867 363 864 l 479 868 q 483 860 483 868 q 479 851 483 851 q 422 843 442 851 q 394 815 403 835 q 376 753 385 796 l 260 93 q 205 -83 240 -15 q 113 -192 169 -150 q -35 -268 57 -233 m 203 944 q 196 948 199 944 q 196 954 193 951 l 357 1114 q 369 1121 364 1121 q 382 1114 378 1121 l 497 954 l 499 951 q 494 946 499 949 q 488 944 490 943 l 357 997 l 204 944 l 203 944 z "},"K":{"ha":868,"x_min":14,"x_max":918,"o":"m 18 0 q 14 8 14 0 q 18 17 14 17 q 76 24 57 17 q 104 50 94 31 q 122 113 114 69 l 236 756 q 242 801 242 792 q 225 841 242 831 q 167 851 208 851 q 164 860 164 851 q 167 868 164 868 l 229 867 q 318 864 285 864 q 410 867 351 864 l 475 868 q 478 860 478 868 q 475 851 478 851 q 418 843 438 851 q 389 815 399 835 q 372 753 379 794 l 258 113 q 250 54 250 63 q 265 24 250 32 q 326 17 281 17 q 331 8 331 17 q 326 0 331 0 q 264 1 285 0 l 169 3 l 81 1 q 18 0 58 0 m 678 0 q 608 3 626 0 q 581 22 590 7 q 554 79 571 36 q 532 131 549 90 q 490 222 515 172 l 365 475 l 472 571 l 607 300 q 708 106 678 160 q 761 35 739 53 q 818 17 783 17 q 822 8 822 17 q 818 0 822 0 l 678 0 m 610 728 q 643 768 632 747 q 654 807 654 789 q 640 840 654 828 q 597 851 625 851 q 594 860 594 851 q 597 868 594 868 l 665 867 q 778 864 738 864 q 867 867 819 864 l 914 868 q 918 860 918 868 q 914 851 918 851 q 785 816 858 851 q 644 719 713 781 l 257 361 l 222 364 l 610 728 z "},"Ḱ":{"ha":868,"x_min":14,"x_max":918,"o":"m 18 0 q 14 8 14 0 q 18 17 14 17 q 76 24 57 17 q 104 50 94 31 q 122 113 114 69 l 236 756 q 242 801 242 792 q 225 841 242 831 q 167 851 208 851 q 164 860 164 851 q 167 868 164 868 l 229 867 q 318 864 285 864 q 410 867 351 864 l 475 868 q 478 860 478 868 q 475 851 478 851 q 418 843 438 851 q 389 815 399 835 q 372 753 379 794 l 258 113 q 250 54 250 63 q 265 24 250 32 q 326 17 281 17 q 331 8 331 17 q 326 0 331 0 q 264 1 285 0 l 169 3 l 81 1 q 18 0 58 0 m 678 0 q 608 3 626 0 q 581 22 590 7 q 554 79 571 36 q 532 131 549 90 q 490 222 515 172 l 365 475 l 472 571 l 607 300 q 708 106 678 160 q 761 35 739 53 q 818 17 783 17 q 822 8 822 17 q 818 0 822 0 l 678 0 m 610 728 q 643 768 632 747 q 654 807 654 789 q 640 840 654 828 q 597 851 625 851 q 594 860 594 851 q 597 868 594 868 l 665 867 q 778 864 738 864 q 867 867 819 864 l 914 868 q 918 860 918 868 q 914 851 918 851 q 785 816 858 851 q 644 719 713 781 l 257 361 l 222 364 l 610 728 m 474 942 q 467 948 468 942 q 469 957 465 954 q 586 1053 511 988 q 643 1101 640 1099 q 694 1097 651 1108 q 769 1069 736 1085 q 785 1050 801 1053 q 627 1003 699 1029 q 476 943 556 978 l 474 942 z "},"Ǩ":{"ha":868,"x_min":14,"x_max":918,"o":"m 18 0 q 14 8 14 0 q 18 17 14 17 q 76 24 57 17 q 104 50 94 31 q 122 113 114 69 l 236 756 q 242 801 242 792 q 225 841 242 831 q 167 851 208 851 q 164 860 164 851 q 167 868 164 868 l 229 867 q 318 864 285 864 q 410 867 351 864 l 475 868 q 478 860 478 868 q 475 851 478 851 q 418 843 438 851 q 389 815 399 835 q 372 753 379 794 l 258 113 q 250 54 250 63 q 265 24 250 32 q 326 17 281 17 q 331 8 331 17 q 326 0 331 0 q 264 1 285 0 l 169 3 l 81 1 q 18 0 58 0 m 678 0 q 608 3 626 0 q 581 22 590 7 q 554 79 571 36 q 532 131 549 90 q 490 222 515 172 l 365 475 l 472 571 l 607 300 q 708 106 678 160 q 761 35 739 53 q 818 17 783 17 q 822 8 822 17 q 818 0 822 0 l 678 0 m 610 728 q 643 768 632 747 q 654 807 654 789 q 640 840 654 828 q 597 851 625 851 q 594 860 594 851 q 597 868 594 868 l 665 867 q 778 864 738 864 q 867 867 819 864 l 914 868 q 918 860 918 868 q 914 851 918 851 q 785 816 858 851 q 644 719 713 781 l 257 361 l 222 364 l 610 728 m 428 1114 q 432 1120 428 1117 q 439 1122 436 1124 l 569 1068 l 724 1122 l 725 1122 q 732 1119 729 1122 q 732 1113 735 1115 l 569 951 q 556 946 564 946 q 544 951 549 946 l 428 1113 l 428 1114 z "},"Ķ":{"ha":868,"x_min":14,"x_max":918,"o":"m 18 0 q 14 8 14 0 q 18 17 14 17 q 76 24 57 17 q 104 50 94 31 q 122 113 114 69 l 236 756 q 242 801 242 792 q 225 841 242 831 q 167 851 208 851 q 164 860 164 851 q 167 868 164 868 l 229 867 q 318 864 285 864 q 410 867 351 864 l 475 868 q 478 860 478 868 q 475 851 478 851 q 418 843 438 851 q 389 815 399 835 q 372 753 379 794 l 258 113 q 250 54 250 63 q 265 24 250 32 q 326 17 281 17 q 331 8 331 17 q 326 0 331 0 q 264 1 285 0 l 169 3 l 81 1 q 18 0 58 0 m 678 0 q 608 3 626 0 q 581 22 590 7 q 554 79 571 36 q 532 131 549 90 q 490 222 515 172 l 365 475 l 472 571 l 607 300 q 708 106 678 160 q 761 35 739 53 q 818 17 783 17 q 822 8 822 17 q 818 0 822 0 l 678 0 m 610 728 q 643 768 632 747 q 654 807 654 789 q 640 840 654 828 q 597 851 625 851 q 594 860 594 851 q 597 868 594 868 l 665 867 q 778 864 738 864 q 867 867 819 864 l 914 868 q 918 860 918 868 q 914 851 918 851 q 785 816 858 851 q 644 719 713 781 l 257 361 l 222 364 l 610 728 m 332 -383 q 324 -377 326 -383 q 325 -368 321 -371 q 407 -275 397 -325 l 410 -253 q 388 -217 410 -222 l 433 -190 q 423 -236 435 -221 q 383 -251 411 -251 q 328 -228 347 -251 q 310 -175 310 -206 q 332 -119 310 -142 q 394 -96 354 -96 q 455 -119 435 -96 q 475 -182 475 -143 q 436 -295 475 -243 q 335 -382 397 -347 l 332 -383 z "},"L":{"ha":701,"x_min":17,"x_max":683,"o":"m 19 0 q 17 8 17 0 q 19 17 17 17 q 77 24 58 17 q 105 50 96 31 q 122 113 114 69 l 236 756 q 242 801 242 792 q 225 841 242 831 q 167 851 208 851 q 164 860 164 851 q 167 868 164 868 l 229 867 q 318 864 285 864 q 410 867 351 864 l 475 868 q 478 860 478 868 q 475 851 478 851 q 417 844 436 851 q 389 816 399 836 q 372 754 379 796 l 260 118 q 256 74 256 92 q 267 38 256 47 q 310 29 279 29 l 346 29 q 526 80 449 29 q 667 238 604 131 q 672 239 668 239 q 682 233 683 239 q 633 21 647 104 q 626 5 631 10 q 611 0 621 0 l 19 0 z "},"Ĺ":{"ha":701,"x_min":17,"x_max":683,"o":"m 19 0 q 17 8 17 0 q 19 17 17 17 q 77 24 58 17 q 105 50 96 31 q 122 113 114 69 l 236 756 q 242 801 242 792 q 225 841 242 831 q 167 851 208 851 q 164 860 164 851 q 167 868 164 868 l 229 867 q 318 864 285 864 q 410 867 351 864 l 475 868 q 478 860 478 868 q 475 851 478 851 q 417 844 436 851 q 389 816 399 836 q 372 754 379 796 l 260 118 q 256 74 256 92 q 267 38 256 47 q 310 29 279 29 l 346 29 q 526 80 449 29 q 667 238 604 131 q 672 239 668 239 q 682 233 683 239 q 633 21 647 104 q 626 5 631 10 q 611 0 621 0 l 19 0 m 247 942 q 240 948 242 942 q 243 957 239 954 q 360 1053 285 988 q 417 1101 414 1099 q 467 1097 425 1108 q 542 1069 510 1085 q 558 1050 575 1053 q 401 1003 472 1029 q 250 943 329 978 l 247 942 z "},"Ľ":{"ha":701,"x_min":17,"x_max":696,"o":"m 19 0 q 17 8 17 0 q 19 17 17 17 q 77 24 58 17 q 105 50 96 31 q 122 113 114 69 l 236 756 q 242 801 242 792 q 225 841 242 831 q 167 851 208 851 q 164 860 164 851 q 167 868 164 868 l 229 867 q 318 864 285 864 q 410 867 351 864 l 475 868 q 478 860 478 868 q 475 851 478 851 q 417 844 436 851 q 389 816 399 836 q 372 754 379 796 l 260 118 q 256 74 256 92 q 267 38 256 47 q 310 29 279 29 l 346 29 q 526 80 449 29 q 667 238 604 131 q 672 239 668 239 q 682 233 683 239 q 633 21 647 104 q 626 5 631 10 q 611 0 621 0 l 19 0 m 608 868 q 634 862 611 875 q 676 831 657 849 q 693 806 696 813 l 567 490 q 558 488 565 488 q 551 490 551 488 l 608 868 z "},"Ļ":{"ha":701,"x_min":17,"x_max":683,"o":"m 19 0 q 17 8 17 0 q 19 17 17 17 q 77 24 58 17 q 105 50 96 31 q 122 113 114 69 l 236 756 q 242 801 242 792 q 225 841 242 831 q 167 851 208 851 q 164 860 164 851 q 167 868 164 868 l 229 867 q 318 864 285 864 q 410 867 351 864 l 475 868 q 478 860 478 868 q 475 851 478 851 q 417 844 436 851 q 389 816 399 836 q 372 754 379 796 l 260 118 q 256 74 256 92 q 267 38 256 47 q 310 29 279 29 l 346 29 q 526 80 449 29 q 667 238 604 131 q 672 239 668 239 q 682 233 683 239 q 633 21 647 104 q 626 5 631 10 q 611 0 621 0 l 19 0 m 272 -383 q 264 -377 267 -383 q 265 -368 261 -371 q 347 -275 338 -325 l 350 -253 q 328 -217 350 -222 l 374 -190 q 363 -236 375 -221 q 324 -251 351 -251 q 269 -228 288 -251 q 250 -175 250 -206 q 272 -119 250 -142 q 335 -96 294 -96 q 395 -119 375 -96 q 415 -182 415 -143 q 376 -295 415 -243 q 275 -382 338 -347 l 272 -383 z "},"Ŀ":{"ha":701,"x_min":17,"x_max":692,"o":"m 19 0 q 17 8 17 0 q 19 17 17 17 q 77 24 58 17 q 105 50 96 31 q 122 113 114 69 l 236 756 q 242 801 242 792 q 225 841 242 831 q 167 851 208 851 q 164 860 164 851 q 167 868 164 868 l 229 867 q 318 864 285 864 q 410 867 351 864 l 475 868 q 478 860 478 868 q 475 851 478 851 q 417 844 436 851 q 389 816 399 836 q 372 754 379 796 l 260 118 q 256 74 256 92 q 267 38 256 47 q 310 29 279 29 l 346 29 q 526 80 449 29 q 667 238 604 131 q 672 239 668 239 q 682 233 683 239 q 633 21 647 104 q 626 5 631 10 q 611 0 621 0 l 19 0 m 615 374 q 558 394 579 374 q 536 453 536 415 q 558 508 536 488 q 615 528 579 528 q 672 508 651 528 q 692 453 692 488 q 672 394 692 415 q 615 374 651 374 z "},"Ḷ":{"ha":701,"x_min":17,"x_max":683,"o":"m 19 0 q 17 8 17 0 q 19 17 17 17 q 77 24 58 17 q 105 50 96 31 q 122 113 114 69 l 236 756 q 242 801 242 792 q 225 841 242 831 q 167 851 208 851 q 164 860 164 851 q 167 868 164 868 l 229 867 q 318 864 285 864 q 410 867 351 864 l 475 868 q 478 860 478 868 q 475 851 478 851 q 417 844 436 851 q 389 816 399 836 q 372 754 379 796 l 260 118 q 256 74 256 92 q 267 38 256 47 q 310 29 279 29 l 346 29 q 526 80 449 29 q 667 238 604 131 q 672 239 668 239 q 682 233 683 239 q 633 21 647 104 q 626 5 631 10 q 611 0 621 0 l 19 0 m 332 -282 q 274 -261 296 -282 q 253 -201 253 -240 q 274 -147 253 -168 q 332 -126 296 -126 q 388 -147 368 -126 q 408 -201 408 -168 q 388 -261 408 -240 q 332 -282 368 -282 z "},"Ḹ":{"ha":701,"x_min":17,"x_max":683,"o":"m 19 0 q 17 8 17 0 q 19 17 17 17 q 77 24 58 17 q 105 50 96 31 q 122 113 114 69 l 236 756 q 242 801 242 792 q 225 841 242 831 q 167 851 208 851 q 164 860 164 851 q 167 868 164 868 l 229 867 q 318 864 285 864 q 410 867 351 864 l 475 868 q 478 860 478 868 q 475 851 478 851 q 417 844 436 851 q 389 816 399 836 q 372 754 379 796 l 260 118 q 256 74 256 92 q 267 38 256 47 q 310 29 279 29 l 346 29 q 526 80 449 29 q 667 238 604 131 q 672 239 668 239 q 682 233 683 239 q 633 21 647 104 q 626 5 631 10 q 611 0 621 0 l 19 0 m 332 -282 q 274 -261 296 -282 q 253 -201 253 -240 q 274 -147 253 -168 q 332 -126 296 -126 q 388 -147 368 -126 q 408 -201 408 -168 q 388 -261 408 -240 q 332 -282 368 -282 m 144 990 q 135 998 139 990 q 131 1017 131 1006 q 135 1034 131 1026 q 144 1042 139 1042 l 493 1042 q 504 1034 500 1042 q 508 1017 508 1026 q 504 998 508 1006 q 493 990 500 990 l 144 990 z "},"Ḻ":{"ha":701,"x_min":17,"x_max":683,"o":"m 19 0 q 17 8 17 0 q 19 17 17 17 q 77 24 58 17 q 105 50 96 31 q 122 113 114 69 l 236 756 q 242 801 242 792 q 225 841 242 831 q 167 851 208 851 q 164 860 164 851 q 167 868 164 868 l 229 867 q 318 864 285 864 q 410 867 351 864 l 475 868 q 478 860 478 868 q 475 851 478 851 q 417 844 436 851 q 389 816 399 836 q 372 754 379 796 l 260 118 q 256 74 256 92 q 267 38 256 47 q 310 29 279 29 l 346 29 q 526 80 449 29 q 667 238 604 131 q 672 239 668 239 q 682 233 683 239 q 633 21 647 104 q 626 5 631 10 q 611 0 621 0 l 19 0 m 196 -171 q 186 -162 190 -171 q 182 -143 182 -154 q 186 -124 182 -132 q 196 -115 190 -115 l 513 -115 q 524 -124 519 -115 q 528 -143 528 -132 q 524 -162 528 -154 q 513 -171 519 -171 l 196 -171 z "},"Ł":{"ha":701,"x_min":17,"x_max":683,"o":"m 101 333 q 90 344 96 333 q 89 356 85 354 l 393 531 l 394 531 q 406 520 400 531 q 406 508 411 510 l 103 333 l 101 333 m 19 0 q 17 8 17 0 q 19 17 17 17 q 77 24 58 17 q 105 50 96 31 q 122 113 114 69 l 236 756 q 242 801 242 792 q 225 841 242 831 q 167 851 208 851 q 164 860 164 851 q 167 868 164 868 l 229 867 q 318 864 285 864 q 410 867 351 864 l 475 868 q 478 860 478 868 q 475 851 478 851 q 417 844 436 851 q 389 816 399 836 q 372 754 379 796 l 260 118 q 256 74 256 92 q 267 38 256 47 q 310 29 279 29 l 346 29 q 526 80 449 29 q 667 238 604 131 q 672 239 668 239 q 682 233 683 239 q 633 21 647 104 q 626 5 631 10 q 611 0 621 0 l 19 0 z "},"M":{"ha":1031,"x_min":14,"x_max":1072,"o":"m 640 0 q 636 8 636 0 q 640 17 636 17 q 699 24 679 17 q 727 50 718 31 q 743 113 736 69 l 846 806 l 879 851 l 465 10 q 456 4 463 4 q 444 11 447 4 l 289 753 q 169 851 265 851 q 165 860 165 851 q 169 868 165 868 q 203 867 190 868 l 258 865 l 340 867 q 375 868 356 868 q 399 854 390 868 q 418 796 408 840 l 547 183 l 457 54 l 836 833 q 857 858 843 849 q 888 868 871 868 q 919 867 907 868 l 978 865 l 1032 867 q 1069 868 1044 868 q 1072 860 1072 868 q 1069 851 1072 851 q 1004 833 1025 851 q 975 758 983 814 l 879 113 q 875 69 875 88 q 891 27 875 38 q 949 17 907 17 q 953 8 953 17 q 949 0 953 0 q 886 1 910 0 l 794 3 l 704 1 q 640 0 681 0 m 18 0 q 14 8 14 0 q 18 17 14 17 q 101 60 65 17 q 151 176 138 103 l 275 836 l 308 833 l 190 181 q 185 124 185 153 q 205 44 185 72 q 263 17 225 17 q 267 8 267 17 q 263 0 267 0 q 213 1 231 0 l 138 3 l 72 1 q 18 0 54 0 z "},"Ḿ":{"ha":1031,"x_min":14,"x_max":1072,"o":"m 640 0 q 636 8 636 0 q 640 17 636 17 q 699 24 679 17 q 727 50 718 31 q 743 113 736 69 l 846 806 l 879 851 l 465 10 q 456 4 463 4 q 444 11 447 4 l 289 753 q 169 851 265 851 q 165 860 165 851 q 169 868 165 868 q 203 867 190 868 l 258 865 l 340 867 q 375 868 356 868 q 399 854 390 868 q 418 796 408 840 l 547 183 l 457 54 l 836 833 q 857 858 843 849 q 888 868 871 868 q 919 867 907 868 l 978 865 l 1032 867 q 1069 868 1044 868 q 1072 860 1072 868 q 1069 851 1072 851 q 1004 833 1025 851 q 975 758 983 814 l 879 113 q 875 69 875 88 q 891 27 875 38 q 949 17 907 17 q 953 8 953 17 q 949 0 953 0 q 886 1 910 0 l 794 3 l 704 1 q 640 0 681 0 m 18 0 q 14 8 14 0 q 18 17 14 17 q 101 60 65 17 q 151 176 138 103 l 275 836 l 308 833 l 190 181 q 185 124 185 153 q 205 44 185 72 q 263 17 225 17 q 267 8 267 17 q 263 0 267 0 q 213 1 231 0 l 138 3 l 72 1 q 18 0 54 0 m 485 942 q 477 948 479 942 q 479 957 475 954 q 600 1054 522 988 q 654 1101 618 1071 q 703 1095 661 1107 q 778 1068 746 1083 q 794 1050 811 1053 q 486 942 631 1008 l 485 942 z "},"Ṁ":{"ha":1031,"x_min":14,"x_max":1072,"o":"m 640 0 q 636 8 636 0 q 640 17 636 17 q 699 24 679 17 q 727 50 718 31 q 743 113 736 69 l 846 806 l 879 851 l 465 10 q 456 4 463 4 q 444 11 447 4 l 289 753 q 169 851 265 851 q 165 860 165 851 q 169 868 165 868 q 203 867 190 868 l 258 865 l 340 867 q 375 868 356 868 q 399 854 390 868 q 418 796 408 840 l 547 183 l 457 54 l 836 833 q 857 858 843 849 q 888 868 871 868 q 919 867 907 868 l 978 865 l 1032 867 q 1069 868 1044 868 q 1072 860 1072 868 q 1069 851 1072 851 q 1004 833 1025 851 q 975 758 983 814 l 879 113 q 875 69 875 88 q 891 27 875 38 q 949 17 907 17 q 953 8 953 17 q 949 0 953 0 q 886 1 910 0 l 794 3 l 704 1 q 640 0 681 0 m 18 0 q 14 8 14 0 q 18 17 14 17 q 101 60 65 17 q 151 176 138 103 l 275 836 l 308 833 l 190 181 q 185 124 185 153 q 205 44 185 72 q 263 17 225 17 q 267 8 267 17 q 263 0 267 0 q 213 1 231 0 l 138 3 l 72 1 q 18 0 54 0 m 656 990 q 598 1012 619 990 q 576 1071 576 1033 q 598 1126 576 1106 q 656 1146 619 1146 q 712 1126 692 1146 q 732 1071 732 1106 q 712 1012 732 1033 q 656 990 692 990 z "},"Ṃ":{"ha":1031,"x_min":14,"x_max":1072,"o":"m 640 0 q 636 8 636 0 q 640 17 636 17 q 699 24 679 17 q 727 50 718 31 q 743 113 736 69 l 846 806 l 879 851 l 465 10 q 456 4 463 4 q 444 11 447 4 l 289 753 q 169 851 265 851 q 165 860 165 851 q 169 868 165 868 q 203 867 190 868 l 258 865 l 340 867 q 375 868 356 868 q 399 854 390 868 q 418 796 408 840 l 547 183 l 457 54 l 836 833 q 857 858 843 849 q 888 868 871 868 q 919 867 907 868 l 978 865 l 1032 867 q 1069 868 1044 868 q 1072 860 1072 868 q 1069 851 1072 851 q 1004 833 1025 851 q 975 758 983 814 l 879 113 q 875 69 875 88 q 891 27 875 38 q 949 17 907 17 q 953 8 953 17 q 949 0 953 0 q 886 1 910 0 l 794 3 l 704 1 q 640 0 681 0 m 18 0 q 14 8 14 0 q 18 17 14 17 q 101 60 65 17 q 151 176 138 103 l 275 836 l 308 833 l 190 181 q 185 124 185 153 q 205 44 185 72 q 263 17 225 17 q 267 8 267 17 q 263 0 267 0 q 213 1 231 0 l 138 3 l 72 1 q 18 0 54 0 m 438 -282 q 380 -261 401 -282 q 358 -201 358 -240 q 380 -147 358 -168 q 438 -126 401 -126 q 494 -147 474 -126 q 514 -201 514 -168 q 494 -261 514 -240 q 438 -282 474 -282 z "},"N":{"ha":910,"x_min":-7,"x_max":989,"o":"m 257 754 q 199 830 226 808 q 142 851 172 851 q 138 860 138 851 q 142 868 138 868 l 207 867 q 263 865 228 865 q 320 867 296 865 q 353 868 344 868 q 365 863 361 868 q 375 843 369 858 q 384 824 378 838 q 399 796 390 811 l 726 199 l 717 -10 q 709 -17 717 -14 q 693 -21 701 -21 q 676 -12 681 -21 l 257 754 m -3 0 q -7 8 -7 0 q -3 17 -7 17 q 88 56 50 17 q 138 161 126 94 l 260 836 l 297 833 l 176 161 q 174 122 174 147 q 199 44 174 72 q 268 17 224 17 q 271 8 271 17 q 268 0 271 0 q 213 1 232 0 l 133 3 l 58 1 q -3 0 38 0 m 690 75 l 806 707 q 810 749 810 731 q 785 824 810 797 q 715 851 760 851 q 711 860 711 851 q 715 868 711 868 l 765 867 q 850 864 815 864 q 925 867 875 864 l 986 868 q 989 860 989 868 q 986 851 989 851 q 895 813 933 851 q 844 707 857 774 l 717 -10 l 690 75 z "},"Ń":{"ha":910,"x_min":-7,"x_max":989,"o":"m 257 754 q 199 830 226 808 q 142 851 172 851 q 138 860 138 851 q 142 868 138 868 l 207 867 q 263 865 228 865 q 320 867 296 865 q 353 868 344 868 q 365 863 361 868 q 375 843 369 858 q 384 824 378 838 q 399 796 390 811 l 726 199 l 717 -10 q 709 -17 717 -14 q 693 -21 701 -21 q 676 -12 681 -21 l 257 754 m -3 0 q -7 8 -7 0 q -3 17 -7 17 q 88 56 50 17 q 138 161 126 94 l 260 836 l 297 833 l 176 161 q 174 122 174 147 q 199 44 174 72 q 268 17 224 17 q 271 8 271 17 q 268 0 271 0 q 213 1 232 0 l 133 3 l 58 1 q -3 0 38 0 m 690 75 l 806 707 q 810 749 810 731 q 785 824 810 797 q 715 851 760 851 q 711 860 711 851 q 715 868 711 868 l 765 867 q 850 864 815 864 q 925 867 875 864 l 986 868 q 989 860 989 868 q 986 851 989 851 q 895 813 933 851 q 844 707 857 774 l 717 -10 l 690 75 m 485 942 q 478 948 479 942 q 481 957 476 954 q 597 1053 522 988 q 654 1101 651 1099 q 705 1097 663 1108 q 780 1069 747 1085 q 796 1050 813 1053 q 638 1003 710 1029 q 488 943 567 978 l 485 942 z "},"Ň":{"ha":910,"x_min":-7,"x_max":989,"o":"m 257 754 q 199 830 226 808 q 142 851 172 851 q 138 860 138 851 q 142 868 138 868 l 207 867 q 263 865 228 865 q 320 867 296 865 q 353 868 344 868 q 365 863 361 868 q 375 843 369 858 q 384 824 378 838 q 399 796 390 811 l 726 199 l 717 -10 q 709 -17 717 -14 q 693 -21 701 -21 q 676 -12 681 -21 l 257 754 m -3 0 q -7 8 -7 0 q -3 17 -7 17 q 88 56 50 17 q 138 161 126 94 l 260 836 l 297 833 l 176 161 q 174 122 174 147 q 199 44 174 72 q 268 17 224 17 q 271 8 271 17 q 268 0 271 0 q 213 1 232 0 l 133 3 l 58 1 q -3 0 38 0 m 690 75 l 806 707 q 810 749 810 731 q 785 824 810 797 q 715 851 760 851 q 711 860 711 851 q 715 868 711 868 l 765 867 q 850 864 815 864 q 925 867 875 864 l 986 868 q 989 860 989 868 q 986 851 989 851 q 895 813 933 851 q 844 707 857 774 l 717 -10 l 690 75 m 439 1114 q 443 1120 439 1117 q 450 1122 447 1124 l 581 1068 l 735 1122 l 736 1122 q 743 1119 740 1122 q 743 1113 746 1115 l 581 951 q 567 946 575 946 q 556 951 560 946 l 439 1113 l 439 1114 z "},"Ṋ":{"ha":910,"x_min":-7,"x_max":989,"o":"m 257 754 q 199 830 226 808 q 142 851 172 851 q 138 860 138 851 q 142 868 138 868 l 207 867 q 263 865 228 865 q 320 867 296 865 q 353 868 344 868 q 365 863 361 868 q 375 843 369 858 q 384 824 378 838 q 399 796 390 811 l 726 199 l 717 -10 q 709 -17 717 -14 q 693 -21 701 -21 q 676 -12 681 -21 l 257 754 m -3 0 q -7 8 -7 0 q -3 17 -7 17 q 88 56 50 17 q 138 161 126 94 l 260 836 l 297 833 l 176 161 q 174 122 174 147 q 199 44 174 72 q 268 17 224 17 q 271 8 271 17 q 268 0 271 0 q 213 1 232 0 l 133 3 l 58 1 q -3 0 38 0 m 690 75 l 806 707 q 810 749 810 731 q 785 824 810 797 q 715 851 760 851 q 711 860 711 851 q 715 868 711 868 l 765 867 q 850 864 815 864 q 925 867 875 864 l 986 868 q 989 860 989 868 q 986 851 989 851 q 895 813 933 851 q 844 707 857 774 l 717 -10 l 690 75 m 254 -239 q 247 -235 250 -239 q 247 -229 244 -232 l 408 -69 q 421 -64 414 -64 q 433 -69 429 -64 l 549 -229 l 550 -232 q 546 -237 550 -235 q 539 -239 542 -240 l 408 -186 l 256 -239 l 254 -239 z "},"Ņ":{"ha":910,"x_min":-7,"x_max":989,"o":"m 257 754 q 199 830 226 808 q 142 851 172 851 q 138 860 138 851 q 142 868 138 868 l 207 867 q 263 865 228 865 q 320 867 296 865 q 353 868 344 868 q 365 863 361 868 q 375 843 369 858 q 384 824 378 838 q 399 796 390 811 l 726 199 l 717 -10 q 709 -17 717 -14 q 693 -21 701 -21 q 676 -12 681 -21 l 257 754 m -3 0 q -7 8 -7 0 q -3 17 -7 17 q 88 56 50 17 q 138 161 126 94 l 260 836 l 297 833 l 176 161 q 174 122 174 147 q 199 44 174 72 q 268 17 224 17 q 271 8 271 17 q 268 0 271 0 q 213 1 232 0 l 133 3 l 58 1 q -3 0 38 0 m 690 75 l 806 707 q 810 749 810 731 q 785 824 810 797 q 715 851 760 851 q 711 860 711 851 q 715 868 711 868 l 765 867 q 850 864 815 864 q 925 867 875 864 l 986 868 q 989 860 989 868 q 986 851 989 851 q 895 813 933 851 q 844 707 857 774 l 717 -10 l 690 75 m 347 -383 q 339 -377 342 -383 q 340 -368 336 -371 q 422 -275 413 -325 l 425 -253 q 403 -217 425 -222 l 449 -190 q 438 -236 450 -221 q 399 -251 426 -251 q 344 -228 363 -251 q 325 -175 325 -206 q 347 -119 325 -142 q 410 -96 369 -96 q 470 -119 450 -96 q 490 -182 490 -143 q 451 -295 490 -243 q 350 -382 413 -347 l 347 -383 z "},"Ṅ":{"ha":910,"x_min":-7,"x_max":989,"o":"m 257 754 q 199 830 226 808 q 142 851 172 851 q 138 860 138 851 q 142 868 138 868 l 207 867 q 263 865 228 865 q 320 867 296 865 q 353 868 344 868 q 365 863 361 868 q 375 843 369 858 q 384 824 378 838 q 399 796 390 811 l 726 199 l 717 -10 q 709 -17 717 -14 q 693 -21 701 -21 q 676 -12 681 -21 l 257 754 m -3 0 q -7 8 -7 0 q -3 17 -7 17 q 88 56 50 17 q 138 161 126 94 l 260 836 l 297 833 l 176 161 q 174 122 174 147 q 199 44 174 72 q 268 17 224 17 q 271 8 271 17 q 268 0 271 0 q 213 1 232 0 l 133 3 l 58 1 q -3 0 38 0 m 690 75 l 806 707 q 810 749 810 731 q 785 824 810 797 q 715 851 760 851 q 711 860 711 851 q 715 868 711 868 l 765 867 q 850 864 815 864 q 925 867 875 864 l 986 868 q 989 860 989 868 q 986 851 989 851 q 895 813 933 851 q 844 707 857 774 l 717 -10 l 690 75 m 592 990 q 534 1012 556 990 q 513 1071 513 1033 q 534 1126 513 1106 q 592 1146 556 1146 q 648 1126 628 1146 q 668 1071 668 1106 q 648 1012 668 1033 q 592 990 628 990 z "},"Ṇ":{"ha":910,"x_min":-7,"x_max":989,"o":"m 257 754 q 199 830 226 808 q 142 851 172 851 q 138 860 138 851 q 142 868 138 868 l 207 867 q 263 865 228 865 q 320 867 296 865 q 353 868 344 868 q 365 863 361 868 q 375 843 369 858 q 384 824 378 838 q 399 796 390 811 l 726 199 l 717 -10 q 709 -17 717 -14 q 693 -21 701 -21 q 676 -12 681 -21 l 257 754 m -3 0 q -7 8 -7 0 q -3 17 -7 17 q 88 56 50 17 q 138 161 126 94 l 260 836 l 297 833 l 176 161 q 174 122 174 147 q 199 44 174 72 q 268 17 224 17 q 271 8 271 17 q 268 0 271 0 q 213 1 232 0 l 133 3 l 58 1 q -3 0 38 0 m 690 75 l 806 707 q 810 749 810 731 q 785 824 810 797 q 715 851 760 851 q 711 860 711 851 q 715 868 711 868 l 765 867 q 850 864 815 864 q 925 867 875 864 l 986 868 q 989 860 989 868 q 986 851 989 851 q 895 813 933 851 q 844 707 857 774 l 717 -10 l 690 75 m 407 -282 q 349 -261 371 -282 q 328 -201 328 -240 q 349 -147 328 -168 q 407 -126 371 -126 q 463 -147 443 -126 q 483 -201 483 -168 q 463 -261 483 -240 q 407 -282 443 -282 z "},"Ǹ":{"ha":910,"x_min":-7,"x_max":989,"o":"m 257 754 q 199 830 226 808 q 142 851 172 851 q 138 860 138 851 q 142 868 138 868 l 207 867 q 263 865 228 865 q 320 867 296 865 q 353 868 344 868 q 365 863 361 868 q 375 843 369 858 q 384 824 378 838 q 399 796 390 811 l 726 199 l 717 -10 q 709 -17 717 -14 q 693 -21 701 -21 q 676 -12 681 -21 l 257 754 m -3 0 q -7 8 -7 0 q -3 17 -7 17 q 88 56 50 17 q 138 161 126 94 l 260 836 l 297 833 l 176 161 q 174 122 174 147 q 199 44 174 72 q 268 17 224 17 q 271 8 271 17 q 268 0 271 0 q 213 1 232 0 l 133 3 l 58 1 q -3 0 38 0 m 690 75 l 806 707 q 810 749 810 731 q 785 824 810 797 q 715 851 760 851 q 711 860 711 851 q 715 868 711 868 l 765 867 q 850 864 815 864 q 925 867 875 864 l 986 868 q 989 860 989 868 q 986 851 989 851 q 895 813 933 851 q 844 707 857 774 l 717 -10 l 690 75 m 696 943 q 388 1050 540 1013 q 403 1069 371 1053 q 478 1097 436 1085 q 528 1101 521 1108 l 593 1046 q 701 957 654 993 q 706 951 706 956 q 703 944 706 947 q 696 943 700 942 z "},"Ṉ":{"ha":910,"x_min":-7,"x_max":989,"o":"m 257 754 q 199 830 226 808 q 142 851 172 851 q 138 860 138 851 q 142 868 138 868 l 207 867 q 263 865 228 865 q 320 867 296 865 q 353 868 344 868 q 365 863 361 868 q 375 843 369 858 q 384 824 378 838 q 399 796 390 811 l 726 199 l 717 -10 q 709 -17 717 -14 q 693 -21 701 -21 q 676 -12 681 -21 l 257 754 m -3 0 q -7 8 -7 0 q -3 17 -7 17 q 88 56 50 17 q 138 161 126 94 l 260 836 l 297 833 l 176 161 q 174 122 174 147 q 199 44 174 72 q 268 17 224 17 q 271 8 271 17 q 268 0 271 0 q 213 1 232 0 l 133 3 l 58 1 q -3 0 38 0 m 690 75 l 806 707 q 810 749 810 731 q 785 824 810 797 q 715 851 760 851 q 711 860 711 851 q 715 868 711 868 l 765 867 q 850 864 815 864 q 925 867 875 864 l 986 868 q 989 860 989 868 q 986 851 989 851 q 895 813 933 851 q 844 707 857 774 l 717 -10 l 690 75 m 271 -171 q 261 -162 265 -171 q 257 -143 257 -154 q 261 -124 257 -132 q 271 -115 265 -115 l 588 -115 q 599 -124 594 -115 q 603 -143 603 -132 q 599 -162 603 -154 q 588 -171 594 -171 l 271 -171 z "},"Ñ":{"ha":910,"x_min":-7,"x_max":989,"o":"m 257 754 q 199 830 226 808 q 142 851 172 851 q 138 860 138 851 q 142 868 138 868 l 207 867 q 263 865 228 865 q 320 867 296 865 q 353 868 344 868 q 365 863 361 868 q 375 843 369 858 q 384 824 378 838 q 399 796 390 811 l 726 199 l 717 -10 q 709 -17 717 -14 q 693 -21 701 -21 q 676 -12 681 -21 l 257 754 m -3 0 q -7 8 -7 0 q -3 17 -7 17 q 88 56 50 17 q 138 161 126 94 l 260 836 l 297 833 l 176 161 q 174 122 174 147 q 199 44 174 72 q 268 17 224 17 q 271 8 271 17 q 268 0 271 0 q 213 1 232 0 l 133 3 l 58 1 q -3 0 38 0 m 690 75 l 806 707 q 810 749 810 731 q 785 824 810 797 q 715 851 760 851 q 711 860 711 851 q 715 868 711 868 l 765 867 q 850 864 815 864 q 925 867 875 864 l 986 868 q 989 860 989 868 q 986 851 989 851 q 895 813 933 851 q 844 707 857 774 l 717 -10 l 690 75 m 401 953 q 399 951 401 951 q 393 956 396 951 q 392 963 390 960 q 456 1042 422 1010 q 531 1075 489 1075 q 567 1069 544 1075 q 596 1061 589 1063 q 697 1040 664 1040 q 747 1049 728 1040 q 786 1078 765 1057 l 788 1078 q 794 1074 792 1078 q 796 1068 797 1071 q 727 978 754 1000 q 664 956 700 956 q 586 972 642 956 q 549 982 581 974 q 490 990 518 990 q 444 984 458 990 q 417 967 429 978 q 401 953 406 957 z "},"Ŋ":{"ha":910,"x_min":-7,"x_max":989,"o":"m 257 754 q 199 830 226 808 q 142 851 172 851 q 138 860 138 851 q 142 868 138 868 l 207 867 q 263 865 228 865 q 320 867 296 865 q 353 868 344 868 q 365 863 361 868 q 375 843 369 858 q 384 824 378 838 q 399 796 390 811 l 726 199 l 717 -10 q 709 -17 717 -14 q 693 -21 701 -21 q 676 -12 681 -21 l 257 754 m -3 0 q -7 8 -7 0 q -3 17 -7 17 q 88 56 50 17 q 138 161 126 94 l 260 836 l 297 833 l 176 161 q 174 122 174 147 q 199 44 174 72 q 268 17 224 17 q 271 8 271 17 q 268 0 271 0 q 213 1 232 0 l 133 3 l 58 1 q -3 0 38 0 m 690 75 l 806 707 q 810 749 810 731 q 785 824 810 797 q 715 851 760 851 q 711 860 711 851 q 715 868 711 868 l 765 867 q 850 864 815 864 q 925 867 875 864 l 986 868 q 989 860 989 868 q 986 851 989 851 q 895 813 933 851 q 844 707 857 774 l 717 -10 l 690 75 m 494 -265 q 399 -240 436 -265 q 363 -175 363 -215 q 385 -116 363 -136 q 443 -96 407 -96 q 490 -111 478 -96 q 513 -158 503 -126 q 528 -195 519 -183 q 558 -207 538 -207 q 681 11 647 -207 l 717 -10 q 637 -202 692 -139 q 494 -265 582 -265 z "},"O":{"ha":910,"x_min":74,"x_max":894,"o":"m 390 -17 q 220 28 292 -17 q 111 153 149 74 q 74 332 74 232 q 83 435 74 374 q 176 665 106 563 q 350 825 246 767 q 571 883 454 883 q 744 839 671 883 q 856 716 817 794 q 894 536 894 638 q 885 435 894 483 q 786 196 861 299 q 606 38 711 93 q 390 -17 501 -17 m 450 19 q 624 112 549 19 q 726 361 700 204 q 738 496 738 422 q 679 750 738 650 q 517 850 621 850 q 342 758 417 850 q 240 508 267 665 q 229 375 229 435 q 287 121 229 222 q 450 19 344 19 z "},"Ó":{"ha":910,"x_min":74,"x_max":894,"o":"m 390 -17 q 220 28 292 -17 q 111 153 149 74 q 74 332 74 232 q 83 435 74 374 q 176 665 106 563 q 350 825 246 767 q 571 883 454 883 q 744 839 671 883 q 856 716 817 794 q 894 536 894 638 q 885 435 894 483 q 786 196 861 299 q 606 38 711 93 q 390 -17 501 -17 m 450 19 q 624 112 549 19 q 726 361 700 204 q 738 496 738 422 q 679 750 738 650 q 517 850 621 850 q 342 758 417 850 q 240 508 267 665 q 229 375 229 435 q 287 121 229 222 q 450 19 344 19 m 482 942 q 475 948 476 942 q 478 957 474 954 q 594 1053 519 988 q 651 1101 649 1099 q 702 1097 660 1108 q 777 1069 744 1085 q 793 1050 810 1053 q 635 1003 707 1029 q 485 943 564 978 l 482 942 z "},"Ŏ":{"ha":910,"x_min":74,"x_max":894,"o":"m 390 -17 q 220 28 292 -17 q 111 153 149 74 q 74 332 74 232 q 83 435 74 374 q 176 665 106 563 q 350 825 246 767 q 571 883 454 883 q 744 839 671 883 q 856 716 817 794 q 894 536 894 638 q 885 435 894 483 q 786 196 861 299 q 606 38 711 93 q 390 -17 501 -17 m 450 19 q 624 112 549 19 q 726 361 700 204 q 738 496 738 422 q 679 750 738 650 q 517 850 621 850 q 342 758 417 850 q 240 508 267 665 q 229 375 229 435 q 287 121 229 222 q 450 19 344 19 m 581 936 q 483 971 522 936 q 444 1071 444 1006 q 478 1086 444 1079 q 539 1093 511 1093 q 560 1089 560 1093 q 589 1035 564 1054 q 647 1017 614 1017 q 699 1033 674 1017 q 742 1083 725 1050 q 750 1088 746 1088 q 761 1085 756 1088 q 765 1079 767 1082 q 683 974 735 1011 q 581 936 632 936 z "},"Ǒ":{"ha":910,"x_min":74,"x_max":894,"o":"m 390 -17 q 220 28 292 -17 q 111 153 149 74 q 74 332 74 232 q 83 435 74 374 q 176 665 106 563 q 350 825 246 767 q 571 883 454 883 q 744 839 671 883 q 856 716 817 794 q 894 536 894 638 q 885 435 894 483 q 786 196 861 299 q 606 38 711 93 q 390 -17 501 -17 m 450 19 q 624 112 549 19 q 726 361 700 204 q 738 496 738 422 q 679 750 738 650 q 517 850 621 850 q 342 758 417 850 q 240 508 267 665 q 229 375 229 435 q 287 121 229 222 q 450 19 344 19 m 436 1114 q 440 1120 436 1117 q 447 1122 444 1124 l 578 1068 l 732 1122 l 733 1122 q 740 1119 738 1122 q 740 1113 743 1115 l 578 951 q 564 946 572 946 q 553 951 557 946 l 436 1113 l 436 1114 z "},"Ô":{"ha":910,"x_min":74,"x_max":894,"o":"m 390 -17 q 220 28 292 -17 q 111 153 149 74 q 74 332 74 232 q 83 435 74 374 q 176 665 106 563 q 350 825 246 767 q 571 883 454 883 q 744 839 671 883 q 856 716 817 794 q 894 536 894 638 q 885 435 894 483 q 786 196 861 299 q 606 38 711 93 q 390 -17 501 -17 m 450 19 q 624 112 549 19 q 726 361 700 204 q 738 496 738 422 q 679 750 738 650 q 517 850 621 850 q 342 758 417 850 q 240 508 267 665 q 229 375 229 435 q 287 121 229 222 q 450 19 344 19 m 428 944 q 421 948 424 944 q 421 954 418 951 l 582 1114 q 594 1121 589 1121 q 607 1114 603 1121 l 722 954 l 724 951 q 719 946 724 949 q 713 944 715 943 l 582 997 l 429 944 l 428 944 z "},"Ố":{"ha":910,"x_min":74,"x_max":924,"o":"m 390 -17 q 220 28 292 -17 q 111 153 149 74 q 74 332 74 232 q 83 435 74 374 q 176 665 106 563 q 350 825 246 767 q 571 883 454 883 q 744 839 671 883 q 856 716 817 794 q 894 536 894 638 q 885 435 894 483 q 786 196 861 299 q 606 38 711 93 q 390 -17 501 -17 m 450 19 q 624 112 549 19 q 726 361 700 204 q 738 496 738 422 q 679 750 738 650 q 517 850 621 850 q 342 758 417 850 q 240 508 267 665 q 229 375 229 435 q 287 121 229 222 q 450 19 344 19 m 426 931 q 419 934 422 931 q 419 940 417 938 l 581 1100 q 593 1107 588 1107 q 606 1100 601 1107 l 721 940 l 722 938 q 718 932 722 935 q 711 931 714 929 l 581 983 l 428 931 l 426 931 m 676 1018 q 670 1024 672 1018 q 671 1035 668 1031 q 776 1179 739 1121 q 788 1183 779 1183 q 843 1172 807 1183 q 901 1147 879 1160 q 910 1128 924 1133 q 679 1019 792 1088 l 676 1018 z "},"Ộ":{"ha":910,"x_min":74,"x_max":894,"o":"m 390 -17 q 220 28 292 -17 q 111 153 149 74 q 74 332 74 232 q 83 435 74 374 q 176 665 106 563 q 350 825 246 767 q 571 883 454 883 q 744 839 671 883 q 856 716 817 794 q 894 536 894 638 q 885 435 894 483 q 786 196 861 299 q 606 38 711 93 q 390 -17 501 -17 m 450 19 q 624 112 549 19 q 726 361 700 204 q 738 496 738 422 q 679 750 738 650 q 517 850 621 850 q 342 758 417 850 q 240 508 267 665 q 229 375 229 435 q 287 121 229 222 q 450 19 344 19 m 397 -282 q 340 -261 361 -282 q 318 -201 318 -240 q 340 -147 318 -168 q 397 -126 361 -126 q 453 -147 433 -126 q 474 -201 474 -168 q 453 -261 474 -240 q 397 -282 433 -282 m 428 944 q 421 948 424 944 q 421 954 418 951 l 582 1114 q 594 1121 589 1121 q 607 1114 603 1121 l 722 954 l 724 951 q 719 946 724 949 q 713 944 715 943 l 582 997 l 429 944 l 428 944 z "},"Ồ":{"ha":910,"x_min":74,"x_max":894,"o":"m 390 -17 q 220 28 292 -17 q 111 153 149 74 q 74 332 74 232 q 83 435 74 374 q 176 665 106 563 q 350 825 246 767 q 571 883 454 883 q 744 839 671 883 q 856 716 817 794 q 894 536 894 638 q 885 435 894 483 q 786 196 861 299 q 606 38 711 93 q 390 -17 501 -17 m 450 19 q 624 112 549 19 q 726 361 700 204 q 738 496 738 422 q 679 750 738 650 q 517 850 621 850 q 342 758 417 850 q 240 508 267 665 q 229 375 229 435 q 287 121 229 222 q 450 19 344 19 m 425 917 q 418 920 421 917 q 418 926 415 924 l 579 1086 q 592 1093 586 1093 q 604 1086 600 1093 l 719 926 l 721 924 q 717 918 721 921 q 710 917 713 915 l 579 969 l 426 917 l 425 917 m 800 993 q 712 1053 753 1029 q 617 1101 671 1078 q 631 1120 604 1107 q 697 1145 657 1133 q 756 1157 736 1157 q 767 1153 765 1157 q 818 1008 786 1079 l 818 1007 q 812 997 818 1001 q 800 993 806 992 z "},"Ổ":{"ha":910,"x_min":74,"x_max":894,"o":"m 390 -17 q 220 28 292 -17 q 111 153 149 74 q 74 332 74 232 q 83 435 74 374 q 176 665 106 563 q 350 825 246 767 q 571 883 454 883 q 744 839 671 883 q 856 716 817 794 q 894 536 894 638 q 885 435 894 483 q 786 196 861 299 q 606 38 711 93 q 390 -17 501 -17 m 450 19 q 624 112 549 19 q 726 361 700 204 q 738 496 738 422 q 679 750 738 650 q 517 850 621 850 q 342 758 417 850 q 240 508 267 665 q 229 375 229 435 q 287 121 229 222 q 450 19 344 19 m 424 917 q 417 920 419 917 q 417 926 414 924 l 578 1086 q 590 1093 585 1093 q 603 1086 599 1093 l 718 926 l 719 924 q 715 918 719 921 q 708 917 711 915 l 578 969 l 425 917 l 424 917 m 682 996 q 686 1028 681 1014 q 706 1068 692 1043 q 721 1097 714 1082 q 728 1126 728 1113 q 717 1151 728 1143 q 692 1160 707 1160 q 667 1156 678 1160 l 664 1154 q 658 1159 660 1154 q 658 1167 656 1164 q 749 1192 704 1192 q 798 1177 779 1192 q 817 1140 817 1163 q 800 1100 817 1118 q 753 1058 783 1082 q 713 1025 726 1039 q 697 996 699 1011 q 689 992 696 993 q 682 996 682 992 z "},"Ỗ":{"ha":910,"x_min":74,"x_max":894,"o":"m 390 -17 q 220 28 292 -17 q 111 153 149 74 q 74 332 74 232 q 83 435 74 374 q 176 665 106 563 q 350 825 246 767 q 571 883 454 883 q 744 839 671 883 q 856 716 817 794 q 894 536 894 638 q 885 435 894 483 q 786 196 861 299 q 606 38 711 93 q 390 -17 501 -17 m 450 19 q 624 112 549 19 q 726 361 700 204 q 738 496 738 422 q 679 750 738 650 q 517 850 621 850 q 342 758 417 850 q 240 508 267 665 q 229 375 229 435 q 287 121 229 222 q 450 19 344 19 m 417 917 q 410 920 413 917 q 410 926 407 924 l 571 1086 q 583 1093 578 1093 q 596 1086 592 1093 l 711 926 l 713 924 q 708 918 713 921 q 701 917 704 915 l 571 969 l 418 917 l 417 917 m 410 1090 q 403 1094 407 1090 q 401 1100 400 1097 q 465 1180 432 1147 q 539 1213 499 1213 q 604 1199 554 1213 q 657 1184 629 1190 q 707 1178 685 1178 q 755 1186 736 1178 q 794 1215 774 1194 q 797 1217 794 1217 q 803 1213 800 1217 q 804 1206 806 1208 q 735 1117 763 1139 q 672 1094 708 1094 q 594 1110 646 1094 q 546 1122 571 1117 q 499 1128 521 1128 q 451 1121 465 1128 q 411 1090 438 1114 l 410 1090 z "},"Ȍ":{"ha":910,"x_min":74,"x_max":894,"o":"m 390 -17 q 220 28 292 -17 q 111 153 149 74 q 74 332 74 232 q 83 435 74 374 q 176 665 106 563 q 350 825 246 767 q 571 883 454 883 q 744 839 671 883 q 856 716 817 794 q 894 536 894 638 q 885 435 894 483 q 786 196 861 299 q 606 38 711 93 q 390 -17 501 -17 m 450 19 q 624 112 549 19 q 726 361 700 204 q 738 496 738 422 q 679 750 738 650 q 517 850 621 850 q 342 758 417 850 q 240 508 267 665 q 229 375 229 435 q 287 121 229 222 q 450 19 344 19 m 742 929 q 683 975 715 953 q 619 1017 650 997 l 544 1067 q 551 1086 532 1075 q 601 1106 569 1097 q 653 1114 632 1114 q 669 1110 668 1114 q 724 1001 683 1076 l 756 942 l 757 938 q 751 929 757 932 q 742 929 744 926 m 547 929 q 482 982 514 960 q 392 1040 450 1004 l 349 1067 q 356 1086 336 1075 q 408 1106 375 1097 q 460 1114 440 1114 q 475 1110 474 1114 q 525 1008 490 1074 l 560 942 l 561 938 q 556 929 561 932 q 547 929 550 926 z "},"Ö":{"ha":910,"x_min":74,"x_max":894,"o":"m 390 -17 q 220 28 292 -17 q 111 153 149 74 q 74 332 74 232 q 83 435 74 374 q 176 665 106 563 q 350 825 246 767 q 571 883 454 883 q 744 839 671 883 q 856 716 817 794 q 894 536 894 638 q 885 435 894 483 q 786 196 861 299 q 606 38 711 93 q 390 -17 501 -17 m 450 19 q 624 112 549 19 q 726 361 700 204 q 738 496 738 422 q 679 750 738 650 q 517 850 621 850 q 342 758 417 850 q 240 508 267 665 q 229 375 229 435 q 287 121 229 222 q 450 19 344 19 m 697 976 q 642 997 661 976 q 622 1053 622 1017 q 642 1105 622 1086 q 697 1124 663 1124 q 749 1105 731 1124 q 768 1053 768 1086 q 749 997 768 1017 q 697 976 731 976 m 476 976 q 421 997 440 976 q 401 1053 401 1017 q 422 1105 401 1086 q 476 1124 442 1124 q 528 1105 510 1124 q 547 1053 547 1086 q 528 997 547 1017 q 476 976 510 976 z "},"Ọ":{"ha":910,"x_min":74,"x_max":894,"o":"m 390 -17 q 220 28 292 -17 q 111 153 149 74 q 74 332 74 232 q 83 435 74 374 q 176 665 106 563 q 350 825 246 767 q 571 883 454 883 q 744 839 671 883 q 856 716 817 794 q 894 536 894 638 q 885 435 894 483 q 786 196 861 299 q 606 38 711 93 q 390 -17 501 -17 m 450 19 q 624 112 549 19 q 726 361 700 204 q 738 496 738 422 q 679 750 738 650 q 517 850 621 850 q 342 758 417 850 q 240 508 267 665 q 229 375 229 435 q 287 121 229 222 q 450 19 344 19 m 397 -282 q 340 -261 361 -282 q 318 -201 318 -240 q 340 -147 318 -168 q 397 -126 361 -126 q 453 -147 433 -126 q 474 -201 474 -168 q 453 -261 474 -240 q 397 -282 433 -282 z "},"Ò":{"ha":910,"x_min":74,"x_max":894,"o":"m 390 -17 q 220 28 292 -17 q 111 153 149 74 q 74 332 74 232 q 83 435 74 374 q 176 665 106 563 q 350 825 246 767 q 571 883 454 883 q 744 839 671 883 q 856 716 817 794 q 894 536 894 638 q 885 435 894 483 q 786 196 861 299 q 606 38 711 93 q 390 -17 501 -17 m 450 19 q 624 112 549 19 q 726 361 700 204 q 738 496 738 422 q 679 750 738 650 q 517 850 621 850 q 342 758 417 850 q 240 508 267 665 q 229 375 229 435 q 287 121 229 222 q 450 19 344 19 m 681 961 q 556 1006 610 989 q 414 1050 503 1024 q 424 1067 397 1054 q 492 1092 450 1081 q 556 1103 535 1103 q 568 1100 565 1103 q 643 1024 603 1061 l 694 974 q 696 969 696 972 q 691 963 696 965 q 681 961 686 960 z "},"Ỏ":{"ha":910,"x_min":74,"x_max":894,"o":"m 390 -17 q 220 28 292 -17 q 111 153 149 74 q 74 332 74 232 q 83 435 74 374 q 176 665 106 563 q 350 825 246 767 q 571 883 454 883 q 744 839 671 883 q 856 716 817 794 q 894 536 894 638 q 885 435 894 483 q 786 196 861 299 q 606 38 711 93 q 390 -17 501 -17 m 450 19 q 624 112 549 19 q 726 361 700 204 q 738 496 738 422 q 679 750 738 650 q 517 850 621 850 q 342 758 417 850 q 240 508 267 665 q 229 375 229 435 q 287 121 229 222 q 450 19 344 19 m 567 907 q 559 903 567 904 q 550 907 551 903 q 547 938 547 929 q 552 977 547 960 q 567 1022 557 994 q 581 1063 576 1046 q 586 1099 586 1079 q 547 1147 586 1147 q 497 1133 528 1147 l 494 1133 q 487 1138 490 1133 q 488 1146 483 1142 q 601 1185 538 1185 q 672 1165 646 1185 q 699 1111 699 1146 q 681 1058 699 1082 q 626 997 663 1033 q 581 947 596 967 q 567 907 567 928 z "},"Ơ":{"ha":910,"x_min":74,"x_max":1040,"o":"m 390 -17 q 220 28 292 -17 q 111 153 149 74 q 74 332 74 232 q 83 435 74 374 q 176 665 106 563 q 350 825 246 767 q 571 883 454 883 q 744 839 671 883 q 856 716 817 794 q 894 536 894 638 q 885 435 894 483 q 786 196 861 299 q 606 38 711 93 q 390 -17 501 -17 m 450 19 q 624 112 549 19 q 726 361 700 204 q 738 496 738 422 q 679 750 738 650 q 517 850 621 850 q 342 758 417 850 q 240 508 267 665 q 229 375 229 435 q 287 121 229 222 q 450 19 344 19 m 796 757 q 913 847 913 797 q 903 873 913 857 q 894 904 894 889 q 921 967 894 944 q 981 990 947 990 q 1026 969 1013 990 q 1036 918 1040 947 q 962 815 1024 854 q 797 738 900 775 l 796 757 z "},"Ớ":{"ha":910,"x_min":74,"x_max":1040,"o":"m 390 -17 q 220 28 292 -17 q 111 153 149 74 q 74 332 74 232 q 83 435 74 374 q 176 665 106 563 q 350 825 246 767 q 571 883 454 883 q 744 839 671 883 q 856 716 817 794 q 894 536 894 638 q 885 435 894 483 q 786 196 861 299 q 606 38 711 93 q 390 -17 501 -17 m 450 19 q 624 112 549 19 q 726 361 700 204 q 738 496 738 422 q 679 750 738 650 q 517 850 621 850 q 342 758 417 850 q 240 508 267 665 q 229 375 229 435 q 287 121 229 222 q 450 19 344 19 m 796 757 q 913 847 913 797 q 903 873 913 857 q 894 904 894 889 q 921 967 894 944 q 981 990 947 990 q 1026 969 1013 990 q 1036 918 1040 947 q 962 815 1024 854 q 797 738 900 775 l 796 757 m 440 942 q 433 948 435 942 q 435 957 431 954 q 556 1054 478 988 q 610 1101 574 1071 q 659 1095 617 1107 q 734 1068 701 1083 q 750 1050 767 1053 q 442 942 586 1008 l 440 942 z "},"Ợ":{"ha":910,"x_min":74,"x_max":1040,"o":"m 390 -17 q 220 28 292 -17 q 111 153 149 74 q 74 332 74 232 q 83 435 74 374 q 176 665 106 563 q 350 825 246 767 q 571 883 454 883 q 744 839 671 883 q 856 716 817 794 q 894 536 894 638 q 885 435 894 483 q 786 196 861 299 q 606 38 711 93 q 390 -17 501 -17 m 450 19 q 624 112 549 19 q 726 361 700 204 q 738 496 738 422 q 679 750 738 650 q 517 850 621 850 q 342 758 417 850 q 240 508 267 665 q 229 375 229 435 q 287 121 229 222 q 450 19 344 19 m 796 757 q 913 847 913 797 q 903 873 913 857 q 894 904 894 889 q 921 967 894 944 q 981 990 947 990 q 1026 969 1013 990 q 1036 918 1040 947 q 962 815 1024 854 q 797 738 900 775 l 796 757 m 378 -282 q 320 -261 342 -282 q 299 -201 299 -240 q 320 -147 299 -168 q 378 -126 342 -126 q 434 -147 414 -126 q 454 -201 454 -168 q 434 -261 454 -240 q 378 -282 414 -282 z "},"Ờ":{"ha":910,"x_min":74,"x_max":1040,"o":"m 390 -17 q 220 28 292 -17 q 111 153 149 74 q 74 332 74 232 q 83 435 74 374 q 176 665 106 563 q 350 825 246 767 q 571 883 454 883 q 744 839 671 883 q 856 716 817 794 q 894 536 894 638 q 885 435 894 483 q 786 196 861 299 q 606 38 711 93 q 390 -17 501 -17 m 450 19 q 624 112 549 19 q 726 361 700 204 q 738 496 738 422 q 679 750 738 650 q 517 850 621 850 q 342 758 417 850 q 240 508 267 665 q 229 375 229 435 q 287 121 229 222 q 450 19 344 19 m 796 757 q 913 847 913 797 q 903 873 913 857 q 894 904 894 889 q 921 967 894 944 q 981 990 947 990 q 1026 969 1013 990 q 1036 918 1040 947 q 962 815 1024 854 q 797 738 900 775 l 796 757 m 715 943 q 407 1050 560 1013 q 423 1069 390 1053 q 498 1097 456 1085 q 547 1101 540 1108 l 613 1046 q 721 957 674 993 q 725 951 725 956 q 722 944 725 947 q 715 943 719 942 z "},"Ở":{"ha":910,"x_min":74,"x_max":1040,"o":"m 390 -17 q 220 28 292 -17 q 111 153 149 74 q 74 332 74 232 q 83 435 74 374 q 176 665 106 563 q 350 825 246 767 q 571 883 454 883 q 744 839 671 883 q 856 716 817 794 q 894 536 894 638 q 885 435 894 483 q 786 196 861 299 q 606 38 711 93 q 390 -17 501 -17 m 450 19 q 624 112 549 19 q 726 361 700 204 q 738 496 738 422 q 679 750 738 650 q 517 850 621 850 q 342 758 417 850 q 240 508 267 665 q 229 375 229 435 q 287 121 229 222 q 450 19 344 19 m 796 757 q 913 847 913 797 q 903 873 913 857 q 894 904 894 889 q 921 967 894 944 q 981 990 947 990 q 1026 969 1013 990 q 1036 918 1040 947 q 962 815 1024 854 q 797 738 900 775 l 796 757 m 589 907 q 581 903 589 904 q 572 907 574 903 q 569 938 569 929 q 574 977 569 960 q 589 1022 579 994 q 603 1063 599 1046 q 608 1099 608 1079 q 569 1147 608 1147 q 519 1133 550 1147 l 517 1133 q 509 1138 513 1133 q 510 1146 506 1142 q 624 1185 560 1185 q 694 1165 668 1185 q 721 1111 721 1146 q 703 1058 721 1082 q 649 997 685 1033 q 603 947 618 967 q 589 907 589 928 z "},"Ỡ":{"ha":910,"x_min":74,"x_max":1040,"o":"m 390 -17 q 220 28 292 -17 q 111 153 149 74 q 74 332 74 232 q 83 435 74 374 q 176 665 106 563 q 350 825 246 767 q 571 883 454 883 q 744 839 671 883 q 856 716 817 794 q 894 536 894 638 q 885 435 894 483 q 786 196 861 299 q 606 38 711 93 q 390 -17 501 -17 m 450 19 q 624 112 549 19 q 726 361 700 204 q 738 496 738 422 q 679 750 738 650 q 517 850 621 850 q 342 758 417 850 q 240 508 267 665 q 229 375 229 435 q 287 121 229 222 q 450 19 344 19 m 796 757 q 913 847 913 797 q 903 873 913 857 q 894 904 894 889 q 921 967 894 944 q 981 990 947 990 q 1026 969 1013 990 q 1036 918 1040 947 q 962 815 1024 854 q 797 738 900 775 l 796 757 m 421 953 q 418 951 421 951 q 413 956 415 951 q 411 963 410 960 q 475 1042 442 1010 q 550 1075 508 1075 q 586 1069 564 1075 q 615 1061 608 1063 q 717 1040 683 1040 q 766 1049 747 1040 q 806 1078 785 1057 l 807 1078 q 814 1074 811 1078 q 815 1068 817 1071 q 747 978 774 1000 q 683 956 719 956 q 606 972 661 956 q 569 982 600 974 q 510 990 538 990 q 463 984 478 990 q 437 967 449 978 q 421 953 425 957 z "},"Ő":{"ha":910,"x_min":74,"x_max":894,"o":"m 390 -17 q 220 28 292 -17 q 111 153 149 74 q 74 332 74 232 q 83 435 74 374 q 176 665 106 563 q 350 825 246 767 q 571 883 454 883 q 744 839 671 883 q 856 716 817 794 q 894 536 894 638 q 885 435 894 483 q 786 196 861 299 q 606 38 711 93 q 390 -17 501 -17 m 450 19 q 624 112 549 19 q 726 361 700 204 q 738 496 738 422 q 679 750 738 650 q 517 850 621 850 q 342 758 417 850 q 240 508 267 665 q 229 375 229 435 q 287 121 229 222 q 450 19 344 19 m 381 925 q 375 931 376 925 q 376 942 374 938 l 429 1001 q 518 1110 486 1063 q 535 1115 521 1115 q 587 1107 556 1115 q 636 1088 618 1099 q 643 1067 654 1076 q 594 1042 617 1053 q 554 1021 572 1031 q 383 926 443 969 l 381 925 m 575 925 q 570 931 572 925 q 572 942 568 938 q 628 1006 568 938 q 713 1110 682 1064 q 728 1114 715 1114 q 781 1106 749 1114 q 831 1086 813 1097 q 839 1067 850 1075 q 685 992 739 1019 q 578 926 632 965 l 575 925 z "},"Ȏ":{"ha":910,"x_min":74,"x_max":894,"o":"m 390 -17 q 220 28 292 -17 q 111 153 149 74 q 74 332 74 232 q 83 435 74 374 q 176 665 106 563 q 350 825 246 767 q 571 883 454 883 q 744 839 671 883 q 856 716 817 794 q 894 536 894 638 q 885 435 894 483 q 786 196 861 299 q 606 38 711 93 q 390 -17 501 -17 m 450 19 q 624 112 549 19 q 726 361 700 204 q 738 496 738 422 q 679 750 738 650 q 517 850 621 850 q 342 758 417 850 q 240 508 267 665 q 229 375 229 435 q 287 121 229 222 q 450 19 344 19 m 636 956 q 607 1009 632 990 q 549 1028 582 1028 q 497 1011 522 1028 q 454 961 471 994 q 446 957 450 957 q 435 960 440 957 q 431 965 429 963 q 513 1071 461 1033 q 615 1108 564 1108 q 713 1074 674 1108 q 751 974 751 1039 q 718 958 751 965 q 657 951 685 951 q 636 956 636 951 z "},"Ō":{"ha":910,"x_min":74,"x_max":894,"o":"m 390 -17 q 220 28 292 -17 q 111 153 149 74 q 74 332 74 232 q 83 435 74 374 q 176 665 106 563 q 350 825 246 767 q 571 883 454 883 q 744 839 671 883 q 856 716 817 794 q 894 536 894 638 q 885 435 894 483 q 786 196 861 299 q 606 38 711 93 q 390 -17 501 -17 m 450 19 q 624 112 549 19 q 726 361 700 204 q 738 496 738 422 q 679 750 738 650 q 517 850 621 850 q 342 758 417 850 q 240 508 267 665 q 229 375 229 435 q 287 121 229 222 q 450 19 344 19 m 429 989 q 419 997 424 989 q 415 1017 415 1006 q 419 1036 415 1028 q 429 1044 424 1044 l 746 1044 q 757 1036 753 1044 q 761 1017 761 1028 q 757 997 761 1006 q 746 989 753 989 l 429 989 z "},"Ǫ":{"ha":910,"x_min":74,"x_max":894,"o":"m 390 -17 q 220 28 292 -17 q 111 153 149 74 q 74 332 74 232 q 83 435 74 374 q 176 665 106 563 q 350 825 246 767 q 571 883 454 883 q 744 839 671 883 q 856 716 817 794 q 894 536 894 638 q 885 435 894 483 q 786 196 861 299 q 606 38 711 93 q 390 -17 501 -17 m 450 19 q 624 112 549 19 q 726 361 700 204 q 738 496 738 422 q 679 750 738 650 q 517 850 621 850 q 342 758 417 850 q 240 508 267 665 q 229 375 229 435 q 287 121 229 222 q 450 19 344 19 m 411 -382 q 324 -349 356 -382 q 292 -265 292 -317 q 347 -131 292 -194 q 514 19 401 -68 l 526 10 q 443 -111 471 -58 q 415 -228 415 -164 q 433 -296 415 -269 q 485 -322 450 -322 q 550 -294 519 -322 l 551 -293 q 559 -299 556 -293 q 560 -307 563 -304 q 485 -365 519 -347 q 411 -382 450 -382 z "},"Ø":{"ha":910,"x_min":32,"x_max":932,"o":"m 64 -21 q 44 -8 56 -21 q 38 10 32 4 l 899 882 l 900 883 q 919 872 907 883 q 928 856 932 860 l 65 -19 l 64 -21 m 390 -17 q 220 28 292 -17 q 111 153 149 74 q 74 332 74 232 q 83 435 74 374 q 176 665 106 563 q 350 825 246 767 q 571 883 454 883 q 744 839 671 883 q 856 716 817 794 q 894 536 894 638 q 885 435 894 483 q 786 196 861 299 q 606 38 711 93 q 390 -17 501 -17 m 450 19 q 624 112 549 19 q 726 361 700 204 q 738 496 738 422 q 679 750 738 650 q 517 850 621 850 q 342 758 417 850 q 240 508 267 665 q 229 375 229 435 q 287 121 229 222 q 450 19 344 19 z "},"Ǿ":{"ha":910,"x_min":32,"x_max":932,"o":"m 64 -21 q 44 -8 56 -21 q 38 10 32 4 l 899 882 l 900 883 q 919 872 907 883 q 928 856 932 860 l 65 -19 l 64 -21 m 390 -17 q 220 28 292 -17 q 111 153 149 74 q 74 332 74 232 q 83 435 74 374 q 176 665 106 563 q 350 825 246 767 q 571 883 454 883 q 744 839 671 883 q 856 716 817 794 q 894 536 894 638 q 885 435 894 483 q 786 196 861 299 q 606 38 711 93 q 390 -17 501 -17 m 450 19 q 624 112 549 19 q 726 361 700 204 q 738 496 738 422 q 679 750 738 650 q 517 850 621 850 q 342 758 417 850 q 240 508 267 665 q 229 375 229 435 q 287 121 229 222 q 450 19 344 19 m 476 942 q 469 948 471 942 q 472 957 468 954 q 589 1053 514 988 q 646 1101 643 1099 q 697 1097 654 1108 q 772 1069 739 1085 q 788 1050 804 1053 q 630 1003 701 1029 q 479 943 558 978 l 476 942 z "},"Õ":{"ha":910,"x_min":74,"x_max":894,"o":"m 390 -17 q 220 28 292 -17 q 111 153 149 74 q 74 332 74 232 q 83 435 74 374 q 176 665 106 563 q 350 825 246 767 q 571 883 454 883 q 744 839 671 883 q 856 716 817 794 q 894 536 894 638 q 885 435 894 483 q 786 196 861 299 q 606 38 711 93 q 390 -17 501 -17 m 450 19 q 624 112 549 19 q 726 361 700 204 q 738 496 738 422 q 679 750 738 650 q 517 850 621 850 q 342 758 417 850 q 240 508 267 665 q 229 375 229 435 q 287 121 229 222 q 450 19 344 19 m 399 953 q 396 951 399 951 q 390 956 393 951 q 389 963 388 960 q 453 1042 419 1010 q 528 1075 486 1075 q 564 1069 542 1075 q 593 1061 586 1063 q 694 1040 661 1040 q 744 1049 725 1040 q 783 1078 763 1057 l 785 1078 q 792 1074 789 1078 q 793 1068 794 1071 q 724 978 751 1000 q 661 956 697 956 q 583 972 639 956 q 547 982 578 974 q 488 990 515 990 q 441 984 456 990 q 415 967 426 978 q 399 953 403 957 z "},"Œ":{"ha":1124,"x_min":72,"x_max":1132,"o":"m 453 -6 q 251 40 338 -6 q 119 165 165 85 q 72 346 72 244 q 81 429 72 386 q 183 661 106 561 q 367 816 260 761 q 590 871 475 871 q 671 869 640 871 l 769 868 l 1121 868 q 1129 856 1132 868 l 1118 785 l 1100 669 q 1094 665 1100 665 q 1087 667 1090 665 q 1083 671 1083 669 q 1044 797 1076 754 q 940 839 1013 839 l 917 839 q 858 833 876 839 q 832 810 840 826 q 817 754 824 793 l 706 118 q 700 72 700 82 q 715 35 700 44 q 772 25 731 25 l 807 25 q 935 72 883 25 q 1044 221 988 119 q 1050 224 1047 224 q 1058 222 1054 224 q 1061 218 1063 219 q 1014 21 1035 140 q 1006 4 1011 8 q 990 0 1001 0 l 625 0 q 529 -3 593 0 q 453 -6 474 -6 m 443 22 q 511 27 489 22 q 547 51 533 32 q 567 114 560 71 l 676 738 q 681 782 681 765 q 663 828 681 815 q 600 842 644 842 q 367 743 464 842 q 238 460 269 644 q 226 338 226 403 q 253 173 226 244 q 328 62 279 101 q 443 22 378 22 m 1007 308 q 997 303 1006 303 q 990 310 989 304 q 993 338 993 329 q 964 408 993 383 q 882 432 935 432 l 697 432 l 701 471 l 892 471 q 990 495 956 471 q 1036 576 1025 519 q 1046 583 1038 583 q 1053 575 1054 582 l 1040 504 q 1031 451 1036 483 l 1019 388 q 1007 308 1015 356 z "},"P":{"ha":739,"x_min":18,"x_max":751,"o":"m 21 0 q 18 8 18 0 q 21 17 18 17 q 79 24 60 17 q 108 51 99 31 q 125 113 118 71 l 239 756 q 244 801 244 792 q 228 842 244 832 q 171 851 213 851 q 167 860 167 851 q 171 868 167 868 l 232 867 q 322 864 288 864 q 389 868 350 864 q 489 872 485 872 q 680 823 608 872 q 751 679 751 774 q 747 629 751 657 q 674 481 731 542 q 545 392 618 421 q 404 364 472 364 q 347 371 369 364 q 346 375 346 371 q 349 391 346 382 q 356 399 351 400 q 396 393 372 393 q 524 445 468 393 q 594 601 579 497 q 600 661 600 643 q 560 794 600 746 q 463 843 521 843 q 401 826 418 843 q 374 753 385 808 l 261 113 q 256 67 256 76 q 272 26 256 36 q 329 17 288 17 q 333 8 333 17 q 329 0 333 0 q 265 1 289 0 l 172 3 l 83 1 q 21 0 61 0 z "},"Þ":{"ha":758,"x_min":18,"x_max":754,"o":"m 21 0 q 18 8 18 0 q 21 17 18 17 q 79 24 60 17 q 108 51 99 31 q 125 113 118 71 l 239 756 q 244 801 244 792 q 228 841 244 831 q 171 851 211 851 q 167 860 167 851 q 171 868 167 868 l 232 867 q 322 864 288 864 q 439 867 369 864 l 511 868 q 515 860 515 868 q 511 851 515 851 q 429 845 454 851 q 393 819 404 839 q 374 753 382 800 l 261 113 q 256 68 256 76 q 278 26 256 36 q 363 17 300 17 q 365 8 365 17 q 363 0 365 0 q 286 1 314 0 l 172 3 l 83 1 q 21 0 61 0 m 389 185 q 332 192 360 185 q 331 197 331 192 q 333 212 331 204 q 339 218 336 219 q 381 213 357 213 q 513 258 451 213 q 593 406 574 303 q 600 468 600 440 q 550 609 600 554 q 403 664 500 664 q 279 643 342 664 l 271 671 q 451 693 342 693 q 672 640 590 693 q 754 489 754 588 q 747 433 754 465 q 671 294 729 350 q 536 212 613 239 q 389 185 460 185 z "},"Q":{"ha":910,"x_min":74,"x_max":976,"o":"m 871 -278 q 672 -206 768 -278 q 504 1 576 -133 l 632 67 q 717 -92 663 -19 q 828 -206 771 -164 q 924 -247 885 -247 q 968 -242 950 -247 q 974 -248 972 -240 q 974 -257 976 -256 q 871 -278 914 -278 m 390 -17 q 220 28 292 -17 q 111 153 149 74 q 74 332 74 232 q 83 435 74 374 q 176 665 106 563 q 350 825 246 767 q 571 883 454 883 q 744 839 671 883 q 856 716 817 794 q 894 536 894 638 q 885 435 894 483 q 786 196 861 299 q 606 38 711 93 q 390 -17 501 -17 m 450 19 q 624 112 549 19 q 726 361 700 204 q 738 496 738 422 q 679 750 738 650 q 517 850 621 850 q 342 758 417 850 q 240 508 267 665 q 229 375 229 435 q 287 121 229 222 q 450 19 344 19 z "},"R":{"ha":882,"x_min":21,"x_max":853,"o":"m 26 0 q 21 8 21 0 q 26 17 21 17 q 89 24 68 17 q 121 52 110 32 q 140 113 132 72 l 253 756 q 258 803 258 782 q 242 842 258 832 q 181 851 225 851 q 175 860 175 851 q 181 868 175 868 l 247 867 q 339 864 303 864 q 383 865 363 864 q 418 868 403 867 q 488 872 458 872 q 729 722 729 872 q 725 682 729 703 q 656 545 711 604 q 519 454 600 486 q 347 422 438 422 q 315 425 321 422 l 324 468 q 347 462 332 464 q 375 460 363 460 q 515 504 467 460 q 578 651 563 549 q 583 714 583 683 q 553 812 583 781 q 475 843 524 843 q 428 838 442 843 q 406 816 414 833 q 390 753 399 799 l 276 113 q 271 65 271 74 q 288 26 271 36 q 347 17 304 17 q 353 8 353 17 q 349 0 353 0 q 282 1 306 0 l 189 3 l 93 1 q 26 0 69 0 m 639 0 q 587 47 619 0 q 512 194 554 93 q 424 447 469 294 l 536 485 q 656 207 604 308 q 754 61 708 106 q 849 17 800 17 q 853 8 853 17 q 849 0 853 0 l 639 0 z "},"Ŕ":{"ha":882,"x_min":21,"x_max":853,"o":"m 26 0 q 21 8 21 0 q 26 17 21 17 q 89 24 68 17 q 121 52 110 32 q 140 113 132 72 l 253 756 q 258 803 258 782 q 242 842 258 832 q 181 851 225 851 q 175 860 175 851 q 181 868 175 868 l 247 867 q 339 864 303 864 q 383 865 363 864 q 418 868 403 867 q 488 872 458 872 q 729 722 729 872 q 725 682 729 703 q 656 545 711 604 q 519 454 600 486 q 347 422 438 422 q 315 425 321 422 l 324 468 q 347 462 332 464 q 375 460 363 460 q 515 504 467 460 q 578 651 563 549 q 583 714 583 683 q 553 812 583 781 q 475 843 524 843 q 428 838 442 843 q 406 816 414 833 q 390 753 399 799 l 276 113 q 271 65 271 74 q 288 26 271 36 q 347 17 304 17 q 353 8 353 17 q 349 0 353 0 q 282 1 306 0 l 189 3 l 93 1 q 26 0 69 0 m 639 0 q 587 47 619 0 q 512 194 554 93 q 424 447 469 294 l 536 485 q 656 207 604 308 q 754 61 708 106 q 849 17 800 17 q 853 8 853 17 q 849 0 853 0 l 639 0 m 340 942 q 333 948 335 942 q 335 957 331 954 q 456 1054 378 988 q 510 1101 474 1071 q 559 1095 517 1107 q 634 1068 601 1083 q 650 1050 667 1053 q 342 942 486 1008 l 340 942 z "},"Ř":{"ha":882,"x_min":21,"x_max":853,"o":"m 26 0 q 21 8 21 0 q 26 17 21 17 q 89 24 68 17 q 121 52 110 32 q 140 113 132 72 l 253 756 q 258 803 258 782 q 242 842 258 832 q 181 851 225 851 q 175 860 175 851 q 181 868 175 868 l 247 867 q 339 864 303 864 q 383 865 363 864 q 418 868 403 867 q 488 872 458 872 q 729 722 729 872 q 725 682 729 703 q 656 545 711 604 q 519 454 600 486 q 347 422 438 422 q 315 425 321 422 l 324 468 q 347 462 332 464 q 375 460 363 460 q 515 504 467 460 q 578 651 563 549 q 583 714 583 683 q 553 812 583 781 q 475 843 524 843 q 428 838 442 843 q 406 816 414 833 q 390 753 399 799 l 276 113 q 271 65 271 74 q 288 26 271 36 q 347 17 304 17 q 353 8 353 17 q 349 0 353 0 q 282 1 306 0 l 189 3 l 93 1 q 26 0 69 0 m 639 0 q 587 47 619 0 q 512 194 554 93 q 424 447 469 294 l 536 485 q 656 207 604 308 q 754 61 708 106 q 849 17 800 17 q 853 8 853 17 q 849 0 853 0 l 639 0 m 358 1114 q 363 1120 358 1117 q 369 1122 367 1124 l 500 1068 l 654 1122 l 656 1122 q 663 1119 660 1122 q 663 1113 665 1115 l 500 951 q 486 946 494 946 q 475 951 479 946 l 358 1113 l 358 1114 z "},"Ŗ":{"ha":882,"x_min":21,"x_max":853,"o":"m 26 0 q 21 8 21 0 q 26 17 21 17 q 89 24 68 17 q 121 52 110 32 q 140 113 132 72 l 253 756 q 258 803 258 782 q 242 842 258 832 q 181 851 225 851 q 175 860 175 851 q 181 868 175 868 l 247 867 q 339 864 303 864 q 383 865 363 864 q 418 868 403 867 q 488 872 458 872 q 729 722 729 872 q 725 682 729 703 q 656 545 711 604 q 519 454 600 486 q 347 422 438 422 q 315 425 321 422 l 324 468 q 347 462 332 464 q 375 460 363 460 q 515 504 467 460 q 578 651 563 549 q 583 714 583 683 q 553 812 583 781 q 475 843 524 843 q 428 838 442 843 q 406 816 414 833 q 390 753 399 799 l 276 113 q 271 65 271 74 q 288 26 271 36 q 347 17 304 17 q 353 8 353 17 q 349 0 353 0 q 282 1 306 0 l 189 3 l 93 1 q 26 0 69 0 m 639 0 q 587 47 619 0 q 512 194 554 93 q 424 447 469 294 l 536 485 q 656 207 604 308 q 754 61 708 106 q 849 17 800 17 q 853 8 853 17 q 849 0 853 0 l 639 0 m 385 -383 q 376 -377 379 -383 q 378 -368 374 -371 q 460 -275 450 -325 l 463 -253 q 440 -217 463 -222 l 486 -190 q 476 -236 488 -221 q 436 -251 464 -251 q 381 -228 400 -251 q 363 -175 363 -206 q 385 -119 363 -142 q 447 -96 407 -96 q 508 -119 488 -96 q 528 -182 528 -143 q 489 -295 528 -243 q 388 -382 450 -347 l 385 -383 z "},"Ȑ":{"ha":882,"x_min":21,"x_max":853,"o":"m 26 0 q 21 8 21 0 q 26 17 21 17 q 89 24 68 17 q 121 52 110 32 q 140 113 132 72 l 253 756 q 258 803 258 782 q 242 842 258 832 q 181 851 225 851 q 175 860 175 851 q 181 868 175 868 l 247 867 q 339 864 303 864 q 383 865 363 864 q 418 868 403 867 q 488 872 458 872 q 729 722 729 872 q 725 682 729 703 q 656 545 711 604 q 519 454 600 486 q 347 422 438 422 q 315 425 321 422 l 324 468 q 347 462 332 464 q 375 460 363 460 q 515 504 467 460 q 578 651 563 549 q 583 714 583 683 q 553 812 583 781 q 475 843 524 843 q 428 838 442 843 q 406 816 414 833 q 390 753 399 799 l 276 113 q 271 65 271 74 q 288 26 271 36 q 347 17 304 17 q 353 8 353 17 q 349 0 353 0 q 282 1 306 0 l 189 3 l 93 1 q 26 0 69 0 m 639 0 q 587 47 619 0 q 512 194 554 93 q 424 447 469 294 l 536 485 q 656 207 604 308 q 754 61 708 106 q 849 17 800 17 q 853 8 853 17 q 849 0 853 0 l 639 0 m 664 929 q 605 975 638 953 q 542 1017 572 997 l 467 1067 q 473 1086 454 1075 q 523 1106 492 1097 q 575 1114 554 1114 q 592 1110 590 1114 q 646 1001 606 1076 l 678 942 l 679 938 q 673 929 679 932 q 664 929 667 926 m 469 929 q 404 982 436 960 q 314 1040 372 1004 l 271 1067 q 278 1086 258 1075 q 330 1106 297 1097 q 382 1114 363 1114 q 397 1110 396 1114 q 447 1008 413 1074 l 482 942 l 483 938 q 478 929 483 932 q 469 929 472 926 z "},"Ṛ":{"ha":882,"x_min":21,"x_max":853,"o":"m 26 0 q 21 8 21 0 q 26 17 21 17 q 89 24 68 17 q 121 52 110 32 q 140 113 132 72 l 253 756 q 258 803 258 782 q 242 842 258 832 q 181 851 225 851 q 175 860 175 851 q 181 868 175 868 l 247 867 q 339 864 303 864 q 383 865 363 864 q 418 868 403 867 q 488 872 458 872 q 729 722 729 872 q 725 682 729 703 q 656 545 711 604 q 519 454 600 486 q 347 422 438 422 q 315 425 321 422 l 324 468 q 347 462 332 464 q 375 460 363 460 q 515 504 467 460 q 578 651 563 549 q 583 714 583 683 q 553 812 583 781 q 475 843 524 843 q 428 838 442 843 q 406 816 414 833 q 390 753 399 799 l 276 113 q 271 65 271 74 q 288 26 271 36 q 347 17 304 17 q 353 8 353 17 q 349 0 353 0 q 282 1 306 0 l 189 3 l 93 1 q 26 0 69 0 m 639 0 q 587 47 619 0 q 512 194 554 93 q 424 447 469 294 l 536 485 q 656 207 604 308 q 754 61 708 106 q 849 17 800 17 q 853 8 853 17 q 849 0 853 0 l 639 0 m 444 -282 q 387 -261 408 -282 q 365 -201 365 -240 q 387 -147 365 -168 q 444 -126 408 -126 q 501 -147 481 -126 q 521 -201 521 -168 q 501 -261 521 -240 q 444 -282 481 -282 z "},"Ṝ":{"ha":882,"x_min":21,"x_max":853,"o":"m 26 0 q 21 8 21 0 q 26 17 21 17 q 89 24 68 17 q 121 52 110 32 q 140 113 132 72 l 253 756 q 258 803 258 782 q 242 842 258 832 q 181 851 225 851 q 175 860 175 851 q 181 868 175 868 l 247 867 q 339 864 303 864 q 383 865 363 864 q 418 868 403 867 q 488 872 458 872 q 729 722 729 872 q 725 682 729 703 q 656 545 711 604 q 519 454 600 486 q 347 422 438 422 q 315 425 321 422 l 324 468 q 347 462 332 464 q 375 460 363 460 q 515 504 467 460 q 578 651 563 549 q 583 714 583 683 q 553 812 583 781 q 475 843 524 843 q 428 838 442 843 q 406 816 414 833 q 390 753 399 799 l 276 113 q 271 65 271 74 q 288 26 271 36 q 347 17 304 17 q 353 8 353 17 q 349 0 353 0 q 282 1 306 0 l 189 3 l 93 1 q 26 0 69 0 m 639 0 q 587 47 619 0 q 512 194 554 93 q 424 447 469 294 l 536 485 q 656 207 604 308 q 754 61 708 106 q 849 17 800 17 q 853 8 853 17 q 849 0 853 0 l 639 0 m 444 -282 q 387 -261 408 -282 q 365 -201 365 -240 q 387 -147 365 -168 q 444 -126 408 -126 q 501 -147 481 -126 q 521 -201 521 -168 q 501 -261 521 -240 q 444 -282 481 -282 m 301 990 q 292 998 296 990 q 288 1017 288 1006 q 292 1034 288 1026 q 301 1042 296 1042 l 650 1042 q 661 1034 657 1042 q 665 1017 665 1026 q 661 998 665 1006 q 650 990 657 990 l 301 990 z "},"Ȓ":{"ha":882,"x_min":21,"x_max":853,"o":"m 26 0 q 21 8 21 0 q 26 17 21 17 q 89 24 68 17 q 121 52 110 32 q 140 113 132 72 l 253 756 q 258 803 258 782 q 242 842 258 832 q 181 851 225 851 q 175 860 175 851 q 181 868 175 868 l 247 867 q 339 864 303 864 q 383 865 363 864 q 418 868 403 867 q 488 872 458 872 q 729 722 729 872 q 725 682 729 703 q 656 545 711 604 q 519 454 600 486 q 347 422 438 422 q 315 425 321 422 l 324 468 q 347 462 332 464 q 375 460 363 460 q 515 504 467 460 q 578 651 563 549 q 583 714 583 683 q 553 812 583 781 q 475 843 524 843 q 428 838 442 843 q 406 816 414 833 q 390 753 399 799 l 276 113 q 271 65 271 74 q 288 26 271 36 q 347 17 304 17 q 353 8 353 17 q 349 0 353 0 q 282 1 306 0 l 189 3 l 93 1 q 26 0 69 0 m 639 0 q 587 47 619 0 q 512 194 554 93 q 424 447 469 294 l 536 485 q 656 207 604 308 q 754 61 708 106 q 849 17 800 17 q 853 8 853 17 q 849 0 853 0 l 639 0 m 558 956 q 529 1009 554 990 q 471 1028 504 1028 q 419 1011 444 1028 q 376 961 393 994 q 368 957 372 957 q 357 960 363 957 q 353 965 351 963 q 435 1071 383 1033 q 538 1108 486 1108 q 635 1074 596 1108 q 674 974 674 1039 q 640 958 674 965 q 579 951 607 951 q 558 956 558 951 z "},"Ṟ":{"ha":882,"x_min":21,"x_max":853,"o":"m 26 0 q 21 8 21 0 q 26 17 21 17 q 89 24 68 17 q 121 52 110 32 q 140 113 132 72 l 253 756 q 258 803 258 782 q 242 842 258 832 q 181 851 225 851 q 175 860 175 851 q 181 868 175 868 l 247 867 q 339 864 303 864 q 383 865 363 864 q 418 868 403 867 q 488 872 458 872 q 729 722 729 872 q 725 682 729 703 q 656 545 711 604 q 519 454 600 486 q 347 422 438 422 q 315 425 321 422 l 324 468 q 347 462 332 464 q 375 460 363 460 q 515 504 467 460 q 578 651 563 549 q 583 714 583 683 q 553 812 583 781 q 475 843 524 843 q 428 838 442 843 q 406 816 414 833 q 390 753 399 799 l 276 113 q 271 65 271 74 q 288 26 271 36 q 347 17 304 17 q 353 8 353 17 q 349 0 353 0 q 282 1 306 0 l 189 3 l 93 1 q 26 0 69 0 m 639 0 q 587 47 619 0 q 512 194 554 93 q 424 447 469 294 l 536 485 q 656 207 604 308 q 754 61 708 106 q 849 17 800 17 q 853 8 853 17 q 849 0 853 0 l 639 0 m 308 -171 q 299 -162 303 -171 q 294 -143 294 -154 q 299 -124 294 -132 q 308 -115 303 -115 l 625 -115 q 636 -124 632 -115 q 640 -143 640 -132 q 636 -162 640 -154 q 625 -171 632 -171 l 308 -171 z "},"S":{"ha":653,"x_min":40,"x_max":650,"o":"m 267 -17 q 54 31 154 -17 q 46 57 40 40 l 90 253 q 98 260 90 260 q 107 253 106 260 q 304 17 158 17 q 415 65 372 17 q 457 192 457 113 q 419 307 457 258 q 308 411 381 356 q 225 479 256 451 q 174 544 194 507 q 153 628 153 582 q 157 668 153 647 q 267 828 179 772 q 467 883 356 883 q 631 850 549 883 q 646 826 650 840 l 625 646 q 617 642 624 642 q 610 646 611 642 q 539 799 588 743 q 429 854 490 854 q 351 828 382 854 q 307 767 321 803 q 293 699 293 732 q 313 624 293 657 q 358 566 332 590 q 438 500 385 542 q 563 383 519 436 q 606 258 606 331 q 603 222 606 235 q 496 50 583 117 q 267 -17 408 -17 z "},"Ś":{"ha":653,"x_min":40,"x_max":685,"o":"m 267 -17 q 54 31 154 -17 q 46 57 40 40 l 90 253 q 98 260 90 260 q 107 253 106 260 q 304 17 158 17 q 415 65 372 17 q 457 192 457 113 q 419 307 457 258 q 308 411 381 356 q 225 479 256 451 q 174 544 194 507 q 153 628 153 582 q 157 668 153 647 q 267 828 179 772 q 467 883 356 883 q 631 850 549 883 q 646 826 650 840 l 625 646 q 617 642 624 642 q 610 646 611 642 q 539 799 588 743 q 429 854 490 854 q 351 828 382 854 q 307 767 321 803 q 293 699 293 732 q 313 624 293 657 q 358 566 332 590 q 438 500 385 542 q 563 383 519 436 q 606 258 606 331 q 603 222 606 235 q 496 50 583 117 q 267 -17 408 -17 m 357 942 q 350 948 351 942 q 353 957 349 954 q 469 1053 394 988 q 526 1101 524 1099 q 577 1097 535 1108 q 652 1069 619 1085 q 668 1050 685 1053 q 510 1003 582 1029 q 360 943 439 978 l 357 942 z "},"Ꞌ":{"ha":365,"x_min":186,"x_max":408,"o":"m 222 1007 q 255 1021 221 1015 q 329 1026 289 1026 q 386 1022 364 1026 q 403 1007 408 1017 q 219 410 300 790 q 207 407 219 407 q 188 413 186 407 q 226 888 226 707 q 222 1007 226 951 z "},"Š":{"ha":653,"x_min":40,"x_max":650,"o":"m 267 -17 q 54 31 154 -17 q 46 57 40 40 l 90 253 q 98 260 90 260 q 107 253 106 260 q 304 17 158 17 q 415 65 372 17 q 457 192 457 113 q 419 307 457 258 q 308 411 381 356 q 225 479 256 451 q 174 544 194 507 q 153 628 153 582 q 157 668 153 647 q 267 828 179 772 q 467 883 356 883 q 631 850 549 883 q 646 826 650 840 l 625 646 q 617 642 624 642 q 610 646 611 642 q 539 799 588 743 q 429 854 490 854 q 351 828 382 854 q 307 767 321 803 q 293 699 293 732 q 313 624 293 657 q 358 566 332 590 q 438 500 385 542 q 563 383 519 436 q 606 258 606 331 q 603 222 606 235 q 496 50 583 117 q 267 -17 408 -17 m 311 1114 q 315 1120 311 1117 q 322 1122 319 1124 l 453 1068 l 607 1122 l 608 1122 q 615 1119 613 1122 q 615 1113 618 1115 l 453 951 q 439 946 447 946 q 428 951 432 946 l 311 1113 l 311 1114 z "},"Ş":{"ha":653,"x_min":40,"x_max":650,"o":"m 267 -17 q 54 31 154 -17 q 46 57 40 40 l 90 253 q 98 260 90 260 q 107 253 106 260 q 304 17 158 17 q 415 65 372 17 q 457 192 457 113 q 419 307 457 258 q 308 411 381 356 q 225 479 256 451 q 174 544 194 507 q 153 628 153 582 q 157 668 153 647 q 267 828 179 772 q 467 883 356 883 q 631 850 549 883 q 646 826 650 840 l 625 646 q 617 642 624 642 q 610 646 611 642 q 539 799 588 743 q 429 854 490 854 q 351 828 382 854 q 307 767 321 803 q 293 699 293 732 q 313 624 293 657 q 358 566 332 590 q 438 500 385 542 q 563 383 519 436 q 606 258 606 331 q 603 222 606 235 q 496 50 583 117 q 267 -17 408 -17 m 240 -382 q 161 -364 193 -382 q 129 -317 129 -346 q 147 -275 129 -289 q 188 -261 164 -261 q 223 -274 213 -261 q 242 -312 233 -287 q 258 -345 250 -335 q 282 -356 265 -356 q 308 -345 299 -356 q 318 -318 318 -335 q 300 -265 318 -294 q 247 -192 282 -236 q 236 -158 236 -179 q 242 -127 236 -143 q 263 -83 249 -111 l 303 0 l 325 0 q 313 -50 313 -29 q 322 -90 313 -72 q 344 -124 332 -108 q 361 -144 357 -139 q 408 -243 408 -204 q 390 -302 408 -269 q 333 -358 371 -335 q 240 -382 296 -382 z "},"Ŝ":{"ha":653,"x_min":40,"x_max":650,"o":"m 267 -17 q 54 31 154 -17 q 46 57 40 40 l 90 253 q 98 260 90 260 q 107 253 106 260 q 304 17 158 17 q 415 65 372 17 q 457 192 457 113 q 419 307 457 258 q 308 411 381 356 q 225 479 256 451 q 174 544 194 507 q 153 628 153 582 q 157 668 153 647 q 267 828 179 772 q 467 883 356 883 q 631 850 549 883 q 646 826 650 840 l 625 646 q 617 642 624 642 q 610 646 611 642 q 539 799 588 743 q 429 854 490 854 q 351 828 382 854 q 307 767 321 803 q 293 699 293 732 q 313 624 293 657 q 358 566 332 590 q 438 500 385 542 q 563 383 519 436 q 606 258 606 331 q 603 222 606 235 q 496 50 583 117 q 267 -17 408 -17 m 303 944 q 296 948 299 944 q 296 954 293 951 l 457 1114 q 469 1121 464 1121 q 482 1114 478 1121 l 597 954 l 599 951 q 594 946 599 949 q 588 944 590 943 l 457 997 l 304 944 l 303 944 z "},"Ș":{"ha":653,"x_min":40,"x_max":650,"o":"m 267 -17 q 54 31 154 -17 q 46 57 40 40 l 90 253 q 98 260 90 260 q 107 253 106 260 q 304 17 158 17 q 415 65 372 17 q 457 192 457 113 q 419 307 457 258 q 308 411 381 356 q 225 479 256 451 q 174 544 194 507 q 153 628 153 582 q 157 668 153 647 q 267 828 179 772 q 467 883 356 883 q 631 850 549 883 q 646 826 650 840 l 625 646 q 617 642 624 642 q 610 646 611 642 q 539 799 588 743 q 429 854 490 854 q 351 828 382 854 q 307 767 321 803 q 293 699 293 732 q 313 624 293 657 q 358 566 332 590 q 438 500 385 542 q 563 383 519 436 q 606 258 606 331 q 603 222 606 235 q 496 50 583 117 q 267 -17 408 -17 m 210 -383 q 201 -377 204 -383 q 203 -368 199 -371 q 285 -275 275 -325 l 288 -253 q 265 -217 288 -222 l 311 -190 q 301 -236 313 -221 q 261 -251 289 -251 q 206 -228 225 -251 q 188 -175 188 -206 q 210 -119 188 -142 q 272 -96 232 -96 q 333 -119 313 -96 q 353 -182 353 -143 q 314 -295 353 -243 q 213 -382 275 -347 l 210 -383 z "},"Ṡ":{"ha":653,"x_min":40,"x_max":650,"o":"m 267 -17 q 54 31 154 -17 q 46 57 40 40 l 90 253 q 98 260 90 260 q 107 253 106 260 q 304 17 158 17 q 415 65 372 17 q 457 192 457 113 q 419 307 457 258 q 308 411 381 356 q 225 479 256 451 q 174 544 194 507 q 153 628 153 582 q 157 668 153 647 q 267 828 179 772 q 467 883 356 883 q 631 850 549 883 q 646 826 650 840 l 625 646 q 617 642 624 642 q 610 646 611 642 q 539 799 588 743 q 429 854 490 854 q 351 828 382 854 q 307 767 321 803 q 293 699 293 732 q 313 624 293 657 q 358 566 332 590 q 438 500 385 542 q 563 383 519 436 q 606 258 606 331 q 603 222 606 235 q 496 50 583 117 q 267 -17 408 -17 m 464 990 q 406 1012 428 990 q 385 1071 385 1033 q 406 1126 385 1106 q 464 1146 428 1146 q 520 1126 500 1146 q 540 1071 540 1106 q 520 1012 540 1033 q 464 990 500 990 z "},"Ṣ":{"ha":653,"x_min":40,"x_max":650,"o":"m 267 -17 q 54 31 154 -17 q 46 57 40 40 l 90 253 q 98 260 90 260 q 107 253 106 260 q 304 17 158 17 q 415 65 372 17 q 457 192 457 113 q 419 307 457 258 q 308 411 381 356 q 225 479 256 451 q 174 544 194 507 q 153 628 153 582 q 157 668 153 647 q 267 828 179 772 q 467 883 356 883 q 631 850 549 883 q 646 826 650 840 l 625 646 q 617 642 624 642 q 610 646 611 642 q 539 799 588 743 q 429 854 490 854 q 351 828 382 854 q 307 767 321 803 q 293 699 293 732 q 313 624 293 657 q 358 566 332 590 q 438 500 385 542 q 563 383 519 436 q 606 258 606 331 q 603 222 606 235 q 496 50 583 117 q 267 -17 408 -17 m 269 -282 q 212 -261 233 -282 q 190 -201 190 -240 q 212 -147 190 -168 q 269 -126 233 -126 q 326 -147 306 -126 q 346 -201 346 -168 q 326 -261 346 -240 q 269 -282 306 -282 z "},"ẞ":{"ha":856,"x_min":-17,"x_max":893,"o":"m 506 -17 q 392 15 442 -17 q 386 19 390 17 q 381 26 382 21 q 382 40 379 32 l 425 214 q 432 217 425 217 q 442 213 442 217 q 485 74 447 117 q 585 32 524 32 q 670 63 638 32 q 713 153 703 94 q 715 188 715 178 q 683 290 715 242 q 569 421 650 339 q 567 440 561 429 l 750 721 q 628 793 693 769 q 513 817 564 817 q 401 787 440 817 q 344 708 361 757 q 313 575 328 660 l 231 113 q 225 61 225 85 q 239 26 225 35 q 290 17 253 17 q 294 8 294 17 q 290 0 294 0 l 140 1 l -14 0 q -17 8 -17 0 q -14 17 -17 17 q 60 35 38 17 q 92 113 82 54 l 160 499 q 242 682 176 593 q 410 827 307 771 q 640 883 514 883 q 781 876 722 883 q 849 868 840 868 q 865 871 861 868 q 878 886 869 874 q 882 889 881 889 q 890 885 886 889 q 892 879 893 882 l 683 560 q 788 427 756 482 q 819 308 819 372 q 815 261 819 286 q 769 131 804 194 q 667 26 733 68 q 506 -17 601 -17 z "},"T":{"ha":768,"x_min":100,"x_max":844,"o":"m 157 0 q 154 8 154 0 q 157 17 154 17 q 234 24 208 17 q 272 51 260 31 q 293 113 285 71 l 406 756 q 411 797 411 789 q 400 828 411 819 q 363 836 389 836 l 346 836 q 256 806 303 836 q 171 727 208 776 q 117 619 133 678 q 108 617 115 615 q 101 622 100 618 q 135 756 113 663 q 167 899 157 849 q 176 902 168 903 q 183 897 185 901 q 238 868 179 868 q 492 864 340 864 q 649 867 563 864 l 736 868 q 799 875 778 868 q 828 903 819 882 q 838 906 831 907 q 843 900 844 906 q 809 756 831 856 q 783 622 788 657 q 774 617 782 617 q 767 624 765 618 q 771 668 771 647 q 731 788 771 740 q 626 836 690 836 l 611 836 q 563 820 575 836 q 543 753 551 804 l 431 113 q 425 69 425 79 q 448 27 425 38 q 533 17 471 17 q 536 8 536 17 q 533 0 536 0 q 457 1 485 0 l 344 3 l 236 1 q 157 0 208 0 z "},"Ŧ":{"ha":768,"x_min":100,"x_max":844,"o":"m 222 429 q 217 449 217 429 q 222 468 217 468 l 613 468 q 617 462 615 468 q 619 449 619 456 q 617 435 619 442 q 613 429 615 429 l 222 429 m 157 0 q 154 8 154 0 q 157 17 154 17 q 234 24 208 17 q 272 51 260 31 q 293 113 285 71 l 406 756 q 411 797 411 789 q 400 828 411 819 q 363 836 389 836 l 346 836 q 256 806 303 836 q 171 727 208 776 q 117 619 133 678 q 108 617 115 615 q 101 622 100 618 q 135 756 113 663 q 167 899 157 849 q 176 902 168 903 q 183 897 185 901 q 238 868 179 868 q 492 864 340 864 q 649 867 563 864 l 736 868 q 799 875 778 868 q 828 903 819 882 q 838 906 831 907 q 843 900 844 906 q 809 756 831 856 q 783 622 788 657 q 774 617 782 617 q 767 624 765 618 q 771 668 771 647 q 731 788 771 740 q 626 836 690 836 l 611 836 q 563 820 575 836 q 543 753 551 804 l 431 113 q 425 69 425 79 q 448 27 425 38 q 533 17 471 17 q 536 8 536 17 q 533 0 536 0 q 457 1 485 0 l 344 3 l 236 1 q 157 0 208 0 z "},"Ť":{"ha":768,"x_min":100,"x_max":844,"o":"m 157 0 q 154 8 154 0 q 157 17 154 17 q 234 24 208 17 q 272 51 260 31 q 293 113 285 71 l 406 756 q 411 797 411 789 q 400 828 411 819 q 363 836 389 836 l 346 836 q 256 806 303 836 q 171 727 208 776 q 117 619 133 678 q 108 617 115 615 q 101 622 100 618 q 135 756 113 663 q 167 899 157 849 q 176 902 168 903 q 183 897 185 901 q 238 868 179 868 q 492 864 340 864 q 649 867 563 864 l 736 868 q 799 875 778 868 q 828 903 819 882 q 838 906 831 907 q 843 900 844 906 q 809 756 831 856 q 783 622 788 657 q 774 617 782 617 q 767 624 765 618 q 771 668 771 647 q 731 788 771 740 q 626 836 690 836 l 611 836 q 563 820 575 836 q 543 753 551 804 l 431 113 q 425 69 425 79 q 448 27 425 38 q 533 17 471 17 q 536 8 536 17 q 533 0 536 0 q 457 1 485 0 l 344 3 l 236 1 q 157 0 208 0 m 372 1114 q 376 1120 372 1117 q 383 1122 381 1124 l 514 1068 l 668 1122 l 669 1122 q 676 1119 674 1122 q 676 1113 679 1115 l 514 951 q 500 946 508 946 q 489 951 493 946 l 372 1113 l 372 1114 z "},"Ţ":{"ha":768,"x_min":100,"x_max":844,"o":"m 157 0 q 154 8 154 0 q 157 17 154 17 q 234 24 208 17 q 272 51 260 31 q 293 113 285 71 l 406 756 q 411 797 411 789 q 400 828 411 819 q 363 836 389 836 l 346 836 q 256 806 303 836 q 171 727 208 776 q 117 619 133 678 q 108 617 115 615 q 101 622 100 618 q 135 756 113 663 q 167 899 157 849 q 176 902 168 903 q 183 897 185 901 q 238 868 179 868 q 492 864 340 864 q 649 867 563 864 l 736 868 q 799 875 778 868 q 828 903 819 882 q 838 906 831 907 q 843 900 844 906 q 809 756 831 856 q 783 622 788 657 q 774 617 782 617 q 767 624 765 618 q 771 668 771 647 q 731 788 771 740 q 626 836 690 836 l 611 836 q 563 820 575 836 q 543 753 551 804 l 431 113 q 425 69 425 79 q 448 27 425 38 q 533 17 471 17 q 536 8 536 17 q 533 0 536 0 q 457 1 485 0 l 344 3 l 236 1 q 157 0 208 0 m 267 -382 q 188 -364 219 -382 q 156 -317 156 -346 q 173 -275 156 -289 q 214 -261 190 -261 q 249 -274 239 -261 q 268 -312 260 -287 q 284 -345 276 -335 q 308 -356 292 -356 q 335 -345 325 -356 q 344 -318 344 -335 q 326 -265 344 -294 q 274 -192 308 -236 q 263 -158 263 -179 q 269 -127 263 -143 q 289 -83 275 -111 l 344 29 l 368 29 q 346 -61 346 -32 q 355 -99 346 -83 q 388 -144 364 -115 q 435 -243 435 -204 q 416 -302 435 -269 q 360 -358 397 -335 q 267 -382 322 -382 z "},"Ț":{"ha":768,"x_min":100,"x_max":844,"o":"m 157 0 q 154 8 154 0 q 157 17 154 17 q 234 24 208 17 q 272 51 260 31 q 293 113 285 71 l 406 756 q 411 797 411 789 q 400 828 411 819 q 363 836 389 836 l 346 836 q 256 806 303 836 q 171 727 208 776 q 117 619 133 678 q 108 617 115 615 q 101 622 100 618 q 135 756 113 663 q 167 899 157 849 q 176 902 168 903 q 183 897 185 901 q 238 868 179 868 q 492 864 340 864 q 649 867 563 864 l 736 868 q 799 875 778 868 q 828 903 819 882 q 838 906 831 907 q 843 900 844 906 q 809 756 831 856 q 783 622 788 657 q 774 617 782 617 q 767 624 765 618 q 771 668 771 647 q 731 788 771 740 q 626 836 690 836 l 611 836 q 563 820 575 836 q 543 753 551 804 l 431 113 q 425 69 425 79 q 448 27 425 38 q 533 17 471 17 q 536 8 536 17 q 533 0 536 0 q 457 1 485 0 l 344 3 l 236 1 q 157 0 208 0 m 251 -383 q 243 -377 246 -383 q 244 -368 240 -371 q 326 -275 317 -325 l 329 -253 q 307 -217 329 -222 l 353 -190 q 342 -236 354 -221 q 303 -251 331 -251 q 248 -228 267 -251 q 229 -175 229 -206 q 251 -119 229 -142 q 314 -96 274 -96 q 374 -119 354 -96 q 394 -182 394 -143 q 356 -295 394 -243 q 254 -382 317 -347 l 251 -383 z "},"Ṭ":{"ha":768,"x_min":100,"x_max":844,"o":"m 157 0 q 154 8 154 0 q 157 17 154 17 q 234 24 208 17 q 272 51 260 31 q 293 113 285 71 l 406 756 q 411 797 411 789 q 400 828 411 819 q 363 836 389 836 l 346 836 q 256 806 303 836 q 171 727 208 776 q 117 619 133 678 q 108 617 115 615 q 101 622 100 618 q 135 756 113 663 q 167 899 157 849 q 176 902 168 903 q 183 897 185 901 q 238 868 179 868 q 492 864 340 864 q 649 867 563 864 l 736 868 q 799 875 778 868 q 828 903 819 882 q 838 906 831 907 q 843 900 844 906 q 809 756 831 856 q 783 622 788 657 q 774 617 782 617 q 767 624 765 618 q 771 668 771 647 q 731 788 771 740 q 626 836 690 836 l 611 836 q 563 820 575 836 q 543 753 551 804 l 431 113 q 425 69 425 79 q 448 27 425 38 q 533 17 471 17 q 536 8 536 17 q 533 0 536 0 q 457 1 485 0 l 344 3 l 236 1 q 157 0 208 0 m 311 -282 q 253 -261 275 -282 q 232 -201 232 -240 q 253 -147 232 -168 q 311 -126 275 -126 q 367 -147 347 -126 q 388 -201 388 -168 q 367 -261 388 -240 q 311 -282 347 -282 z "},"Ṯ":{"ha":768,"x_min":100,"x_max":844,"o":"m 157 0 q 154 8 154 0 q 157 17 154 17 q 234 24 208 17 q 272 51 260 31 q 293 113 285 71 l 406 756 q 411 797 411 789 q 400 828 411 819 q 363 836 389 836 l 346 836 q 256 806 303 836 q 171 727 208 776 q 117 619 133 678 q 108 617 115 615 q 101 622 100 618 q 135 756 113 663 q 167 899 157 849 q 176 902 168 903 q 183 897 185 901 q 238 868 179 868 q 492 864 340 864 q 649 867 563 864 l 736 868 q 799 875 778 868 q 828 903 819 882 q 838 906 831 907 q 843 900 844 906 q 809 756 831 856 q 783 622 788 657 q 774 617 782 617 q 767 624 765 618 q 771 668 771 647 q 731 788 771 740 q 626 836 690 836 l 611 836 q 563 820 575 836 q 543 753 551 804 l 431 113 q 425 69 425 79 q 448 27 425 38 q 533 17 471 17 q 536 8 536 17 q 533 0 536 0 q 457 1 485 0 l 344 3 l 236 1 q 157 0 208 0 m 175 -171 q 165 -162 169 -171 q 161 -143 161 -154 q 165 -124 161 -132 q 175 -115 169 -115 l 492 -115 q 503 -124 499 -115 q 507 -143 507 -132 q 503 -162 507 -154 q 492 -171 499 -171 l 175 -171 z "},"U":{"ha":861,"x_min":111,"x_max":956,"o":"m 776 696 q 781 743 781 721 q 757 823 781 794 q 689 851 733 851 q 685 860 685 851 q 689 868 686 868 l 750 867 q 825 864 797 864 q 897 867 853 864 l 950 868 q 955 860 956 868 q 950 851 954 851 q 865 806 900 851 q 817 686 829 761 l 743 267 q 621 58 719 135 q 385 -19 522 -19 q 185 44 258 -19 q 111 219 111 108 q 117 279 111 251 l 203 760 q 208 806 208 796 q 192 842 208 833 q 132 851 175 851 q 128 860 128 851 q 131 868 128 868 l 199 867 q 288 864 254 864 q 388 867 326 864 l 449 868 q 451 860 451 868 q 449 851 451 851 q 371 830 392 851 q 339 747 350 808 l 263 318 q 254 225 254 267 q 301 79 254 126 q 435 32 347 32 q 611 97 540 32 q 701 275 682 161 l 776 696 z "},"Ú":{"ha":861,"x_min":111,"x_max":956,"o":"m 776 696 q 781 743 781 721 q 757 823 781 794 q 689 851 733 851 q 685 860 685 851 q 689 868 686 868 l 750 867 q 825 864 797 864 q 897 867 853 864 l 950 868 q 955 860 956 868 q 950 851 954 851 q 865 806 900 851 q 817 686 829 761 l 743 267 q 621 58 719 135 q 385 -19 522 -19 q 185 44 258 -19 q 111 219 111 108 q 117 279 111 251 l 203 760 q 208 806 208 796 q 192 842 208 833 q 132 851 175 851 q 128 860 128 851 q 131 868 128 868 l 199 867 q 288 864 254 864 q 388 867 326 864 l 449 868 q 451 860 451 868 q 449 851 451 851 q 371 830 392 851 q 339 747 350 808 l 263 318 q 254 225 254 267 q 301 79 254 126 q 435 32 347 32 q 611 97 540 32 q 701 275 682 161 l 776 696 m 438 942 q 430 948 432 942 q 432 957 428 954 q 553 1054 475 988 q 607 1101 571 1071 q 656 1095 614 1107 q 731 1068 699 1083 q 747 1050 764 1053 q 439 942 583 1008 l 438 942 z "},"Ʉ":{"ha":861,"x_min":76,"x_max":956,"o":"m 82 413 q 76 432 76 413 q 82 451 76 451 l 835 451 q 840 445 838 451 q 842 432 842 439 q 840 419 842 425 q 835 413 838 413 l 82 413 m 776 696 q 781 743 781 721 q 757 823 781 794 q 689 851 733 851 q 685 860 685 851 q 689 868 686 868 l 750 867 q 825 864 797 864 q 897 867 853 864 l 950 868 q 955 860 956 868 q 950 851 954 851 q 865 806 900 851 q 817 686 829 761 l 743 267 q 621 58 719 135 q 385 -19 522 -19 q 185 44 258 -19 q 111 219 111 108 q 117 279 111 251 l 203 760 q 208 806 208 796 q 192 842 208 833 q 132 851 175 851 q 128 860 128 851 q 131 868 128 868 l 199 867 q 288 864 254 864 q 388 867 326 864 l 449 868 q 451 860 451 868 q 449 851 451 851 q 371 830 392 851 q 339 747 350 808 l 263 318 q 254 225 254 267 q 301 79 254 126 q 435 32 347 32 q 611 97 540 32 q 701 275 682 161 l 776 696 z "},"Ŭ":{"ha":861,"x_min":111,"x_max":956,"o":"m 776 696 q 781 743 781 721 q 757 823 781 794 q 689 851 733 851 q 685 860 685 851 q 689 868 686 868 l 750 867 q 825 864 797 864 q 897 867 853 864 l 950 868 q 955 860 956 868 q 950 851 954 851 q 865 806 900 851 q 817 686 829 761 l 743 267 q 621 58 719 135 q 385 -19 522 -19 q 185 44 258 -19 q 111 219 111 108 q 117 279 111 251 l 203 760 q 208 806 208 796 q 192 842 208 833 q 132 851 175 851 q 128 860 128 851 q 131 868 128 868 l 199 867 q 288 864 254 864 q 388 867 326 864 l 449 868 q 451 860 451 868 q 449 851 451 851 q 371 830 392 851 q 339 747 350 808 l 263 318 q 254 225 254 267 q 301 79 254 126 q 435 32 347 32 q 611 97 540 32 q 701 275 682 161 l 776 696 m 586 951 q 489 986 528 951 q 450 1086 450 1021 q 483 1101 450 1094 q 544 1108 517 1108 q 565 1104 565 1108 q 594 1051 569 1069 q 653 1032 619 1032 q 705 1049 679 1032 q 747 1099 731 1065 q 756 1103 751 1103 q 767 1100 761 1103 q 771 1094 772 1097 q 689 989 740 1026 q 586 951 638 951 z "},"Ǔ":{"ha":861,"x_min":111,"x_max":956,"o":"m 776 696 q 781 743 781 721 q 757 823 781 794 q 689 851 733 851 q 685 860 685 851 q 689 868 686 868 l 750 867 q 825 864 797 864 q 897 867 853 864 l 950 868 q 955 860 956 868 q 950 851 954 851 q 865 806 900 851 q 817 686 829 761 l 743 267 q 621 58 719 135 q 385 -19 522 -19 q 185 44 258 -19 q 111 219 111 108 q 117 279 111 251 l 203 760 q 208 806 208 796 q 192 842 208 833 q 132 851 175 851 q 128 860 128 851 q 131 868 128 868 l 199 867 q 288 864 254 864 q 388 867 326 864 l 449 868 q 451 860 451 868 q 449 851 451 851 q 371 830 392 851 q 339 747 350 808 l 263 318 q 254 225 254 267 q 301 79 254 126 q 435 32 347 32 q 611 97 540 32 q 701 275 682 161 l 776 696 m 456 1114 q 460 1120 456 1117 q 467 1122 464 1124 l 597 1068 l 751 1122 l 753 1122 q 760 1119 757 1122 q 760 1113 763 1115 l 597 951 q 583 946 592 946 q 572 951 576 946 l 456 1113 l 456 1114 z "},"Û":{"ha":861,"x_min":111,"x_max":956,"o":"m 776 696 q 781 743 781 721 q 757 823 781 794 q 689 851 733 851 q 685 860 685 851 q 689 868 686 868 l 750 867 q 825 864 797 864 q 897 867 853 864 l 950 868 q 955 860 956 868 q 950 851 954 851 q 865 806 900 851 q 817 686 829 761 l 743 267 q 621 58 719 135 q 385 -19 522 -19 q 185 44 258 -19 q 111 219 111 108 q 117 279 111 251 l 203 760 q 208 806 208 796 q 192 842 208 833 q 132 851 175 851 q 128 860 128 851 q 131 868 128 868 l 199 867 q 288 864 254 864 q 388 867 326 864 l 449 868 q 451 860 451 868 q 449 851 451 851 q 371 830 392 851 q 339 747 350 808 l 263 318 q 254 225 254 267 q 301 79 254 126 q 435 32 347 32 q 611 97 540 32 q 701 275 682 161 l 776 696 m 447 944 q 440 948 443 944 q 440 954 438 951 l 601 1114 q 614 1121 608 1121 q 626 1114 622 1121 l 742 954 l 743 951 q 739 946 743 949 q 732 944 735 943 l 601 997 l 449 944 l 447 944 z "},"Ȕ":{"ha":861,"x_min":111,"x_max":956,"o":"m 776 696 q 781 743 781 721 q 757 823 781 794 q 689 851 733 851 q 685 860 685 851 q 689 868 686 868 l 750 867 q 825 864 797 864 q 897 867 853 864 l 950 868 q 955 860 956 868 q 950 851 954 851 q 865 806 900 851 q 817 686 829 761 l 743 267 q 621 58 719 135 q 385 -19 522 -19 q 185 44 258 -19 q 111 219 111 108 q 117 279 111 251 l 203 760 q 208 806 208 796 q 192 842 208 833 q 132 851 175 851 q 128 860 128 851 q 131 868 128 868 l 199 867 q 288 864 254 864 q 388 867 326 864 l 449 868 q 451 860 451 868 q 449 851 451 851 q 371 830 392 851 q 339 747 350 808 l 263 318 q 254 225 254 267 q 301 79 254 126 q 435 32 347 32 q 611 97 540 32 q 701 275 682 161 l 776 696 m 761 929 q 702 975 735 953 q 639 1017 669 997 l 564 1067 q 570 1086 551 1075 q 620 1106 589 1097 q 672 1114 651 1114 q 689 1110 688 1114 q 743 1001 703 1076 l 775 942 l 776 938 q 770 929 776 932 q 761 929 764 926 m 567 929 q 501 982 533 960 q 411 1040 469 1004 l 368 1067 q 375 1086 356 1075 q 427 1106 394 1097 q 479 1114 460 1114 q 494 1110 493 1114 q 544 1008 510 1074 l 579 942 l 581 938 q 575 929 581 932 q 567 929 569 926 z "},"Ü":{"ha":861,"x_min":111,"x_max":956,"o":"m 776 696 q 781 743 781 721 q 757 823 781 794 q 689 851 733 851 q 685 860 685 851 q 689 868 686 868 l 750 867 q 825 864 797 864 q 897 867 853 864 l 950 868 q 955 860 956 868 q 950 851 954 851 q 865 806 900 851 q 817 686 829 761 l 743 267 q 621 58 719 135 q 385 -19 522 -19 q 185 44 258 -19 q 111 219 111 108 q 117 279 111 251 l 203 760 q 208 806 208 796 q 192 842 208 833 q 132 851 175 851 q 128 860 128 851 q 131 868 128 868 l 199 867 q 288 864 254 864 q 388 867 326 864 l 449 868 q 451 860 451 868 q 449 851 451 851 q 371 830 392 851 q 339 747 350 808 l 263 318 q 254 225 254 267 q 301 79 254 126 q 435 32 347 32 q 611 97 540 32 q 701 275 682 161 l 776 696 m 488 976 q 431 997 451 976 q 411 1053 411 1017 q 432 1106 411 1086 q 488 1125 453 1125 q 541 1106 522 1125 q 560 1053 560 1086 q 541 997 560 1017 q 488 976 522 976 m 729 976 q 674 997 693 976 q 654 1053 654 1017 q 674 1105 654 1086 q 729 1124 694 1124 q 783 1105 764 1124 q 801 1053 801 1086 q 783 997 801 1017 q 729 976 764 976 z "},"Ǘ":{"ha":861,"x_min":111,"x_max":956,"o":"m 776 696 q 781 743 781 721 q 757 823 781 794 q 689 851 733 851 q 685 860 685 851 q 689 868 686 868 l 750 867 q 825 864 797 864 q 897 867 853 864 l 950 868 q 955 860 956 868 q 950 851 954 851 q 865 806 900 851 q 817 686 829 761 l 743 267 q 621 58 719 135 q 385 -19 522 -19 q 185 44 258 -19 q 111 219 111 108 q 117 279 111 251 l 203 760 q 208 806 208 796 q 192 842 208 833 q 132 851 175 851 q 128 860 128 851 q 131 868 128 868 l 199 867 q 288 864 254 864 q 388 867 326 864 l 449 868 q 451 860 451 868 q 449 851 451 851 q 371 830 392 851 q 339 747 350 808 l 263 318 q 254 225 254 267 q 301 79 254 126 q 435 32 347 32 q 611 97 540 32 q 701 275 682 161 l 776 696 m 717 944 q 661 965 681 944 q 642 1021 642 985 q 662 1073 642 1054 q 717 1092 682 1092 q 769 1073 750 1092 q 788 1021 788 1054 q 769 965 788 985 q 717 944 750 944 m 496 944 q 440 965 460 944 q 421 1021 421 985 q 441 1073 421 1054 q 496 1092 461 1092 q 548 1073 529 1092 q 567 1021 567 1054 q 548 965 567 985 q 496 944 529 944 m 493 1133 q 486 1140 488 1133 q 489 1149 485 1146 q 606 1244 531 1179 q 663 1293 660 1290 q 713 1288 671 1300 q 788 1260 756 1276 q 804 1242 821 1244 q 647 1195 718 1221 q 496 1135 575 1169 l 493 1133 z "},"Ǚ":{"ha":861,"x_min":111,"x_max":956,"o":"m 776 696 q 781 743 781 721 q 757 823 781 794 q 689 851 733 851 q 685 860 685 851 q 689 868 686 868 l 750 867 q 825 864 797 864 q 897 867 853 864 l 950 868 q 955 860 956 868 q 950 851 954 851 q 865 806 900 851 q 817 686 829 761 l 743 267 q 621 58 719 135 q 385 -19 522 -19 q 185 44 258 -19 q 111 219 111 108 q 117 279 111 251 l 203 760 q 208 806 208 796 q 192 842 208 833 q 132 851 175 851 q 128 860 128 851 q 131 868 128 868 l 199 867 q 288 864 254 864 q 388 867 326 864 l 449 868 q 451 860 451 868 q 449 851 451 851 q 371 830 392 851 q 339 747 350 808 l 263 318 q 254 225 254 267 q 301 79 254 126 q 435 32 347 32 q 611 97 540 32 q 701 275 682 161 l 776 696 m 717 944 q 661 965 681 944 q 642 1021 642 985 q 662 1073 642 1054 q 717 1092 682 1092 q 769 1073 750 1092 q 788 1021 788 1054 q 769 965 788 985 q 717 944 750 944 m 496 944 q 440 965 460 944 q 421 1021 421 985 q 441 1073 421 1054 q 496 1092 461 1092 q 548 1073 529 1092 q 567 1021 567 1054 q 548 965 567 985 q 496 944 529 944 m 483 1111 q 476 1115 481 1110 q 475 1121 471 1119 l 636 1282 q 649 1289 643 1289 q 661 1282 657 1289 l 776 1121 q 778 1118 778 1121 q 774 1113 778 1115 q 767 1111 769 1110 l 636 1165 l 483 1111 z "},"Ǜ":{"ha":861,"x_min":111,"x_max":956,"o":"m 776 696 q 781 743 781 721 q 757 823 781 794 q 689 851 733 851 q 685 860 685 851 q 689 868 686 868 l 750 867 q 825 864 797 864 q 897 867 853 864 l 950 868 q 955 860 956 868 q 950 851 954 851 q 865 806 900 851 q 817 686 829 761 l 743 267 q 621 58 719 135 q 385 -19 522 -19 q 185 44 258 -19 q 111 219 111 108 q 117 279 111 251 l 203 760 q 208 806 208 796 q 192 842 208 833 q 132 851 175 851 q 128 860 128 851 q 131 868 128 868 l 199 867 q 288 864 254 864 q 388 867 326 864 l 449 868 q 451 860 451 868 q 449 851 451 851 q 371 830 392 851 q 339 747 350 808 l 263 318 q 254 225 254 267 q 301 79 254 126 q 435 32 347 32 q 611 97 540 32 q 701 275 682 161 l 776 696 m 717 944 q 661 965 681 944 q 642 1021 642 985 q 662 1073 642 1054 q 717 1092 682 1092 q 769 1073 750 1092 q 788 1021 788 1054 q 769 965 788 985 q 717 944 750 944 m 496 944 q 440 965 460 944 q 421 1021 421 985 q 441 1073 421 1054 q 496 1092 461 1092 q 548 1073 529 1092 q 567 1021 567 1054 q 548 965 567 985 q 496 944 529 944 m 750 1115 q 626 1160 679 1143 q 483 1204 572 1178 q 493 1222 467 1208 q 562 1246 519 1235 q 625 1257 604 1257 q 638 1254 635 1257 q 713 1178 672 1215 l 764 1128 q 765 1124 765 1126 q 760 1117 765 1119 q 750 1115 756 1114 z "},"Ǖ":{"ha":861,"x_min":111,"x_max":956,"o":"m 776 696 q 781 743 781 721 q 757 823 781 794 q 689 851 733 851 q 685 860 685 851 q 689 868 686 868 l 750 867 q 825 864 797 864 q 897 867 853 864 l 950 868 q 955 860 956 868 q 950 851 954 851 q 865 806 900 851 q 817 686 829 761 l 743 267 q 621 58 719 135 q 385 -19 522 -19 q 185 44 258 -19 q 111 219 111 108 q 117 279 111 251 l 203 760 q 208 806 208 796 q 192 842 208 833 q 132 851 175 851 q 128 860 128 851 q 131 868 128 868 l 199 867 q 288 864 254 864 q 388 867 326 864 l 449 868 q 451 860 451 868 q 449 851 451 851 q 371 830 392 851 q 339 747 350 808 l 263 318 q 254 225 254 267 q 301 79 254 126 q 435 32 347 32 q 611 97 540 32 q 701 275 682 161 l 776 696 m 703 944 q 647 965 667 944 q 628 1021 628 985 q 648 1073 628 1054 q 703 1092 668 1092 q 755 1073 736 1092 q 774 1021 774 1054 q 755 965 774 985 q 703 944 736 944 m 482 944 q 426 965 446 944 q 407 1021 407 985 q 427 1073 407 1054 q 482 1092 447 1092 q 534 1073 515 1092 q 553 1021 553 1054 q 534 965 553 985 q 482 944 515 944 m 456 1151 q 446 1160 450 1151 q 442 1179 442 1168 q 446 1199 442 1190 q 456 1207 450 1207 l 772 1207 q 783 1199 779 1207 q 788 1179 788 1190 q 783 1160 788 1168 q 772 1151 779 1151 l 456 1151 z "},"Ụ":{"ha":861,"x_min":111,"x_max":956,"o":"m 776 696 q 781 743 781 721 q 757 823 781 794 q 689 851 733 851 q 685 860 685 851 q 689 868 686 868 l 750 867 q 825 864 797 864 q 897 867 853 864 l 950 868 q 955 860 956 868 q 950 851 954 851 q 865 806 900 851 q 817 686 829 761 l 743 267 q 621 58 719 135 q 385 -19 522 -19 q 185 44 258 -19 q 111 219 111 108 q 117 279 111 251 l 203 760 q 208 806 208 796 q 192 842 208 833 q 132 851 175 851 q 128 860 128 851 q 131 868 128 868 l 199 867 q 288 864 254 864 q 388 867 326 864 l 449 868 q 451 860 451 868 q 449 851 451 851 q 371 830 392 851 q 339 747 350 808 l 263 318 q 254 225 254 267 q 301 79 254 126 q 435 32 347 32 q 611 97 540 32 q 701 275 682 161 l 776 696 m 353 -282 q 295 -261 317 -282 q 274 -201 274 -240 q 295 -147 274 -168 q 353 -126 317 -126 q 409 -147 389 -126 q 429 -201 429 -168 q 409 -261 429 -240 q 353 -282 389 -282 z "},"Ù":{"ha":861,"x_min":111,"x_max":956,"o":"m 776 696 q 781 743 781 721 q 757 823 781 794 q 689 851 733 851 q 685 860 685 851 q 689 868 686 868 l 750 867 q 825 864 797 864 q 897 867 853 864 l 950 868 q 955 860 956 868 q 950 851 954 851 q 865 806 900 851 q 817 686 829 761 l 743 267 q 621 58 719 135 q 385 -19 522 -19 q 185 44 258 -19 q 111 219 111 108 q 117 279 111 251 l 203 760 q 208 806 208 796 q 192 842 208 833 q 132 851 175 851 q 128 860 128 851 q 131 868 128 868 l 199 867 q 288 864 254 864 q 388 867 326 864 l 449 868 q 451 860 451 868 q 449 851 451 851 q 371 830 392 851 q 339 747 350 808 l 263 318 q 254 225 254 267 q 301 79 254 126 q 435 32 347 32 q 611 97 540 32 q 701 275 682 161 l 776 696 m 713 943 q 404 1050 557 1013 q 420 1069 388 1053 q 495 1097 453 1085 q 544 1101 538 1108 l 610 1046 q 718 957 671 993 q 722 951 722 956 q 719 944 722 947 q 713 943 717 942 z "},"Ủ":{"ha":861,"x_min":111,"x_max":956,"o":"m 776 696 q 781 743 781 721 q 757 823 781 794 q 689 851 733 851 q 685 860 685 851 q 689 868 686 868 l 750 867 q 825 864 797 864 q 897 867 853 864 l 950 868 q 955 860 956 868 q 950 851 954 851 q 865 806 900 851 q 817 686 829 761 l 743 267 q 621 58 719 135 q 385 -19 522 -19 q 185 44 258 -19 q 111 219 111 108 q 117 279 111 251 l 203 760 q 208 806 208 796 q 192 842 208 833 q 132 851 175 851 q 128 860 128 851 q 131 868 128 868 l 199 867 q 288 864 254 864 q 388 867 326 864 l 449 868 q 451 860 451 868 q 449 851 451 851 q 371 830 392 851 q 339 747 350 808 l 263 318 q 254 225 254 267 q 301 79 254 126 q 435 32 347 32 q 611 97 540 32 q 701 275 682 161 l 776 696 m 586 907 q 578 903 586 904 q 569 907 571 903 q 567 938 567 929 q 572 977 567 960 q 586 1022 576 994 q 601 1063 596 1046 q 606 1099 606 1079 q 567 1147 606 1147 q 517 1133 547 1147 l 514 1133 q 506 1138 510 1133 q 507 1146 503 1142 q 621 1185 557 1185 q 692 1165 665 1185 q 718 1111 718 1146 q 700 1058 718 1082 q 646 997 682 1033 q 601 947 615 967 q 586 907 586 928 z "},"Ư":{"ha":863,"x_min":111,"x_max":1071,"o":"m 743 267 q 621 58 719 135 q 385 -19 522 -19 q 185 44 258 -19 q 111 219 111 108 q 117 279 111 251 l 203 760 q 208 806 208 796 q 192 842 208 833 q 132 851 175 851 q 128 860 128 851 q 131 868 128 868 l 199 867 q 288 864 254 864 q 388 867 326 864 l 449 868 q 451 860 451 868 q 449 851 451 851 q 371 830 392 851 q 339 747 350 808 l 263 318 q 254 228 254 268 q 301 80 254 128 q 432 32 347 32 q 611 97 540 32 q 701 275 682 161 l 776 696 q 781 743 781 721 q 757 823 781 794 q 689 851 733 851 q 685 860 685 851 q 689 868 686 868 l 750 867 q 825 864 797 864 q 924 879 888 864 q 961 928 961 894 q 954 956 961 939 q 946 992 946 978 q 947 1006 946 1000 q 973 1049 953 1033 q 1017 1064 993 1064 q 1057 1046 1043 1064 q 1071 999 1071 1028 q 1069 979 1071 986 q 1039 917 1063 943 q 990 878 1015 892 q 919 846 964 865 q 856 797 879 828 q 817 686 832 765 l 743 267 z "},"Ứ":{"ha":863,"x_min":111,"x_max":1071,"o":"m 743 267 q 621 58 719 135 q 385 -19 522 -19 q 185 44 258 -19 q 111 219 111 108 q 117 279 111 251 l 203 760 q 208 806 208 796 q 192 842 208 833 q 132 851 175 851 q 128 860 128 851 q 131 868 128 868 l 199 867 q 288 864 254 864 q 388 867 326 864 l 449 868 q 451 860 451 868 q 449 851 451 851 q 371 830 392 851 q 339 747 350 808 l 263 318 q 254 228 254 268 q 301 80 254 128 q 432 32 347 32 q 611 97 540 32 q 701 275 682 161 l 776 696 q 781 743 781 721 q 757 823 781 794 q 689 851 733 851 q 685 860 685 851 q 689 868 686 868 l 750 867 q 825 864 797 864 q 924 879 888 864 q 961 928 961 894 q 954 956 961 939 q 946 992 946 978 q 947 1006 946 1000 q 973 1049 953 1033 q 1017 1064 993 1064 q 1057 1046 1043 1064 q 1071 999 1071 1028 q 1069 979 1071 986 q 1039 917 1063 943 q 990 878 1015 892 q 919 846 964 865 q 856 797 879 828 q 817 686 832 765 l 743 267 m 435 942 q 427 948 429 942 q 429 957 425 954 q 550 1054 472 988 q 604 1101 568 1071 q 653 1095 611 1107 q 728 1068 696 1083 q 744 1050 761 1053 q 436 942 581 1008 l 435 942 z "},"Ự":{"ha":863,"x_min":111,"x_max":1071,"o":"m 743 267 q 621 58 719 135 q 385 -19 522 -19 q 185 44 258 -19 q 111 219 111 108 q 117 279 111 251 l 203 760 q 208 806 208 796 q 192 842 208 833 q 132 851 175 851 q 128 860 128 851 q 131 868 128 868 l 199 867 q 288 864 254 864 q 388 867 326 864 l 449 868 q 451 860 451 868 q 449 851 451 851 q 371 830 392 851 q 339 747 350 808 l 263 318 q 254 228 254 268 q 301 80 254 128 q 432 32 347 32 q 611 97 540 32 q 701 275 682 161 l 776 696 q 781 743 781 721 q 757 823 781 794 q 689 851 733 851 q 685 860 685 851 q 689 868 686 868 l 750 867 q 825 864 797 864 q 924 879 888 864 q 961 928 961 894 q 954 956 961 939 q 946 992 946 978 q 947 1006 946 1000 q 973 1049 953 1033 q 1017 1064 993 1064 q 1057 1046 1043 1064 q 1071 999 1071 1028 q 1069 979 1071 986 q 1039 917 1063 943 q 990 878 1015 892 q 919 846 964 865 q 856 797 879 828 q 817 686 832 765 l 743 267 m 328 -282 q 270 -261 292 -282 q 249 -201 249 -240 q 270 -147 249 -168 q 328 -126 292 -126 q 384 -147 364 -126 q 404 -201 404 -168 q 384 -261 404 -240 q 328 -282 364 -282 z "},"Ừ":{"ha":863,"x_min":111,"x_max":1071,"o":"m 743 267 q 621 58 719 135 q 385 -19 522 -19 q 185 44 258 -19 q 111 219 111 108 q 117 279 111 251 l 203 760 q 208 806 208 796 q 192 842 208 833 q 132 851 175 851 q 128 860 128 851 q 131 868 128 868 l 199 867 q 288 864 254 864 q 388 867 326 864 l 449 868 q 451 860 451 868 q 449 851 451 851 q 371 830 392 851 q 339 747 350 808 l 263 318 q 254 228 254 268 q 301 80 254 128 q 432 32 347 32 q 611 97 540 32 q 701 275 682 161 l 776 696 q 781 743 781 721 q 757 823 781 794 q 689 851 733 851 q 685 860 685 851 q 689 868 686 868 l 750 867 q 825 864 797 864 q 924 879 888 864 q 961 928 961 894 q 954 956 961 939 q 946 992 946 978 q 947 1006 946 1000 q 973 1049 953 1033 q 1017 1064 993 1064 q 1057 1046 1043 1064 q 1071 999 1071 1028 q 1069 979 1071 986 q 1039 917 1063 943 q 990 878 1015 892 q 919 846 964 865 q 856 797 879 828 q 817 686 832 765 l 743 267 m 710 943 q 401 1050 554 1013 q 417 1069 385 1053 q 492 1097 450 1085 q 542 1101 535 1108 l 607 1046 q 715 957 668 993 q 719 951 719 956 q 717 944 719 947 q 710 943 714 942 z "},"Ử":{"ha":863,"x_min":111,"x_max":1071,"o":"m 743 267 q 621 58 719 135 q 385 -19 522 -19 q 185 44 258 -19 q 111 219 111 108 q 117 279 111 251 l 203 760 q 208 806 208 796 q 192 842 208 833 q 132 851 175 851 q 128 860 128 851 q 131 868 128 868 l 199 867 q 288 864 254 864 q 388 867 326 864 l 449 868 q 451 860 451 868 q 449 851 451 851 q 371 830 392 851 q 339 747 350 808 l 263 318 q 254 228 254 268 q 301 80 254 128 q 432 32 347 32 q 611 97 540 32 q 701 275 682 161 l 776 696 q 781 743 781 721 q 757 823 781 794 q 689 851 733 851 q 685 860 685 851 q 689 868 686 868 l 750 867 q 825 864 797 864 q 924 879 888 864 q 961 928 961 894 q 954 956 961 939 q 946 992 946 978 q 947 1006 946 1000 q 973 1049 953 1033 q 1017 1064 993 1064 q 1057 1046 1043 1064 q 1071 999 1071 1028 q 1069 979 1071 986 q 1039 917 1063 943 q 990 878 1015 892 q 919 846 964 865 q 856 797 879 828 q 817 686 832 765 l 743 267 m 583 907 q 576 903 583 904 q 567 907 568 903 q 564 938 564 929 q 569 977 564 960 q 583 1022 574 994 q 598 1063 593 1046 q 603 1099 603 1079 q 564 1147 603 1147 q 514 1133 544 1147 l 511 1133 q 503 1138 507 1133 q 504 1146 500 1142 q 618 1185 554 1185 q 689 1165 663 1185 q 715 1111 715 1146 q 697 1058 715 1082 q 643 997 679 1033 q 598 947 613 967 q 583 907 583 928 z "},"Ữ":{"ha":863,"x_min":111,"x_max":1071,"o":"m 743 267 q 621 58 719 135 q 385 -19 522 -19 q 185 44 258 -19 q 111 219 111 108 q 117 279 111 251 l 203 760 q 208 806 208 796 q 192 842 208 833 q 132 851 175 851 q 128 860 128 851 q 131 868 128 868 l 199 867 q 288 864 254 864 q 388 867 326 864 l 449 868 q 451 860 451 868 q 449 851 451 851 q 371 830 392 851 q 339 747 350 808 l 263 318 q 254 228 254 268 q 301 80 254 128 q 432 32 347 32 q 611 97 540 32 q 701 275 682 161 l 776 696 q 781 743 781 721 q 757 823 781 794 q 689 851 733 851 q 685 860 685 851 q 689 868 686 868 l 750 867 q 825 864 797 864 q 924 879 888 864 q 961 928 961 894 q 954 956 961 939 q 946 992 946 978 q 947 1006 946 1000 q 973 1049 953 1033 q 1017 1064 993 1064 q 1057 1046 1043 1064 q 1071 999 1071 1028 q 1069 979 1071 986 q 1039 917 1063 943 q 990 878 1015 892 q 919 846 964 865 q 856 797 879 828 q 817 686 832 765 l 743 267 m 408 985 q 402 988 406 985 q 400 994 399 992 q 464 1074 431 1042 q 538 1107 497 1107 q 603 1093 553 1107 q 656 1078 628 1085 q 706 1072 683 1072 q 753 1081 735 1072 q 793 1110 772 1089 q 796 1111 793 1111 q 801 1107 799 1111 q 803 1100 804 1103 q 734 1011 761 1033 q 671 989 707 989 q 593 1004 644 989 q 544 1017 569 1011 q 497 1022 519 1022 q 450 1015 464 1022 q 410 985 436 1008 l 408 985 z "},"Ű":{"ha":861,"x_min":111,"x_max":956,"o":"m 776 696 q 781 743 781 721 q 757 823 781 794 q 689 851 733 851 q 685 860 685 851 q 689 868 686 868 l 750 867 q 825 864 797 864 q 897 867 853 864 l 950 868 q 955 860 956 868 q 950 851 954 851 q 865 806 900 851 q 817 686 829 761 l 743 267 q 621 58 719 135 q 385 -19 522 -19 q 185 44 258 -19 q 111 219 111 108 q 117 279 111 251 l 203 760 q 208 806 208 796 q 192 842 208 833 q 132 851 175 851 q 128 860 128 851 q 131 868 128 868 l 199 867 q 288 864 254 864 q 388 867 326 864 l 449 868 q 451 860 451 868 q 449 851 451 851 q 371 830 392 851 q 339 747 350 808 l 263 318 q 254 225 254 267 q 301 79 254 126 q 435 32 347 32 q 611 97 540 32 q 701 275 682 161 l 776 696 m 400 925 q 394 931 396 925 q 396 942 393 938 l 449 1001 q 538 1110 506 1063 q 554 1115 540 1115 q 606 1107 575 1115 q 656 1088 638 1099 q 663 1067 674 1076 q 614 1042 636 1053 q 574 1021 592 1031 q 403 926 463 969 l 400 925 m 594 925 q 590 931 592 925 q 592 942 588 938 q 647 1006 588 938 q 732 1110 701 1064 q 747 1114 735 1114 q 800 1106 768 1114 q 851 1086 832 1097 q 858 1067 869 1075 q 705 992 758 1019 q 597 926 651 965 l 594 925 z "},"Ȗ":{"ha":861,"x_min":111,"x_max":956,"o":"m 776 696 q 781 743 781 721 q 757 823 781 794 q 689 851 733 851 q 685 860 685 851 q 689 868 686 868 l 750 867 q 825 864 797 864 q 897 867 853 864 l 950 868 q 955 860 956 868 q 950 851 954 851 q 865 806 900 851 q 817 686 829 761 l 743 267 q 621 58 719 135 q 385 -19 522 -19 q 185 44 258 -19 q 111 219 111 108 q 117 279 111 251 l 203 760 q 208 806 208 796 q 192 842 208 833 q 132 851 175 851 q 128 860 128 851 q 131 868 128 868 l 199 867 q 288 864 254 864 q 388 867 326 864 l 449 868 q 451 860 451 868 q 449 851 451 851 q 371 830 392 851 q 339 747 350 808 l 263 318 q 254 225 254 267 q 301 79 254 126 q 435 32 347 32 q 611 97 540 32 q 701 275 682 161 l 776 696 m 656 956 q 626 1009 651 990 q 568 1028 601 1028 q 516 1011 542 1028 q 474 961 490 994 q 465 957 469 957 q 454 960 460 957 q 450 965 449 963 q 532 1071 481 1033 q 635 1108 583 1108 q 732 1074 693 1108 q 771 974 771 1039 q 738 958 771 965 q 676 951 704 951 q 656 956 656 951 z "}}}
